<?xml version="1.0"?>
<!-- Generated by SVGo -->
<svg width="136.452mm" height="124.401mm"
     viewBox="0.000 0.000 136.452 124.401"
     xmlns="http://www.w3.org/2000/svg" 
     xmlns:xlink="http://www.w3.org/1999/xlink">
<polygon points="128.450,12.000 128.687,12.009 128.920,12.036 129.152,12.082 129.378,12.146 129.599,12.228 129.813,12.326 130.019,12.442 130.215,12.572 130.400,12.718 130.573,12.878 130.733,13.051 130.878,13.236 131.009,13.432 131.125,13.638 131.223,13.851 131.305,14.072 131.369,14.299 131.415,14.530 131.442,14.764 131.452,15.000 131.451,116.401 131.442,116.636 131.415,116.870 131.369,117.101 131.305,117.328 131.223,117.549 131.125,117.762 131.009,117.968 130.878,118.164 130.733,118.349 130.573,118.522 130.400,118.682 130.215,118.828 130.019,118.958 129.813,119.074 129.599,119.172 129.378,119.254 129.152,119.318 128.920,119.364 128.687,119.391 128.450,119.401 8.001,119.401 7.765,119.391 7.531,119.364 7.300,119.318 7.073,119.254 6.852,119.172 6.639,119.074 6.433,118.958 6.237,118.828 6.052,118.682 5.879,118.522 5.719,118.349 5.573,118.164 5.443,117.968 5.327,117.762 5.229,117.549 5.147,117.328 5.083,117.101 5.037,116.870 5.010,116.636 5.000,116.400 5.001,15.000 5.010,14.764 5.037,14.530 5.083,14.299 5.147,14.072 5.229,13.851 5.327,13.638 5.443,13.432 5.573,13.236 5.719,13.051 5.879,12.878 6.052,12.718 6.237,12.572 6.433,12.442 6.639,12.326 6.852,12.228 7.073,12.146 7.300,12.082 7.531,12.036 7.765,12.009 8.001,11.999" style="fill:none;stroke-width:0.010000mm;stroke:blue"/>
<polygon points="68.144,115.354 68.062,115.363 67.981,115.380 67.902,115.402 67.824,115.430 67.749,115.465 67.677,115.505 67.609,115.551 67.544,115.602 67.484,115.658 67.428,115.719 67.377,115.783 67.331,115.852 67.290,115.924 67.256,115.999 67.227,116.076 67.205,116.155 67.189,116.236 67.179,116.318 67.176,116.401 67.179,116.483 67.189,116.565 67.205,116.646 67.227,116.725 67.256,116.802 67.290,116.877 67.331,116.949 67.377,117.018 67.428,117.082 67.484,117.143 67.544,117.199 67.609,117.250 67.677,117.296 67.749,117.336 67.824,117.371 67.902,117.399 67.981,117.421 68.062,117.438 68.144,117.447 68.226,117.451 68.308,117.447 68.390,117.438 68.471,117.421 68.550,117.399 68.628,117.371 68.703,117.336 68.775,117.296 68.843,117.250 68.908,117.199 68.968,117.143 69.024,117.082 69.075,117.018 69.121,116.949 69.162,116.877 69.196,116.802 69.225,116.725 69.247,116.646 69.263,116.565 69.273,116.483 69.276,116.401 69.273,116.318 69.263,116.236 69.247,116.155 69.225,116.076 69.196,115.999 69.162,115.924 69.121,115.852 69.075,115.783 69.024,115.719 68.968,115.658 68.908,115.602 68.843,115.551 68.775,115.505 68.703,115.465 68.628,115.430 68.550,115.402 68.471,115.380 68.390,115.363 68.308,115.354 68.226,115.351" style="fill:none;stroke-width:0.010000mm;stroke:blue"/>
<polygon points="128.075,115.398 127.803,115.537 127.588,115.752 127.449,116.024 127.401,116.326 127.449,116.627 127.588,116.899 127.803,117.114 128.075,117.253 128.376,117.300 128.677,117.253 128.950,117.114 129.164,116.899 129.304,116.627 129.351,116.326 129.304,116.024 129.164,115.752 128.950,115.537 128.677,115.398 128.376,115.351" style="fill:none;stroke-width:0.010000mm;stroke:blue"/>
<polygon points="7.774,115.398 7.502,115.537 7.287,115.752 7.148,116.024 7.100,116.326 7.148,116.627 7.287,116.899 7.502,117.114 7.774,117.253 8.075,117.300 8.377,117.253 8.649,117.114 8.864,116.899 9.003,116.627 9.050,116.326 9.003,116.024 8.864,115.752 8.649,115.537 8.377,115.398 8.075,115.351" style="fill:none;stroke-width:0.010000mm;stroke:blue"/>
<polygon points="11.150,18.149 11.150,113.251 125.301,113.251 125.301,18.149" style="fill:none;stroke-width:0.010000mm;stroke:blue"/>
<polygon points="7.918,64.653 7.836,64.663 7.755,64.679 7.676,64.701 7.599,64.730 7.524,64.764 7.452,64.805 7.383,64.851 7.319,64.902 7.258,64.958 7.202,65.018 7.151,65.083 7.105,65.151 7.065,65.223 7.030,65.298 7.002,65.376 6.980,65.455 6.963,65.536 6.954,65.618 6.950,65.700 6.954,65.782 6.963,65.864 6.980,65.945 7.002,66.024 7.030,66.102 7.065,66.177 7.105,66.249 7.151,66.317 7.202,66.382 7.258,66.442 7.319,66.498 7.383,66.549 7.452,66.595 7.524,66.636 7.599,66.670 7.676,66.699 7.755,66.721 7.836,66.737 7.918,66.747 8.001,66.750 8.083,66.747 8.165,66.737 8.246,66.721 8.325,66.699 8.402,66.670 8.477,66.636 8.549,66.595 8.618,66.549 8.682,66.498 8.743,66.442 8.799,66.382 8.850,66.317 8.896,66.249 8.936,66.177 8.971,66.102 8.999,66.024 9.021,65.945 9.038,65.864 9.047,65.782 9.051,65.700 9.047,65.618 9.038,65.536 9.021,65.455 8.999,65.376 8.971,65.298 8.936,65.223 8.896,65.151 8.850,65.083 8.799,65.018 8.743,64.958 8.682,64.902 8.618,64.851 8.549,64.805 8.477,64.764 8.402,64.730 8.325,64.701 8.246,64.679 8.165,64.663 8.083,64.653 8.001,64.650" style="fill:none;stroke-width:0.010000mm;stroke:blue"/>
<polygon points="128.369,64.653 128.287,64.663 128.206,64.679 128.127,64.701 128.050,64.730 127.975,64.764 127.903,64.805 127.834,64.851 127.770,64.902 127.709,64.958 127.653,65.018 127.602,65.083 127.556,65.151 127.516,65.223 127.481,65.298 127.453,65.376 127.431,65.455 127.414,65.536 127.405,65.618 127.401,65.700 127.405,65.782 127.414,65.864 127.431,65.945 127.453,66.024 127.481,66.102 127.516,66.177 127.556,66.249 127.602,66.317 127.653,66.382 127.709,66.442 127.770,66.498 127.834,66.549 127.903,66.595 127.975,66.636 128.050,66.670 128.127,66.699 128.206,66.721 128.287,66.737 128.369,66.747 128.450,66.750 128.533,66.747 128.616,66.737 128.697,66.721 128.776,66.699 128.853,66.670 128.927,66.636 129.000,66.595 129.069,66.549 129.133,66.498 129.194,66.442 129.250,66.382 129.301,66.317 129.347,66.249 129.387,66.177 129.421,66.102 129.450,66.024 129.472,65.945 129.489,65.864 129.498,65.782 129.501,65.700 129.498,65.618 129.489,65.536 129.472,65.455 129.450,65.376 129.421,65.298 129.387,65.223 129.347,65.151 129.301,65.083 129.250,65.018 129.194,64.958 129.133,64.902 129.069,64.851 129.000,64.805 128.927,64.764 128.853,64.730 128.776,64.701 128.697,64.679 128.616,64.663 128.533,64.653 128.450,64.650" style="fill:none;stroke-width:0.010000mm;stroke:blue"/>
<polygon points="7.774,14.147 7.502,14.286 7.287,14.501 7.148,14.773 7.100,15.074 7.148,15.376 7.287,15.648 7.502,15.863 7.774,16.002 8.075,16.050 8.377,16.002 8.649,15.863 8.864,15.648 9.003,15.376 9.050,15.074 9.003,14.773 8.864,14.501 8.649,14.286 8.377,14.147 8.075,14.100" style="fill:none;stroke-width:0.010000mm;stroke:blue"/>
<polygon points="66.753,13.953 66.671,13.962 66.590,13.979 66.511,14.001 66.433,14.029 66.358,14.064 66.286,14.104 66.218,14.150 66.153,14.201 66.093,14.257 66.037,14.318 65.986,14.382 65.940,14.451 65.899,14.523 65.865,14.598 65.836,14.675 65.814,14.754 65.798,14.835 65.788,14.917 65.785,15.000 65.788,15.082 65.798,15.164 65.814,15.245 65.836,15.324 65.865,15.401 65.899,15.476 65.940,15.548 65.986,15.617 66.037,15.681 66.093,15.742 66.153,15.798 66.218,15.849 66.286,15.895 66.358,15.935 66.433,15.970 66.511,15.998 66.590,16.020 66.671,16.037 66.753,16.046 66.835,16.050 66.917,16.046 66.999,16.037 67.080,16.020 67.159,15.998 67.237,15.970 67.312,15.935 67.384,15.895 67.452,15.849 67.517,15.798 67.577,15.742 67.633,15.681 67.684,15.617 67.730,15.548 67.771,15.476 67.805,15.401 67.834,15.324 67.856,15.245 67.872,15.164 67.882,15.082 67.885,15.000 67.882,14.917 67.872,14.835 67.856,14.754 67.834,14.675 67.805,14.598 67.771,14.523 67.730,14.451 67.684,14.382 67.633,14.318 67.577,14.257 67.517,14.201 67.452,14.150 67.384,14.104 67.312,14.064 67.237,14.029 67.159,14.001 67.080,13.979 66.999,13.962 66.917,13.953 66.835,13.950" style="fill:none;stroke-width:0.010000mm;stroke:blue"/>
<polygon points="92.753,13.953 92.671,13.962 92.590,13.979 92.511,14.001 92.433,14.029 92.358,14.064 92.286,14.104 92.218,14.150 92.153,14.201 92.093,14.257 92.037,14.318 91.986,14.382 91.940,14.451 91.899,14.523 91.865,14.598 91.836,14.675 91.814,14.754 91.798,14.835 91.788,14.917 91.785,15.000 91.788,15.082 91.798,15.164 91.814,15.245 91.836,15.324 91.865,15.401 91.899,15.476 91.940,15.548 91.986,15.617 92.037,15.681 92.093,15.742 92.153,15.798 92.218,15.849 92.286,15.895 92.358,15.935 92.433,15.970 92.511,15.998 92.590,16.020 92.671,16.037 92.753,16.046 92.835,16.050 92.917,16.046 92.999,16.037 93.080,16.020 93.159,15.998 93.237,15.970 93.312,15.935 93.384,15.895 93.452,15.849 93.517,15.798 93.577,15.742 93.633,15.681 93.684,15.617 93.730,15.548 93.771,15.476 93.805,15.401 93.834,15.324 93.856,15.245 93.872,15.164 93.882,15.082 93.885,15.000 93.882,14.917 93.872,14.835 93.856,14.754 93.834,14.675 93.805,14.598 93.771,14.523 93.730,14.451 93.684,14.382 93.633,14.318 93.577,14.257 93.517,14.201 93.452,14.150 93.384,14.104 93.312,14.064 93.237,14.029 93.159,14.001 93.080,13.979 92.999,13.962 92.917,13.953 92.835,13.950" style="fill:none;stroke-width:0.010000mm;stroke:blue"/>
<polygon points="128.075,14.147 127.803,14.286 127.588,14.501 127.449,14.773 127.401,15.074 127.449,15.376 127.588,15.648 127.803,15.863 128.075,16.002 128.376,16.049 128.677,16.002 128.950,15.863 129.164,15.648 129.304,15.376 129.351,15.074 129.304,14.773 129.164,14.501 128.950,14.286 128.677,14.147 128.376,14.100" style="fill:none;stroke-width:0.010000mm;stroke:blue"/>
</svg>
