<?xml version="1.0"?>
<!-- Generated by SVGo -->
<svg width="161.570mm" height="124.401mm"
     viewBox="0.000 0.000 161.570 124.401"
     xmlns="http://www.w3.org/2000/svg" 
     xmlns:xlink="http://www.w3.org/1999/xlink">
<polygon points="34.359,11.999 34.359,18.149 23.709,18.149 23.709,113.251 137.860,113.251 137.860,18.149 127.209,18.149 127.209,12.000 141.009,12.000 141.246,12.009 141.479,12.036 141.711,12.082 141.937,12.146 142.158,12.228 142.372,12.326 142.578,12.442 142.774,12.572 142.959,12.718 143.132,12.878 143.292,13.051 143.437,13.236 143.568,13.432 143.684,13.638 143.782,13.851 143.864,14.072 143.928,14.299 143.974,14.530 144.001,14.764 144.011,15.000 144.011,23.115 144.010,23.140 144.030,23.633 144.088,24.122 144.184,24.606 144.318,25.081 144.489,25.543 144.695,25.991 144.936,26.421 145.210,26.831 145.515,27.219 145.850,27.581 146.212,27.915 146.599,28.221 147.009,28.495 147.439,28.736 147.887,28.942 148.350,29.113 148.824,29.246 149.308,29.343 149.798,29.401 150.150,29.415 150.150,29.425 150.290,29.420 150.783,29.439 151.273,29.497 151.757,29.594 152.231,29.727 152.694,29.898 153.142,30.104 153.572,30.345 153.982,30.619 154.369,30.925 154.731,31.259 155.066,31.621 155.371,32.009 155.645,32.419 155.886,32.849 156.092,33.297 156.263,33.759 156.397,34.234 156.493,34.718 156.551,35.207 156.570,35.700 156.551,36.193 156.493,36.682 156.397,37.166 156.263,37.641 156.092,38.103 155.886,38.551 155.645,38.981 155.371,39.391 155.066,39.779 154.731,40.141 154.369,40.475 153.982,40.781 153.572,41.055 153.142,41.296 152.694,41.502 152.231,41.673 151.757,41.806 151.273,41.903 150.783,41.961 150.290,41.980 150.150,41.975 150.150,41.985 149.798,41.999 149.308,42.057 148.824,42.154 148.350,42.287 147.887,42.458 147.439,42.664 147.009,42.905 146.599,43.179 146.212,43.485 145.850,43.819 145.515,44.181 145.210,44.569 144.936,44.979 144.695,45.409 144.489,45.857 144.318,46.319 144.184,46.794 144.088,47.278 144.030,47.767 144.010,48.260 144.011,48.285 144.010,83.140 144.030,83.633 144.088,84.122 144.184,84.606 144.318,85.081 144.489,85.543 144.695,85.991 144.936,86.421 145.210,86.831 145.515,87.219 145.850,87.581 146.212,87.915 146.599,88.221 147.009,88.495 147.439,88.736 147.887,88.942 148.350,89.113 148.824,89.246 149.308,89.343 149.798,89.401 150.150,89.415 150.150,89.425 150.290,89.420 150.783,89.439 151.273,89.497 151.757,89.594 152.231,89.727 152.694,89.898 153.142,90.104 153.572,90.345 153.982,90.619 154.369,90.925 154.731,91.259 155.066,91.621 155.371,92.009 155.645,92.419 155.886,92.849 156.092,93.297 156.263,93.759 156.397,94.234 156.493,94.718 156.551,95.207 156.570,95.700 156.551,96.193 156.493,96.682 156.397,97.166 156.263,97.641 156.092,98.103 155.886,98.551 155.645,98.981 155.371,99.391 155.066,99.779 154.731,100.141 154.369,100.475 153.982,100.781 153.572,101.055 153.142,101.296 152.694,101.502 152.231,101.673 151.757,101.806 151.273,101.903 150.783,101.961 150.290,101.980 150.150,101.975 150.150,101.985 149.798,101.999 149.308,102.057 148.824,102.154 148.350,102.287 147.887,102.458 147.439,102.664 147.009,102.905 146.599,103.179 146.212,103.485 145.850,103.819 145.515,104.181 145.210,104.569 144.936,104.979 144.695,105.409 144.489,105.857 144.318,106.319 144.184,106.794 144.088,107.278 144.030,107.767 144.010,108.260 144.010,116.401 144.001,116.636 143.974,116.870 143.928,117.101 143.864,117.328 143.782,117.549 143.684,117.762 143.568,117.968 143.437,118.164 143.292,118.349 143.132,118.522 142.959,118.682 142.774,118.828 142.578,118.958 142.372,119.074 142.158,119.172 141.937,119.254 141.711,119.318 141.479,119.364 141.246,119.391 141.009,119.401 20.560,119.401 20.324,119.391 20.090,119.364 19.859,119.318 19.632,119.254 19.411,119.172 19.198,119.074 18.992,118.958 18.796,118.828 18.611,118.682 18.438,118.522 18.278,118.349 18.132,118.164 18.002,117.968 17.886,117.762 17.788,117.549 17.706,117.328 17.642,117.101 17.596,116.870 17.569,116.636 17.559,116.400 17.559,78.285 17.560,78.260 17.540,77.767 17.482,77.278 17.386,76.794 17.252,76.319 17.081,75.857 16.875,75.409 16.634,74.979 16.360,74.569 16.055,74.181 15.720,73.819 15.358,73.485 14.971,73.179 14.561,72.905 14.131,72.664 13.683,72.458 13.220,72.287 12.746,72.154 12.263,72.057 11.773,71.998 11.420,71.985 11.420,71.974 11.280,71.980 10.788,71.961 10.298,71.903 9.814,71.806 9.340,71.673 8.877,71.501 8.429,71.296 7.999,71.055 7.589,70.781 7.202,70.475 6.840,70.141 6.505,69.779 6.200,69.391 5.926,68.981 5.685,68.551 5.479,68.103 5.308,67.641 5.174,67.166 5.078,66.682 5.020,66.193 5.000,65.700 5.020,65.207 5.078,64.718 5.174,64.234 5.308,63.759 5.479,63.297 5.685,62.849 5.926,62.419 6.200,62.009 6.505,61.621 6.840,61.259 7.202,60.925 7.589,60.619 7.999,60.345 8.429,60.104 8.877,59.898 9.340,59.727 9.814,59.594 10.298,59.497 10.788,59.439 11.280,59.420 11.420,59.425 11.420,59.415 11.773,59.401 12.263,59.343 12.746,59.246 13.220,59.113 13.683,58.942 14.131,58.736 14.561,58.495 14.971,58.221 15.358,57.915 15.720,57.581 16.055,57.219 16.360,56.831 16.634,56.421 16.875,55.991 17.081,55.543 17.252,55.081 17.386,54.606 17.482,54.122 17.540,53.633 17.560,53.140 17.560,15.000 17.569,14.764 17.596,14.530 17.642,14.299 17.706,14.072 17.788,13.851 17.886,13.638 18.002,13.432 18.132,13.236 18.278,13.051 18.438,12.878 18.611,12.718 18.796,12.572 18.992,12.442 19.198,12.326 19.411,12.228 19.632,12.146 19.859,12.082 20.090,12.036 20.324,12.009 20.560,11.999" style="fill:none;stroke-width:0.010000mm;stroke:blue"/>
<polygon points="80.648,114.656 80.511,114.672 80.376,114.699 80.244,114.736 80.115,114.784 79.991,114.841 79.871,114.908 79.756,114.985 79.648,115.070 79.548,115.163 79.454,115.264 79.369,115.372 79.293,115.486 79.226,115.606 79.168,115.731 79.121,115.860 79.083,115.992 79.057,116.127 79.040,116.263 79.035,116.401 79.040,116.538 79.057,116.674 79.083,116.809 79.121,116.941 79.168,117.070 79.226,117.195 79.293,117.315 79.369,117.429 79.454,117.537 79.548,117.638 79.648,117.731 79.756,117.816 79.871,117.893 79.991,117.960 80.115,118.017 80.244,118.065 80.376,118.102 80.511,118.129 80.648,118.145 80.785,118.151 80.922,118.145 81.059,118.129 81.194,118.102 81.326,118.065 81.455,118.017 81.579,117.960 81.699,117.893 81.814,117.816 81.922,117.731 82.022,117.638 82.116,117.537 82.201,117.429 82.277,117.315 82.344,117.195 82.402,117.070 82.449,116.941 82.487,116.809 82.513,116.674 82.530,116.538 82.535,116.401 82.530,116.263 82.513,116.127 82.487,115.992 82.449,115.860 82.402,115.731 82.344,115.606 82.277,115.486 82.201,115.372 82.116,115.264 82.022,115.163 81.922,115.070 81.814,114.985 81.699,114.908 81.579,114.841 81.455,114.784 81.326,114.736 81.194,114.699 81.059,114.672 80.922,114.656 80.785,114.651" style="fill:none;stroke-width:0.010000mm;stroke:blue"/>
<polygon points="20.422,114.656 20.286,114.672 20.151,114.699 20.019,114.736 19.890,114.784 19.765,114.841 19.645,114.908 19.531,114.985 19.423,115.070 19.322,115.163 19.229,115.264 19.144,115.372 19.067,115.486 19.000,115.606 18.943,115.731 18.895,115.860 18.858,115.992 18.831,116.127 18.815,116.263 18.809,116.401 18.815,116.538 18.831,116.674 18.858,116.809 18.895,116.941 18.943,117.070 19.000,117.195 19.067,117.315 19.144,117.429 19.229,117.537 19.322,117.638 19.423,117.731 19.531,117.816 19.645,117.893 19.765,117.960 19.890,118.017 20.019,118.065 20.151,118.102 20.286,118.129 20.422,118.145 20.560,118.151 20.697,118.145 20.833,118.129 20.968,118.102 21.100,118.065 21.229,118.017 21.354,117.960 21.474,117.893 21.588,117.816 21.696,117.731 21.797,117.638 21.890,117.537 21.975,117.429 22.052,117.315 22.119,117.195 22.176,117.070 22.224,116.941 22.261,116.809 22.288,116.674 22.304,116.538 22.310,116.401 22.304,116.263 22.288,116.127 22.261,115.992 22.224,115.860 22.176,115.731 22.119,115.606 22.052,115.486 21.975,115.372 21.890,115.264 21.797,115.163 21.696,115.070 21.588,114.985 21.474,114.908 21.354,114.841 21.229,114.784 21.100,114.736 20.968,114.699 20.833,114.672 20.697,114.656 20.560,114.651" style="fill:none;stroke-width:0.010000mm;stroke:blue"/>
<polygon points="140.872,114.656 140.736,114.672 140.602,114.699 140.470,114.736 140.341,114.784 140.216,114.841 140.096,114.908 139.982,114.985 139.874,115.070 139.773,115.163 139.680,115.264 139.595,115.372 139.518,115.486 139.451,115.606 139.394,115.731 139.346,115.860 139.309,115.992 139.282,116.127 139.266,116.263 139.260,116.401 139.266,116.538 139.282,116.674 139.309,116.809 139.346,116.941 139.394,117.070 139.451,117.195 139.518,117.315 139.595,117.429 139.680,117.537 139.773,117.638 139.874,117.731 139.982,117.816 140.096,117.893 140.216,117.960 140.341,118.017 140.470,118.065 140.602,118.102 140.736,118.129 140.872,118.145 141.009,118.151 141.148,118.145 141.283,118.129 141.419,118.102 141.551,118.065 141.680,118.017 141.805,117.960 141.925,117.893 142.039,117.816 142.146,117.731 142.247,117.638 142.341,117.537 142.426,117.429 142.503,117.315 142.569,117.195 142.627,117.070 142.675,116.941 142.711,116.809 142.739,116.674 142.755,116.538 142.761,116.401 142.755,116.263 142.739,116.127 142.711,115.992 142.675,115.860 142.627,115.731 142.569,115.606 142.503,115.486 142.426,115.372 142.341,115.264 142.247,115.163 142.146,115.070 142.039,114.985 141.925,114.908 141.805,114.841 141.680,114.784 141.551,114.736 141.419,114.699 141.283,114.672 141.148,114.656 141.009,114.651" style="fill:none;stroke-width:0.010000mm;stroke:blue"/>
<polygon points="150.091,93.168 149.893,93.191 149.698,93.230 149.506,93.284 149.318,93.353 149.137,93.437 148.963,93.534 148.798,93.645 148.641,93.769 148.494,93.904 148.359,94.050 148.236,94.207 148.125,94.373 148.027,94.547 147.944,94.728 147.875,94.915 147.821,95.107 147.782,95.303 147.758,95.501 147.750,95.700 147.758,95.899 147.782,96.097 147.821,96.293 147.875,96.485 147.944,96.672 148.027,96.853 148.125,97.027 148.236,97.193 148.359,97.350 148.494,97.496 148.641,97.631 148.798,97.755 148.963,97.866 149.137,97.963 149.318,98.047 149.506,98.116 149.698,98.170 149.893,98.209 150.091,98.232 150.290,98.240 150.490,98.232 150.688,98.209 150.883,98.170 151.075,98.116 151.263,98.047 151.444,97.963 151.618,97.866 151.783,97.755 151.940,97.631 152.087,97.496 152.222,97.350 152.345,97.193 152.456,97.027 152.554,96.853 152.637,96.672 152.706,96.485 152.760,96.293 152.799,96.097 152.823,95.899 152.831,95.700 152.823,95.501 152.799,95.303 152.760,95.107 152.706,94.915 152.637,94.728 152.554,94.547 152.456,94.373 152.345,94.207 152.222,94.050 152.087,93.904 151.940,93.769 151.783,93.645 151.618,93.534 151.444,93.437 151.263,93.353 151.075,93.284 150.883,93.230 150.688,93.191 150.490,93.168 150.290,93.160" style="fill:none;stroke-width:0.010000mm;stroke:blue"/>
<polygon points="11.081,63.168 10.883,63.191 10.688,63.230 10.496,63.284 10.308,63.353 10.127,63.437 9.953,63.534 9.788,63.645 9.631,63.769 9.484,63.904 9.349,64.050 9.226,64.207 9.115,64.373 9.017,64.547 8.934,64.728 8.865,64.915 8.811,65.107 8.772,65.303 8.748,65.501 8.740,65.700 8.748,65.899 8.772,66.097 8.811,66.293 8.865,66.485 8.934,66.672 9.017,66.853 9.115,67.027 9.226,67.193 9.349,67.350 9.484,67.496 9.631,67.631 9.788,67.755 9.953,67.866 10.127,67.963 10.308,68.047 10.496,68.116 10.688,68.170 10.883,68.209 11.081,68.232 11.280,68.240 11.480,68.232 11.678,68.209 11.873,68.170 12.065,68.116 12.253,68.047 12.434,67.963 12.607,67.866 12.772,67.755 12.929,67.631 13.076,67.496 13.211,67.350 13.334,67.193 13.445,67.027 13.543,66.853 13.626,66.672 13.695,66.485 13.749,66.293 13.788,66.097 13.812,65.899 13.820,65.700 13.812,65.501 13.788,65.303 13.749,65.107 13.695,64.915 13.626,64.728 13.543,64.547 13.445,64.373 13.334,64.207 13.211,64.050 13.076,63.904 12.929,63.769 12.772,63.645 12.607,63.534 12.434,63.437 12.253,63.353 12.065,63.284 11.873,63.230 11.678,63.191 11.480,63.168 11.280,63.160" style="fill:none;stroke-width:0.010000mm;stroke:blue"/>
<polygon points="20.422,63.955 20.286,63.972 20.151,63.998 20.019,64.036 19.890,64.083 19.765,64.141 19.645,64.208 19.531,64.284 19.423,64.369 19.322,64.463 19.229,64.563 19.144,64.671 19.067,64.786 19.000,64.906 18.943,65.030 18.895,65.159 18.858,65.291 18.831,65.426 18.815,65.563 18.809,65.700 18.815,65.837 18.831,65.974 18.858,66.109 18.895,66.241 18.943,66.370 19.000,66.494 19.067,66.614 19.144,66.729 19.229,66.837 19.322,66.937 19.423,67.031 19.531,67.116 19.645,67.192 19.765,67.259 19.890,67.317 20.019,67.364 20.151,67.402 20.286,67.428 20.422,67.445 20.560,67.450 20.697,67.445 20.833,67.428 20.968,67.402 21.100,67.364 21.229,67.317 21.354,67.259 21.474,67.192 21.588,67.116 21.696,67.031 21.797,66.937 21.890,66.837 21.975,66.729 22.052,66.614 22.119,66.494 22.176,66.370 22.224,66.241 22.261,66.109 22.288,65.974 22.304,65.837 22.310,65.700 22.304,65.563 22.288,65.426 22.261,65.291 22.224,65.159 22.176,65.030 22.119,64.906 22.052,64.786 21.975,64.671 21.890,64.563 21.797,64.463 21.696,64.369 21.588,64.284 21.474,64.208 21.354,64.141 21.229,64.083 21.100,64.036 20.968,63.998 20.833,63.972 20.697,63.955 20.560,63.950" style="fill:none;stroke-width:0.010000mm;stroke:blue"/>
<polygon points="140.872,63.955 140.736,63.972 140.602,63.998 140.470,64.036 140.341,64.083 140.216,64.141 140.096,64.208 139.982,64.284 139.874,64.369 139.773,64.463 139.680,64.563 139.595,64.671 139.518,64.786 139.451,64.906 139.394,65.030 139.346,65.159 139.309,65.291 139.282,65.426 139.266,65.563 139.260,65.700 139.266,65.837 139.282,65.974 139.309,66.109 139.346,66.241 139.394,66.370 139.451,66.494 139.518,66.614 139.595,66.729 139.680,66.837 139.773,66.937 139.874,67.031 139.982,67.116 140.096,67.192 140.216,67.259 140.341,67.317 140.470,67.364 140.602,67.402 140.736,67.428 140.872,67.445 141.009,67.450 141.148,67.445 141.283,67.428 141.419,67.402 141.551,67.364 141.680,67.317 141.805,67.259 141.925,67.192 142.039,67.116 142.146,67.031 142.247,66.937 142.341,66.837 142.426,66.729 142.503,66.614 142.569,66.494 142.627,66.370 142.675,66.241 142.711,66.109 142.739,65.974 142.755,65.837 142.761,65.700 142.755,65.563 142.739,65.426 142.711,65.291 142.675,65.159 142.627,65.030 142.569,64.906 142.503,64.786 142.426,64.671 142.341,64.563 142.247,64.463 142.146,64.369 142.039,64.284 141.925,64.208 141.805,64.141 141.680,64.083 141.551,64.036 141.419,63.998 141.283,63.972 141.148,63.955 141.009,63.950" style="fill:none;stroke-width:0.010000mm;stroke:blue"/>
<polygon points="150.091,33.168 149.893,33.191 149.698,33.230 149.506,33.284 149.318,33.353 149.137,33.437 148.963,33.534 148.798,33.645 148.641,33.769 148.494,33.904 148.359,34.050 148.236,34.207 148.125,34.373 148.027,34.547 147.944,34.728 147.875,34.915 147.821,35.107 147.782,35.303 147.758,35.501 147.750,35.700 147.758,35.899 147.782,36.097 147.821,36.293 147.875,36.485 147.944,36.672 148.027,36.853 148.125,37.027 148.236,37.193 148.359,37.350 148.494,37.496 148.641,37.631 148.798,37.755 148.963,37.866 149.137,37.963 149.318,38.047 149.506,38.116 149.698,38.170 149.893,38.209 150.091,38.232 150.290,38.240 150.490,38.232 150.688,38.209 150.883,38.170 151.075,38.116 151.263,38.047 151.444,37.963 151.618,37.866 151.783,37.755 151.940,37.631 152.087,37.496 152.222,37.350 152.345,37.193 152.456,37.027 152.554,36.853 152.637,36.672 152.706,36.485 152.760,36.293 152.799,36.097 152.823,35.899 152.831,35.700 152.823,35.501 152.799,35.303 152.760,35.107 152.706,34.915 152.637,34.728 152.554,34.547 152.456,34.373 152.345,34.207 152.222,34.050 152.087,33.904 151.940,33.769 151.783,33.645 151.618,33.534 151.444,33.437 151.263,33.353 151.075,33.284 150.883,33.230 150.688,33.191 150.490,33.168 150.290,33.160" style="fill:none;stroke-width:0.010000mm;stroke:blue"/>
<polygon points="20.422,13.255 20.286,13.271 20.151,13.298 20.019,13.335 19.890,13.383 19.765,13.440 19.645,13.507 19.531,13.584 19.423,13.669 19.322,13.762 19.229,13.863 19.144,13.971 19.067,14.085 19.000,14.205 18.943,14.330 18.895,14.459 18.858,14.591 18.831,14.726 18.815,14.862 18.809,15.000 18.815,15.137 18.831,15.273 18.858,15.408 18.895,15.540 18.943,15.669 19.000,15.794 19.067,15.914 19.144,16.028 19.229,16.136 19.322,16.237 19.423,16.330 19.531,16.415 19.645,16.492 19.765,16.559 19.890,16.616 20.019,16.664 20.151,16.701 20.286,16.728 20.422,16.744 20.560,16.750 20.697,16.744 20.833,16.728 20.968,16.701 21.100,16.664 21.229,16.616 21.354,16.559 21.474,16.492 21.588,16.415 21.696,16.330 21.797,16.237 21.890,16.136 21.975,16.028 22.052,15.914 22.119,15.794 22.176,15.669 22.224,15.540 22.261,15.408 22.288,15.273 22.304,15.137 22.310,15.000 22.304,14.862 22.288,14.726 22.261,14.591 22.224,14.459 22.176,14.330 22.119,14.205 22.052,14.085 21.975,13.971 21.890,13.863 21.797,13.762 21.696,13.669 21.588,13.584 21.474,13.507 21.354,13.440 21.229,13.383 21.100,13.335 20.968,13.298 20.833,13.271 20.697,13.255 20.560,13.250" style="fill:none;stroke-width:0.010000mm;stroke:blue"/>
<polygon points="140.872,13.255 140.736,13.271 140.602,13.298 140.470,13.335 140.341,13.383 140.216,13.440 140.096,13.507 139.982,13.584 139.874,13.669 139.773,13.762 139.680,13.863 139.595,13.971 139.518,14.085 139.451,14.205 139.394,14.330 139.346,14.459 139.309,14.591 139.282,14.726 139.266,14.862 139.260,15.000 139.266,15.137 139.282,15.273 139.309,15.408 139.346,15.540 139.394,15.669 139.451,15.794 139.518,15.914 139.595,16.028 139.680,16.136 139.773,16.237 139.874,16.330 139.982,16.415 140.096,16.492 140.216,16.559 140.341,16.616 140.470,16.664 140.602,16.701 140.736,16.728 140.872,16.744 141.009,16.750 141.148,16.744 141.283,16.728 141.419,16.701 141.551,16.664 141.680,16.616 141.805,16.559 141.925,16.492 142.039,16.415 142.146,16.330 142.247,16.237 142.341,16.136 142.426,16.028 142.503,15.914 142.569,15.794 142.627,15.669 142.675,15.540 142.711,15.408 142.739,15.273 142.755,15.137 142.761,15.000 142.755,14.862 142.739,14.726 142.711,14.591 142.675,14.459 142.627,14.330 142.569,14.205 142.503,14.085 142.426,13.971 142.341,13.863 142.247,13.762 142.146,13.669 142.039,13.584 141.925,13.507 141.805,13.440 141.680,13.383 141.551,13.335 141.419,13.298 141.283,13.271 141.148,13.255 141.009,13.250" style="fill:none;stroke-width:0.010000mm;stroke:blue"/>
<polygon points="108.472,5.004 108.550,5.013 108.627,5.028 108.703,5.049 108.777,5.077 108.848,5.109 108.916,5.148 108.982,5.191 109.043,5.240 109.101,5.293 109.154,5.351 109.203,5.413 109.247,5.478 109.285,5.547 109.318,5.618 109.345,5.691 109.366,5.767 109.382,5.844 109.391,5.922 109.394,6.001 109.394,10.000 109.391,10.078 109.382,10.156 109.366,10.233 109.345,10.309 109.318,10.382 109.285,10.453 109.247,10.522 109.203,10.587 109.154,10.649 109.101,10.707 109.043,10.760 108.982,10.809 108.916,10.852 108.848,10.891 108.777,10.923 108.703,10.951 108.627,10.972 108.550,10.987 108.472,10.996 108.414,10.999 76.374,10.999 76.316,10.996 76.238,10.987 76.161,10.972 76.085,10.951 76.011,10.923 75.940,10.891 75.872,10.852 75.806,10.809 75.745,10.760 75.687,10.707 75.634,10.649 75.585,10.587 75.541,10.522 75.503,10.453 75.470,10.382 75.443,10.309 75.422,10.233 75.406,10.156 75.397,10.078 75.394,9.999 75.394,6.000 75.397,5.922 75.406,5.844 75.422,5.767 75.443,5.691 75.470,5.618 75.503,5.547 75.541,5.478 75.585,5.413 75.634,5.351 75.687,5.293 75.745,5.240 75.806,5.191 75.872,5.148 75.940,5.109 76.011,5.077 76.085,5.049 76.161,5.028 76.238,5.013 76.316,5.004 76.394,5.000 108.394,5.000" style="fill:none;stroke-width:0.010000mm;stroke:blue"/>
<polygon points="79.257,6.256 79.120,6.272 78.985,6.299 78.853,6.336 78.724,6.384 78.600,6.441 78.480,6.508 78.365,6.585 78.257,6.670 78.157,6.763 78.063,6.864 77.978,6.972 77.902,7.085 77.835,7.205 77.777,7.330 77.730,7.459 77.692,7.591 77.665,7.726 77.649,7.862 77.644,8.000 77.649,8.137 77.665,8.273 77.692,8.408 77.730,8.540 77.777,8.669 77.835,8.794 77.902,8.914 77.978,9.028 78.063,9.136 78.157,9.237 78.257,9.330 78.365,9.415 78.480,9.492 78.600,9.559 78.724,9.616 78.853,9.664 78.985,9.701 79.120,9.728 79.257,9.744 79.394,9.750 79.531,9.744 79.668,9.728 79.803,9.701 79.935,9.664 80.064,9.616 80.188,9.559 80.308,9.492 80.423,9.415 80.531,9.330 80.631,9.237 80.725,9.136 80.810,9.028 80.886,8.914 80.953,8.794 81.011,8.669 81.058,8.540 81.096,8.408 81.122,8.273 81.139,8.137 81.144,8.000 81.139,7.862 81.122,7.726 81.096,7.591 81.058,7.459 81.011,7.330 80.953,7.205 80.886,7.085 80.810,6.972 80.725,6.864 80.631,6.763 80.531,6.670 80.423,6.585 80.308,6.508 80.188,6.441 80.064,6.384 79.935,6.336 79.803,6.299 79.668,6.272 79.531,6.256 79.394,6.250" style="fill:none;stroke-width:0.010000mm;stroke:blue"/>
<polygon points="105.257,6.256 105.120,6.272 104.985,6.299 104.853,6.336 104.724,6.384 104.600,6.441 104.480,6.508 104.365,6.585 104.257,6.670 104.157,6.763 104.063,6.864 103.978,6.972 103.902,7.085 103.835,7.205 103.777,7.330 103.730,7.459 103.692,7.591 103.666,7.726 103.649,7.862 103.644,8.000 103.649,8.137 103.666,8.273 103.692,8.408 103.730,8.540 103.777,8.669 103.835,8.794 103.902,8.914 103.978,9.028 104.063,9.136 104.157,9.237 104.257,9.330 104.365,9.415 104.480,9.492 104.600,9.559 104.724,9.616 104.853,9.664 104.985,9.701 105.120,9.728 105.257,9.744 105.394,9.750 105.531,9.744 105.668,9.728 105.803,9.701 105.935,9.664 106.064,9.616 106.188,9.559 106.308,9.492 106.423,9.415 106.531,9.330 106.631,9.237 106.725,9.136 106.810,9.028 106.886,8.914 106.953,8.794 107.011,8.669 107.058,8.540 107.096,8.408 107.122,8.273 107.139,8.137 107.144,8.000 107.139,7.862 107.122,7.726 107.096,7.591 107.058,7.459 107.011,7.330 106.953,7.205 106.886,7.085 106.810,6.972 106.725,6.864 106.631,6.763 106.531,6.670 106.423,6.585 106.308,6.508 106.188,6.441 106.064,6.384 105.935,6.336 105.803,6.299 105.668,6.272 105.531,6.256 105.394,6.250" style="fill:none;stroke-width:0.010000mm;stroke:blue"/>
</svg>
