<?xml version="1.0"?>
<!-- Generated by SVGo -->
<svg width="136.452mm" height="124.401mm"
     viewBox="0.000 0.000 136.452 124.401"
     xmlns="http://www.w3.org/2000/svg" 
     xmlns:xlink="http://www.w3.org/1999/xlink">
<polygon points="21.800,11.999 21.800,18.149 11.150,18.149 11.150,113.251 125.301,113.251 125.301,18.149 114.650,18.149 114.650,12.000 128.450,12.000 128.687,12.009 128.920,12.036 129.152,12.082 129.378,12.146 129.599,12.228 129.813,12.326 130.019,12.442 130.215,12.572 130.400,12.718 130.573,12.878 130.733,13.051 130.878,13.236 131.009,13.432 131.125,13.638 131.223,13.851 131.305,14.072 131.369,14.299 131.415,14.530 131.442,14.764 131.452,15.000 131.451,116.401 131.442,116.636 131.415,116.870 131.369,117.101 131.305,117.328 131.223,117.549 131.125,117.762 131.009,117.968 130.878,118.164 130.733,118.349 130.573,118.522 130.400,118.682 130.215,118.828 130.019,118.958 129.813,119.074 129.599,119.172 129.378,119.254 129.152,119.318 128.920,119.364 128.687,119.391 128.450,119.401 8.001,119.401 7.765,119.391 7.531,119.364 7.300,119.318 7.073,119.254 6.852,119.172 6.639,119.074 6.433,118.958 6.237,118.828 6.052,118.682 5.879,118.522 5.719,118.349 5.573,118.164 5.443,117.968 5.327,117.762 5.229,117.549 5.147,117.328 5.083,117.101 5.037,116.870 5.010,116.636 5.000,116.400 5.001,15.000 5.010,14.764 5.037,14.530 5.083,14.299 5.147,14.072 5.229,13.851 5.327,13.638 5.443,13.432 5.573,13.236 5.719,13.051 5.879,12.878 6.052,12.718 6.237,12.572 6.433,12.442 6.639,12.326 6.852,12.228 7.073,12.146 7.300,12.082 7.531,12.036 7.765,12.009 8.001,11.999" style="fill:none;stroke-width:0.010000mm;stroke:blue"/>
<polygon points="68.089,114.656 67.952,114.672 67.817,114.699 67.685,114.736 67.556,114.784 67.432,114.841 67.312,114.908 67.197,114.985 67.089,115.070 66.989,115.163 66.895,115.264 66.810,115.372 66.734,115.486 66.667,115.606 66.609,115.731 66.562,115.860 66.524,115.992 66.498,116.127 66.481,116.263 66.476,116.401 66.481,116.538 66.498,116.674 66.524,116.809 66.562,116.941 66.609,117.070 66.667,117.195 66.734,117.315 66.810,117.429 66.895,117.537 66.989,117.638 67.089,117.731 67.197,117.816 67.312,117.893 67.432,117.960 67.556,118.017 67.685,118.065 67.817,118.102 67.952,118.129 68.089,118.145 68.226,118.151 68.363,118.145 68.500,118.129 68.635,118.102 68.767,118.065 68.896,118.017 69.020,117.960 69.140,117.893 69.255,117.816 69.363,117.731 69.463,117.638 69.557,117.537 69.642,117.429 69.718,117.315 69.785,117.195 69.843,117.070 69.890,116.941 69.928,116.809 69.954,116.674 69.971,116.538 69.976,116.401 69.971,116.263 69.954,116.127 69.928,115.992 69.890,115.860 69.843,115.731 69.785,115.606 69.718,115.486 69.642,115.372 69.557,115.264 69.463,115.163 69.363,115.070 69.255,114.985 69.140,114.908 69.020,114.841 68.896,114.784 68.767,114.736 68.635,114.699 68.500,114.672 68.363,114.656 68.226,114.651" style="fill:none;stroke-width:0.010000mm;stroke:blue"/>
<polygon points="7.863,114.656 7.727,114.672 7.592,114.699 7.460,114.736 7.331,114.784 7.206,114.841 7.086,114.908 6.972,114.985 6.864,115.070 6.763,115.163 6.670,115.264 6.585,115.372 6.508,115.486 6.441,115.606 6.384,115.731 6.336,115.860 6.299,115.992 6.272,116.127 6.256,116.263 6.250,116.401 6.256,116.538 6.272,116.674 6.299,116.809 6.336,116.941 6.384,117.070 6.441,117.195 6.508,117.315 6.585,117.429 6.670,117.537 6.763,117.638 6.864,117.731 6.972,117.816 7.086,117.893 7.206,117.960 7.331,118.017 7.460,118.065 7.592,118.102 7.727,118.129 7.863,118.145 8.001,118.151 8.138,118.145 8.274,118.129 8.409,118.102 8.541,118.065 8.670,118.017 8.795,117.960 8.915,117.893 9.029,117.816 9.137,117.731 9.238,117.638 9.331,117.537 9.416,117.429 9.493,117.315 9.560,117.195 9.617,117.070 9.665,116.941 9.702,116.809 9.729,116.674 9.745,116.538 9.751,116.401 9.745,116.263 9.729,116.127 9.702,115.992 9.665,115.860 9.617,115.731 9.560,115.606 9.493,115.486 9.416,115.372 9.331,115.264 9.238,115.163 9.137,115.070 9.029,114.985 8.915,114.908 8.795,114.841 8.670,114.784 8.541,114.736 8.409,114.699 8.274,114.672 8.138,114.656 8.001,114.651" style="fill:none;stroke-width:0.010000mm;stroke:blue"/>
<polygon points="128.313,114.656 128.177,114.672 128.043,114.699 127.911,114.736 127.782,114.784 127.657,114.841 127.537,114.908 127.423,114.985 127.315,115.070 127.214,115.163 127.121,115.264 127.036,115.372 126.959,115.486 126.892,115.606 126.835,115.731 126.787,115.860 126.750,115.992 126.723,116.127 126.707,116.263 126.701,116.401 126.707,116.538 126.723,116.674 126.750,116.809 126.787,116.941 126.835,117.070 126.892,117.195 126.959,117.315 127.036,117.429 127.121,117.537 127.214,117.638 127.315,117.731 127.423,117.816 127.537,117.893 127.657,117.960 127.782,118.017 127.911,118.065 128.043,118.102 128.177,118.129 128.313,118.145 128.450,118.151 128.589,118.145 128.724,118.129 128.860,118.102 128.992,118.065 129.121,118.017 129.246,117.960 129.366,117.893 129.480,117.816 129.587,117.731 129.688,117.638 129.782,117.537 129.867,117.429 129.944,117.315 130.010,117.195 130.068,117.070 130.116,116.941 130.152,116.809 130.180,116.674 130.196,116.538 130.202,116.401 130.196,116.263 130.180,116.127 130.152,115.992 130.116,115.860 130.068,115.731 130.010,115.606 129.944,115.486 129.867,115.372 129.782,115.264 129.688,115.163 129.587,115.070 129.480,114.985 129.366,114.908 129.246,114.841 129.121,114.784 128.992,114.736 128.860,114.699 128.724,114.672 128.589,114.656 128.450,114.651" style="fill:none;stroke-width:0.010000mm;stroke:blue"/>
<polygon points="7.863,63.955 7.727,63.972 7.592,63.998 7.460,64.036 7.331,64.083 7.206,64.141 7.086,64.208 6.972,64.284 6.864,64.369 6.763,64.463 6.670,64.563 6.585,64.671 6.508,64.786 6.441,64.906 6.384,65.030 6.336,65.159 6.299,65.291 6.272,65.426 6.256,65.563 6.250,65.700 6.256,65.837 6.272,65.974 6.299,66.109 6.336,66.241 6.384,66.370 6.441,66.494 6.508,66.614 6.585,66.729 6.670,66.837 6.763,66.937 6.864,67.031 6.972,67.116 7.086,67.192 7.206,67.259 7.331,67.317 7.460,67.364 7.592,67.402 7.727,67.428 7.863,67.445 8.001,67.450 8.138,67.445 8.274,67.428 8.409,67.402 8.541,67.364 8.670,67.317 8.795,67.259 8.915,67.192 9.029,67.116 9.137,67.031 9.238,66.937 9.331,66.837 9.416,66.729 9.493,66.614 9.560,66.494 9.617,66.370 9.665,66.241 9.702,66.109 9.729,65.974 9.745,65.837 9.751,65.700 9.745,65.563 9.729,65.426 9.702,65.291 9.665,65.159 9.617,65.030 9.560,64.906 9.493,64.786 9.416,64.671 9.331,64.563 9.238,64.463 9.137,64.369 9.029,64.284 8.915,64.208 8.795,64.141 8.670,64.083 8.541,64.036 8.409,63.998 8.274,63.972 8.138,63.955 8.001,63.950" style="fill:none;stroke-width:0.010000mm;stroke:blue"/>
<polygon points="128.313,63.955 128.177,63.972 128.043,63.998 127.911,64.036 127.782,64.083 127.657,64.141 127.537,64.208 127.423,64.284 127.315,64.369 127.214,64.463 127.121,64.563 127.036,64.671 126.959,64.786 126.892,64.906 126.835,65.030 126.787,65.159 126.750,65.291 126.723,65.426 126.707,65.563 126.701,65.700 126.707,65.837 126.723,65.974 126.750,66.109 126.787,66.241 126.835,66.370 126.892,66.494 126.959,66.614 127.036,66.729 127.121,66.837 127.214,66.937 127.315,67.031 127.423,67.116 127.537,67.192 127.657,67.259 127.782,67.317 127.911,67.364 128.043,67.402 128.177,67.428 128.313,67.445 128.450,67.450 128.589,67.445 128.724,67.428 128.860,67.402 128.992,67.364 129.121,67.317 129.246,67.259 129.366,67.192 129.480,67.116 129.587,67.031 129.688,66.937 129.782,66.837 129.867,66.729 129.944,66.614 130.010,66.494 130.068,66.370 130.116,66.241 130.152,66.109 130.180,65.974 130.196,65.837 130.202,65.700 130.196,65.563 130.180,65.426 130.152,65.291 130.116,65.159 130.068,65.030 130.010,64.906 129.944,64.786 129.867,64.671 129.782,64.563 129.688,64.463 129.587,64.369 129.480,64.284 129.366,64.208 129.246,64.141 129.121,64.083 128.992,64.036 128.860,63.998 128.724,63.972 128.589,63.955 128.450,63.950" style="fill:none;stroke-width:0.010000mm;stroke:blue"/>
<polygon points="7.863,13.255 7.727,13.271 7.592,13.298 7.460,13.335 7.331,13.383 7.206,13.440 7.086,13.507 6.972,13.584 6.864,13.669 6.763,13.762 6.670,13.863 6.585,13.971 6.508,14.085 6.441,14.205 6.384,14.330 6.336,14.459 6.299,14.591 6.272,14.726 6.256,14.862 6.250,15.000 6.256,15.137 6.272,15.273 6.299,15.408 6.336,15.540 6.384,15.669 6.441,15.794 6.508,15.914 6.585,16.028 6.670,16.136 6.763,16.237 6.864,16.330 6.972,16.415 7.086,16.492 7.206,16.559 7.331,16.616 7.460,16.664 7.592,16.701 7.727,16.728 7.863,16.744 8.001,16.750 8.138,16.744 8.274,16.728 8.409,16.701 8.541,16.664 8.670,16.616 8.795,16.559 8.915,16.492 9.029,16.415 9.137,16.330 9.238,16.237 9.331,16.136 9.416,16.028 9.493,15.914 9.560,15.794 9.617,15.669 9.665,15.540 9.702,15.408 9.729,15.273 9.745,15.137 9.751,15.000 9.745,14.862 9.729,14.726 9.702,14.591 9.665,14.459 9.617,14.330 9.560,14.205 9.493,14.085 9.416,13.971 9.331,13.863 9.238,13.762 9.137,13.669 9.029,13.584 8.915,13.507 8.795,13.440 8.670,13.383 8.541,13.335 8.409,13.298 8.274,13.271 8.138,13.255 8.001,13.250" style="fill:none;stroke-width:0.010000mm;stroke:blue"/>
<polygon points="128.313,13.255 128.177,13.271 128.043,13.298 127.911,13.335 127.782,13.383 127.657,13.440 127.537,13.507 127.423,13.584 127.315,13.669 127.214,13.762 127.121,13.863 127.036,13.971 126.959,14.085 126.892,14.205 126.835,14.330 126.787,14.459 126.750,14.591 126.723,14.726 126.707,14.862 126.701,15.000 126.707,15.137 126.723,15.273 126.750,15.408 126.787,15.540 126.835,15.669 126.892,15.794 126.959,15.914 127.036,16.028 127.121,16.136 127.214,16.237 127.315,16.330 127.423,16.415 127.537,16.492 127.657,16.559 127.782,16.616 127.911,16.664 128.043,16.701 128.177,16.728 128.313,16.744 128.450,16.750 128.589,16.744 128.724,16.728 128.860,16.701 128.992,16.664 129.121,16.616 129.246,16.559 129.366,16.492 129.480,16.415 129.587,16.330 129.688,16.237 129.782,16.136 129.867,16.028 129.944,15.914 130.010,15.794 130.068,15.669 130.116,15.540 130.152,15.408 130.180,15.273 130.196,15.137 130.202,15.000 130.196,14.862 130.180,14.726 130.152,14.591 130.116,14.459 130.068,14.330 130.010,14.205 129.944,14.085 129.867,13.971 129.782,13.863 129.688,13.762 129.587,13.669 129.480,13.584 129.366,13.507 129.246,13.440 129.121,13.383 128.992,13.335 128.860,13.298 128.724,13.271 128.589,13.255 128.450,13.250" style="fill:none;stroke-width:0.010000mm;stroke:blue"/>
<polygon points="95.913,5.004 95.991,5.013 96.068,5.028 96.144,5.049 96.218,5.077 96.289,5.109 96.357,5.148 96.423,5.191 96.484,5.240 96.542,5.293 96.595,5.351 96.644,5.413 96.688,5.478 96.726,5.547 96.759,5.618 96.786,5.691 96.807,5.767 96.823,5.844 96.832,5.922 96.835,6.001 96.835,10.000 96.832,10.078 96.823,10.156 96.807,10.233 96.786,10.309 96.759,10.382 96.726,10.453 96.688,10.522 96.644,10.587 96.595,10.649 96.542,10.707 96.484,10.760 96.423,10.809 96.357,10.852 96.289,10.891 96.218,10.923 96.144,10.951 96.068,10.972 95.991,10.987 95.913,10.996 95.855,10.999 63.815,10.999 63.757,10.996 63.679,10.987 63.602,10.972 63.526,10.951 63.452,10.923 63.381,10.891 63.313,10.852 63.247,10.809 63.186,10.760 63.128,10.707 63.075,10.649 63.026,10.587 62.982,10.522 62.944,10.453 62.911,10.382 62.884,10.309 62.863,10.233 62.847,10.156 62.838,10.078 62.835,9.999 62.835,6.000 62.838,5.922 62.847,5.844 62.863,5.767 62.884,5.691 62.911,5.618 62.944,5.547 62.982,5.478 63.026,5.413 63.075,5.351 63.128,5.293 63.186,5.240 63.247,5.191 63.313,5.148 63.381,5.109 63.452,5.077 63.526,5.049 63.602,5.028 63.679,5.013 63.757,5.004 63.835,5.000 95.835,5.000" style="fill:none;stroke-width:0.010000mm;stroke:blue"/>
<polygon points="66.698,6.256 66.561,6.272 66.426,6.299 66.294,6.336 66.165,6.384 66.041,6.441 65.921,6.508 65.806,6.585 65.698,6.670 65.598,6.763 65.504,6.864 65.419,6.972 65.343,7.085 65.276,7.205 65.218,7.330 65.171,7.459 65.133,7.591 65.106,7.726 65.090,7.862 65.085,8.000 65.090,8.137 65.106,8.273 65.133,8.408 65.171,8.540 65.218,8.669 65.276,8.794 65.343,8.914 65.419,9.028 65.504,9.136 65.598,9.237 65.698,9.330 65.806,9.415 65.921,9.492 66.041,9.559 66.165,9.616 66.294,9.664 66.426,9.701 66.561,9.728 66.698,9.744 66.835,9.750 66.972,9.744 67.109,9.728 67.244,9.701 67.376,9.664 67.505,9.616 67.629,9.559 67.749,9.492 67.864,9.415 67.972,9.330 68.072,9.237 68.166,9.136 68.251,9.028 68.327,8.914 68.394,8.794 68.452,8.669 68.499,8.540 68.537,8.408 68.563,8.273 68.580,8.137 68.585,8.000 68.580,7.862 68.563,7.726 68.537,7.591 68.499,7.459 68.452,7.330 68.394,7.205 68.327,7.085 68.251,6.972 68.166,6.864 68.072,6.763 67.972,6.670 67.864,6.585 67.749,6.508 67.629,6.441 67.505,6.384 67.376,6.336 67.244,6.299 67.109,6.272 66.972,6.256 66.835,6.250" style="fill:none;stroke-width:0.010000mm;stroke:blue"/>
<polygon points="92.698,6.256 92.561,6.272 92.426,6.299 92.294,6.336 92.165,6.384 92.041,6.441 91.921,6.508 91.806,6.585 91.698,6.670 91.598,6.763 91.504,6.864 91.419,6.972 91.343,7.085 91.276,7.205 91.218,7.330 91.171,7.459 91.133,7.591 91.107,7.726 91.090,7.862 91.085,8.000 91.090,8.137 91.107,8.273 91.133,8.408 91.171,8.540 91.218,8.669 91.276,8.794 91.343,8.914 91.419,9.028 91.504,9.136 91.598,9.237 91.698,9.330 91.806,9.415 91.921,9.492 92.041,9.559 92.165,9.616 92.294,9.664 92.426,9.701 92.561,9.728 92.698,9.744 92.835,9.750 92.972,9.744 93.109,9.728 93.244,9.701 93.376,9.664 93.505,9.616 93.629,9.559 93.749,9.492 93.864,9.415 93.972,9.330 94.072,9.237 94.166,9.136 94.251,9.028 94.327,8.914 94.394,8.794 94.452,8.669 94.499,8.540 94.537,8.408 94.563,8.273 94.580,8.137 94.585,8.000 94.580,7.862 94.563,7.726 94.537,7.591 94.499,7.459 94.452,7.330 94.394,7.205 94.327,7.085 94.251,6.972 94.166,6.864 94.072,6.763 93.972,6.670 93.864,6.585 93.749,6.508 93.629,6.441 93.505,6.384 93.376,6.336 93.244,6.299 93.109,6.272 92.972,6.256 92.835,6.250" style="fill:none;stroke-width:0.010000mm;stroke:blue"/>
</svg>
