<?xml version="1.0" encoding="utf-8"?>
<!-- Generator: Adobe Illustrator 19.0.0, SVG Export Plug-In . SVG Version: 6.00 Build 0)  -->
<svg version="1.1" id="Layer_1" xmlns="http://www.w3.org/2000/svg" xmlns:xlink="http://www.w3.org/1999/xlink" x="0px" y="0px"
	 width="386.8px" height="352.6px" viewBox="122 -105.9 386.8 352.6" enable-background="new 122 -105.9 386.8 352.6"
	 xml:space="preserve">
<polygon fill="none" stroke="#0000FF" stroke-width="2.834645e-02" points="486.1,-81.8 486.8,-81.8 487.4,-81.7 488.1,-81.6 
	488.7,-81.4 489.4,-81.1 490,-80.9 490.6,-80.5 491.1,-80.2 491.6,-79.8 492.1,-79.3 492.6,-78.8 493,-78.3 493.4,-77.7 
	493.7,-77.1 494,-76.5 494.2,-75.9 494.4,-75.3 494.5,-74.6 494.6,-74 494.6,-73.3 494.6,214.2 494.6,214.8 494.5,215.5 
	494.4,216.1 494.2,216.8 494,217.4 493.7,218 493.4,218.6 493,219.2 492.6,219.7 492.1,220.2 491.6,220.6 491.1,221 490.6,221.4 
	490,221.7 489.4,222 488.7,222.2 488.1,222.4 487.4,222.6 486.8,222.6 486.1,222.7 144.7,222.7 144,222.6 143.3,222.6 142.7,222.4 
	142,222.2 141.4,222 140.8,221.7 140.2,221.4 139.7,221 139.2,220.6 138.7,220.2 138.2,219.7 137.8,219.2 137.4,218.6 137.1,218 
	136.8,217.4 136.6,216.8 136.4,216.1 136.3,215.5 136.2,214.8 136.2,214.1 136.2,-73.3 136.2,-74 136.3,-74.6 136.4,-75.3 
	136.6,-75.9 136.8,-76.5 137.1,-77.1 137.4,-77.7 137.8,-78.3 138.2,-78.8 138.7,-79.3 139.2,-79.8 139.7,-80.2 140.2,-80.5 
	140.8,-80.9 141.4,-81.1 142,-81.4 142.7,-81.6 143.3,-81.7 144,-81.8 144.7,-81.8 "/>
<polygon fill="none" stroke="#0000FF" stroke-width="2.834645e-02" points="315.2,211.2 314.9,211.2 314.7,211.3 314.5,211.3 
	314.3,211.4 314,211.5 313.8,211.6 313.6,211.7 313.5,211.9 313.3,212 313.1,212.2 313,212.4 312.9,212.6 312.7,212.8 312.6,213 
	312.6,213.2 312.5,213.5 312.5,213.7 312.4,213.9 312.4,214.2 312.4,214.4 312.5,214.6 312.5,214.8 312.6,215.1 312.6,215.3 
	312.7,215.5 312.9,215.7 313,215.9 313.1,216.1 313.3,216.3 313.5,216.4 313.6,216.6 313.8,216.7 314,216.8 314.3,216.9 314.5,217 
	314.7,217 314.9,217.1 315.2,217.1 315.4,217.1 315.6,217.1 315.9,217.1 316.1,217 316.3,217 316.5,216.9 316.7,216.8 317,216.7 
	317.1,216.6 317.3,216.4 317.5,216.3 317.7,216.1 317.8,215.9 317.9,215.7 318,215.5 318.1,215.3 318.2,215.1 318.3,214.8 
	318.3,214.6 318.4,214.4 318.4,214.2 318.4,213.9 318.3,213.7 318.3,213.5 318.2,213.2 318.1,213 318,212.8 317.9,212.6 
	317.8,212.4 317.7,212.2 317.5,212 317.3,211.9 317.1,211.7 317,211.6 316.7,211.5 316.5,211.4 316.3,211.3 316.1,211.3 
	315.9,211.2 315.6,211.2 315.4,211.2 "/>
<polygon fill="none" stroke="#0000FF" stroke-width="2.834645e-02" points="485,211.3 484.3,211.7 483.7,212.3 483.3,213.1 
	483.1,213.9 483.3,214.8 483.7,215.6 484.3,216.2 485,216.6 485.9,216.7 486.8,216.6 487.5,216.2 488.1,215.6 488.5,214.8 
	488.7,213.9 488.5,213.1 488.1,212.3 487.5,211.7 486.8,211.3 485.9,211.2 "/>
<polygon fill="none" stroke="#0000FF" stroke-width="2.834645e-02" points="144,211.3 143.3,211.7 142.7,212.3 142.3,213.1 
	142.1,213.9 142.3,214.8 142.7,215.6 143.3,216.2 144,216.6 144.9,216.7 145.7,216.6 146.5,216.2 147.1,215.6 147.5,214.8 
	147.7,213.9 147.5,213.1 147.1,212.3 146.5,211.7 145.7,211.3 144.9,211.2 "/>
<polygon fill="none" stroke="#0000FF" stroke-width="2.834645e-02" points="268.8,158.8 268.8,160.5 266.5,160.5 266.5,196.4 
	268.8,196.4 268.8,198.1 308,198.1 308,196.4 310.3,196.4 310.3,160.5 308,160.5 308,158.8 "/>
<polygon fill="none" stroke="#0000FF" stroke-width="2.834645e-02" points="322.8,158.8 322.8,160.5 320.5,160.5 320.5,196.4 
	322.8,196.4 322.8,198.1 362,198.1 362,196.4 364.3,196.4 364.3,160.5 362,160.5 362,158.8 "/>
<polygon fill="none" stroke="#0000FF" stroke-width="2.834645e-02" points="160.8,104.8 160.8,106.5 158.5,106.5 158.5,142.4 
	160.8,142.4 160.8,144.1 200,144.1 200,142.4 202.3,142.4 202.3,106.5 200,106.5 200,104.8 "/>
<polygon fill="none" stroke="#0000FF" stroke-width="2.834645e-02" points="214.8,104.8 214.8,106.5 212.5,106.5 212.5,142.4 
	214.8,142.4 214.8,144.1 254,144.1 254,142.4 256.3,142.4 256.3,106.5 254,106.5 254,104.8 "/>
<polygon fill="none" stroke="#0000FF" stroke-width="2.834645e-02" points="268.8,104.8 268.8,106.5 266.5,106.5 266.5,142.4 
	268.8,142.4 268.8,144.1 308,144.1 308,142.4 310.3,142.4 310.3,106.5 308,106.5 308,104.8 "/>
<polygon fill="none" stroke="#0000FF" stroke-width="2.834645e-02" points="322.8,104.8 322.8,106.5 320.5,106.5 320.5,142.4 
	322.8,142.4 322.8,144.1 362,144.1 362,142.4 364.3,142.4 364.3,106.5 362,106.5 362,104.8 "/>
<polygon fill="none" stroke="#0000FF" stroke-width="2.834645e-02" points="376.8,104.8 376.8,106.5 374.5,106.5 374.5,142.4 
	376.8,142.4 376.8,144.1 416,144.1 416,142.4 418.3,142.4 418.3,106.5 416,106.5 416,104.8 "/>
<polygon fill="none" stroke="#0000FF" stroke-width="2.834645e-02" points="430.8,104.8 430.8,106.5 428.5,106.5 428.5,142.4 
	430.8,142.4 430.8,144.1 470,144.1 470,142.4 472.3,142.4 472.3,106.5 470,106.5 470,104.8 "/>
<polygon fill="none" stroke="#0000FF" stroke-width="2.834645e-02" points="160.8,50.8 160.8,52.5 158.5,52.5 158.5,88.4 
	160.8,88.4 160.8,90.1 200,90.1 200,88.4 202.3,88.4 202.3,52.5 200,52.5 200,50.8 "/>
<polygon fill="none" stroke="#0000FF" stroke-width="2.834645e-02" points="214.8,50.8 214.8,52.5 212.5,52.5 212.5,88.4 
	214.8,88.4 214.8,90.1 254,90.1 254,88.4 256.3,88.4 256.3,52.5 254,52.5 254,50.8 "/>
<polygon fill="none" stroke="#0000FF" stroke-width="2.834645e-02" points="268.8,50.8 268.8,52.5 266.5,52.5 266.5,88.4 
	268.8,88.4 268.8,90.1 308,90.1 308,88.4 310.3,88.4 310.3,52.5 308,52.5 308,50.8 "/>
<polygon fill="none" stroke="#0000FF" stroke-width="2.834645e-02" points="322.8,50.8 322.8,52.5 320.5,52.5 320.5,88.4 
	322.8,88.4 322.8,90.1 362,90.1 362,88.4 364.3,88.4 364.3,52.5 362,52.5 362,50.8 "/>
<polygon fill="none" stroke="#0000FF" stroke-width="2.834645e-02" points="376.8,50.8 376.8,52.5 374.5,52.5 374.5,88.4 
	376.8,88.4 376.8,90.1 416,90.1 416,88.4 418.3,88.4 418.3,52.5 416,52.5 416,50.8 "/>
<polygon fill="none" stroke="#0000FF" stroke-width="2.834645e-02" points="430.8,50.8 430.8,52.5 428.5,52.5 428.5,88.4 
	430.8,88.4 430.8,90.1 470,90.1 470,88.4 472.3,88.4 472.3,52.5 470,52.5 470,50.8 "/>
<polygon fill="none" stroke="#0000FF" stroke-width="2.834645e-02" points="144.4,67.5 144.2,67.5 144,67.5 143.8,67.6 143.5,67.7 
	143.3,67.8 143.1,67.9 142.9,68 142.7,68.2 142.6,68.3 142.4,68.5 142.3,68.7 142.1,68.9 142,69.1 141.9,69.3 141.8,69.5 
	141.8,69.7 141.7,70 141.7,70.2 141.7,70.4 141.7,70.7 141.7,70.9 141.8,71.1 141.8,71.4 141.9,71.6 142,71.8 142.1,72 142.3,72.2 
	142.4,72.4 142.6,72.5 142.7,72.7 142.9,72.8 143.1,73 143.3,73.1 143.5,73.2 143.8,73.3 144,73.3 144.2,73.4 144.4,73.4 
	144.7,73.4 144.9,73.4 145.1,73.4 145.4,73.3 145.6,73.3 145.8,73.2 146,73.1 146.2,73 146.4,72.8 146.6,72.7 146.8,72.5 
	146.9,72.4 147.1,72.2 147.2,72 147.3,71.8 147.4,71.6 147.5,71.4 147.6,71.1 147.6,70.9 147.6,70.7 147.7,70.4 147.6,70.2 
	147.6,70 147.6,69.7 147.5,69.5 147.4,69.3 147.3,69.1 147.2,68.9 147.1,68.7 146.9,68.5 146.8,68.3 146.6,68.2 146.4,68 
	146.2,67.9 146,67.8 145.8,67.7 145.6,67.6 145.4,67.5 145.1,67.5 144.9,67.5 144.7,67.5 "/>
<polygon fill="none" stroke="#0000FF" stroke-width="2.834645e-02" points="485.9,67.5 485.6,67.5 485.4,67.5 485.2,67.6 485,67.7 
	484.8,67.8 484.6,67.9 484.4,68 484.2,68.2 484,68.3 483.9,68.5 483.7,68.7 483.6,68.9 483.5,69.1 483.4,69.3 483.3,69.5 
	483.2,69.7 483.2,70 483.1,70.2 483.1,70.4 483.1,70.7 483.2,70.9 483.2,71.1 483.3,71.4 483.4,71.6 483.5,71.8 483.6,72 
	483.7,72.2 483.9,72.4 484,72.5 484.2,72.7 484.4,72.8 484.6,73 484.8,73.1 485,73.2 485.2,73.3 485.4,73.3 485.6,73.4 485.9,73.4 
	486.1,73.4 486.3,73.4 486.6,73.4 486.8,73.3 487,73.3 487.3,73.2 487.5,73.1 487.7,73 487.9,72.8 488,72.7 488.2,72.5 488.4,72.4 
	488.5,72.2 488.7,72 488.8,71.8 488.9,71.6 488.9,71.4 489,71.1 489.1,70.9 489.1,70.7 489.1,70.4 489.1,70.2 489.1,70 489,69.7 
	488.9,69.5 488.9,69.3 488.8,69.1 488.7,68.9 488.5,68.7 488.4,68.5 488.2,68.3 488,68.2 487.9,68 487.7,67.9 487.5,67.8 
	487.3,67.7 487,67.6 486.8,67.5 486.6,67.5 486.3,67.5 486.1,67.5 "/>
<polygon fill="none" stroke="#0000FF" stroke-width="2.834645e-02" points="160.8,-3.2 160.8,-1.5 158.5,-1.5 158.5,34.4 
	160.8,34.4 160.8,36.1 200,36.1 200,34.4 202.3,34.4 202.3,-1.5 200,-1.5 200,-3.2 "/>
<polygon fill="none" stroke="#0000FF" stroke-width="2.834645e-02" points="214.8,-3.2 214.8,-1.5 212.5,-1.5 212.5,34.4 
	214.8,34.4 214.8,36.1 254,36.1 254,34.4 256.3,34.4 256.3,-1.5 254,-1.5 254,-3.2 "/>
<polygon fill="none" stroke="#0000FF" stroke-width="2.834645e-02" points="268.8,-3.2 268.8,-1.5 266.5,-1.5 266.5,34.4 
	268.8,34.4 268.8,36.1 308,36.1 308,34.4 310.3,34.4 310.3,-1.5 308,-1.5 308,-3.2 "/>
<polygon fill="none" stroke="#0000FF" stroke-width="2.834645e-02" points="322.8,-3.2 322.8,-1.5 320.5,-1.5 320.5,34.4 
	322.8,34.4 322.8,36.1 362,36.1 362,34.4 364.3,34.4 364.3,-1.5 362,-1.5 362,-3.2 "/>
<polygon fill="none" stroke="#0000FF" stroke-width="2.834645e-02" points="376.8,-3.2 376.8,-1.5 374.5,-1.5 374.5,34.4 
	376.8,34.4 376.8,36.1 416,36.1 416,34.4 418.3,34.4 418.3,-1.5 416,-1.5 416,-3.2 "/>
<polygon fill="none" stroke="#0000FF" stroke-width="2.834645e-02" points="430.8,-3.2 430.8,-1.5 428.5,-1.5 428.5,34.4 
	430.8,34.4 430.8,36.1 470,36.1 470,34.4 472.3,34.4 472.3,-1.5 470,-1.5 470,-3.2 "/>
<polygon fill="none" stroke="#0000FF" stroke-width="2.834645e-02" points="160.8,-57.2 160.8,-55.5 158.5,-55.5 158.5,-19.6 
	160.8,-19.6 160.8,-17.9 200,-17.9 200,-19.6 202.3,-19.6 202.3,-55.5 200,-55.5 200,-57.2 "/>
<polygon fill="none" stroke="#0000FF" stroke-width="2.834645e-02" points="214.8,-57.2 214.8,-55.5 212.5,-55.5 212.5,-19.6 
	214.8,-19.6 214.8,-17.9 254,-17.9 254,-19.6 256.3,-19.6 256.3,-55.5 254,-55.5 254,-57.2 "/>
<polygon fill="none" stroke="#0000FF" stroke-width="2.834645e-02" points="268.8,-57.2 268.8,-55.5 266.5,-55.5 266.5,-19.6 
	268.8,-19.6 268.8,-17.9 308,-17.9 308,-19.6 310.3,-19.6 310.3,-55.5 308,-55.5 308,-57.2 "/>
<polygon fill="none" stroke="#0000FF" stroke-width="2.834645e-02" points="322.8,-57.2 322.8,-55.5 320.5,-55.5 320.5,-19.6 
	322.8,-19.6 322.8,-17.9 362,-17.9 362,-19.6 364.3,-19.6 364.3,-55.5 362,-55.5 362,-57.2 "/>
<polygon fill="none" stroke="#0000FF" stroke-width="2.834645e-02" points="376.8,-57.2 376.8,-55.5 374.5,-55.5 374.5,-19.6 
	376.8,-19.6 376.8,-17.9 416,-17.9 416,-19.6 418.3,-19.6 418.3,-55.5 416,-55.5 416,-57.2 "/>
<polygon fill="none" stroke="#0000FF" stroke-width="2.834645e-02" points="430.8,-57.2 430.8,-55.5 428.5,-55.5 428.5,-19.6 
	430.8,-19.6 430.8,-17.9 470,-17.9 470,-19.6 472.3,-19.6 472.3,-55.5 470,-55.5 470,-57.2 "/>
<polygon fill="none" stroke="#0000FF" stroke-width="2.834645e-02" points="144,-75.7 143.3,-75.3 142.7,-74.7 142.3,-73.9 
	142.1,-73.1 142.3,-72.2 142.7,-71.4 143.3,-70.8 144,-70.4 144.9,-70.3 145.7,-70.4 146.5,-70.8 147.1,-71.4 147.5,-72.2 
	147.7,-73.1 147.5,-73.9 147.1,-74.7 146.5,-75.3 145.7,-75.7 144.9,-75.8 "/>
<polygon fill="none" stroke="#0000FF" stroke-width="2.834645e-02" points="311.2,-76.3 311,-76.2 310.8,-76.2 310.5,-76.1 
	310.3,-76 310.1,-75.9 309.9,-75.8 309.7,-75.7 309.5,-75.5 309.4,-75.4 309.2,-75.2 309,-75 308.9,-74.8 308.8,-74.6 308.7,-74.4 
	308.6,-74.2 308.6,-74 308.5,-73.8 308.5,-73.5 308.5,-73.3 308.5,-73.1 308.5,-72.8 308.6,-72.6 308.6,-72.4 308.7,-72.1 
	308.8,-71.9 308.9,-71.7 309,-71.5 309.2,-71.4 309.4,-71.2 309.5,-71 309.7,-70.9 309.9,-70.7 310.1,-70.6 310.3,-70.5 
	310.5,-70.5 310.8,-70.4 311,-70.3 311.2,-70.3 311.5,-70.3 311.7,-70.3 311.9,-70.3 312.1,-70.4 312.4,-70.5 312.6,-70.5 
	312.8,-70.6 313,-70.7 313.2,-70.9 313.4,-71 313.6,-71.2 313.7,-71.4 313.9,-71.5 314,-71.7 314.1,-71.9 314.2,-72.1 314.3,-72.4 
	314.3,-72.6 314.4,-72.8 314.4,-73.1 314.4,-73.3 314.4,-73.5 314.4,-73.8 314.3,-74 314.3,-74.2 314.2,-74.4 314.1,-74.6 
	314,-74.8 313.9,-75 313.7,-75.2 313.6,-75.4 313.4,-75.5 313.2,-75.7 313,-75.8 312.8,-75.9 312.6,-76 312.4,-76.1 312.1,-76.2 
	311.9,-76.2 311.7,-76.3 311.5,-76.3 "/>
<polygon fill="none" stroke="#0000FF" stroke-width="2.834645e-02" points="384.9,-76.3 384.7,-76.2 384.5,-76.2 384.2,-76.1 
	384,-76 383.8,-75.9 383.6,-75.8 383.4,-75.7 383.2,-75.5 383.1,-75.4 382.9,-75.2 382.7,-75 382.6,-74.8 382.5,-74.6 382.4,-74.4 
	382.3,-74.2 382.3,-74 382.2,-73.8 382.2,-73.5 382.2,-73.3 382.2,-73.1 382.2,-72.8 382.3,-72.6 382.3,-72.4 382.4,-72.1 
	382.5,-71.9 382.6,-71.7 382.7,-71.5 382.9,-71.4 383.1,-71.2 383.2,-71 383.4,-70.9 383.6,-70.7 383.8,-70.6 384,-70.5 
	384.2,-70.5 384.5,-70.4 384.7,-70.3 384.9,-70.3 385.2,-70.3 385.4,-70.3 385.6,-70.3 385.8,-70.4 386.1,-70.5 386.3,-70.5 
	386.5,-70.6 386.7,-70.7 386.9,-70.9 387.1,-71 387.3,-71.2 387.4,-71.4 387.6,-71.5 387.7,-71.7 387.8,-71.9 387.9,-72.1 
	388,-72.4 388,-72.6 388.1,-72.8 388.1,-73.1 388.1,-73.3 388.1,-73.5 388.1,-73.8 388,-74 388,-74.2 387.9,-74.4 387.8,-74.6 
	387.7,-74.8 387.6,-75 387.4,-75.2 387.3,-75.4 387.1,-75.5 386.9,-75.7 386.7,-75.8 386.5,-75.9 386.3,-76 386.1,-76.1 
	385.8,-76.2 385.6,-76.2 385.4,-76.3 385.2,-76.3 "/>
<polygon fill="none" stroke="#0000FF" stroke-width="2.834645e-02" points="485,-75.7 484.3,-75.3 483.7,-74.7 483.3,-73.9 
	483.1,-73.1 483.3,-72.2 483.7,-71.4 484.3,-70.8 485,-70.4 485.9,-70.3 486.8,-70.4 487.5,-70.8 488.1,-71.4 488.5,-72.2 
	488.7,-73.1 488.5,-73.9 488.1,-74.7 487.5,-75.3 486.8,-75.7 485.9,-75.8 "/>
<polygon fill="none" stroke="#0000FF" stroke-width="2.834645e-02" points="470,198.1 470,196.4 472.3,196.4 472.3,160.5 470,160.5 
	470,158.8 461.6,158.8 461.6,156.7 452.7,156.7 452.7,158.8 394.1,158.8 394.1,156.7 385.2,156.7 385.2,158.8 376.8,158.8 
	376.8,160.5 374.5,160.5 374.5,196.4 376.8,196.4 376.8,198.1 "/>
<polygon fill="none" stroke="#0000FF" stroke-width="2.834645e-02" points="254,198.1 254,196.4 256.3,196.4 256.3,160.5 254,160.5 
	254,158.8 245.6,158.8 245.6,156.7 236.7,156.7 236.7,158.8 178.1,158.8 178.1,156.7 169.2,156.7 169.2,158.8 160.8,158.8 
	160.8,160.5 158.5,160.5 158.5,196.4 160.8,196.4 160.8,198.1 "/>
</svg>
