<?xml version="1.0" encoding="utf-8"?>
<!-- Generator: Adobe Illustrator 19.0.0, SVG Export Plug-In . SVG Version: 6.00 Build 0)  -->
<svg version="1.1" id="Layer_1" xmlns="http://www.w3.org/2000/svg" xmlns:xlink="http://www.w3.org/1999/xlink" x="0px" y="0px"
	 width="386.8px" height="352.6px" viewBox="122 -105.9 386.8 352.6" style="enable-background:new 122 -105.9 386.8 352.6;"
	 xml:space="preserve">
<style type="text/css">
	.st0{fill:none;stroke:#0000FF;stroke-width:2.834645e-02;}
</style>
<polygon class="st0" points="486.1,-71.9 486.8,-71.9 487.4,-71.8 488.1,-71.7 488.7,-71.5 489.4,-71.2 490,-71 490.6,-70.6 
	491.1,-70.3 491.6,-69.9 492.1,-69.4 492.6,-68.9 493,-68.4 493.4,-67.8 493.7,-67.2 494,-66.6 494.2,-66 494.4,-65.4 494.5,-64.7 
	494.6,-64.1 494.6,-63.4 494.6,224.1 494.6,224.7 494.5,225.4 494.4,226 494.2,226.7 494,227.3 493.7,227.9 493.4,228.5 493,229.1 
	492.6,229.6 492.1,230.1 491.6,230.5 491.1,230.9 490.6,231.3 490,231.6 489.4,231.9 488.7,232.1 488.1,232.3 487.4,232.5 
	486.8,232.5 486.1,232.6 144.7,232.6 144,232.5 143.3,232.5 142.7,232.3 142,232.1 141.4,231.9 140.8,231.6 140.2,231.3 
	139.7,230.9 139.2,230.5 138.7,230.1 138.2,229.6 137.8,229.1 137.4,228.5 137.1,227.9 136.8,227.3 136.6,226.7 136.4,226 
	136.3,225.4 136.2,224.7 136.2,224 136.2,-63.4 136.2,-64.1 136.3,-64.7 136.4,-65.4 136.6,-66 136.8,-66.6 137.1,-67.2 
	137.4,-67.8 137.8,-68.4 138.2,-68.9 138.7,-69.4 139.2,-69.9 139.7,-70.3 140.2,-70.6 140.8,-71 141.4,-71.2 142,-71.5 
	142.7,-71.7 143.3,-71.8 144,-71.9 144.7,-71.9 "/>
<polygon class="st0" points="315.2,221.1 314.9,221.1 314.7,221.2 314.5,221.2 314.3,221.3 314,221.4 313.8,221.5 313.6,221.6 
	313.5,221.8 313.3,221.9 313.1,222.1 313,222.3 312.9,222.5 312.7,222.7 312.6,222.9 312.6,223.1 312.5,223.4 312.5,223.6 
	312.4,223.8 312.4,224.1 312.4,224.3 312.5,224.5 312.5,224.7 312.6,225 312.6,225.2 312.7,225.4 312.9,225.6 313,225.8 313.1,226 
	313.3,226.2 313.5,226.3 313.6,226.5 313.8,226.6 314,226.7 314.3,226.8 314.5,226.9 314.7,226.9 314.9,227 315.2,227 315.4,227 
	315.6,227 315.9,227 316.1,226.9 316.3,226.9 316.5,226.8 316.7,226.7 317,226.6 317.1,226.5 317.3,226.3 317.5,226.2 317.7,226 
	317.8,225.8 317.9,225.6 318,225.4 318.1,225.2 318.2,225 318.3,224.7 318.3,224.5 318.4,224.3 318.4,224.1 318.4,223.8 
	318.3,223.6 318.3,223.4 318.2,223.1 318.1,222.9 318,222.7 317.9,222.5 317.8,222.3 317.7,222.1 317.5,221.9 317.3,221.8 
	317.1,221.6 317,221.5 316.7,221.4 316.5,221.3 316.3,221.2 316.1,221.2 315.9,221.1 315.6,221.1 315.4,221.1 "/>
<polygon class="st0" points="485,221.2 484.3,221.6 483.7,222.2 483.3,223 483.1,223.8 483.3,224.7 483.7,225.5 484.3,226.1 
	485,226.5 485.9,226.6 486.8,226.5 487.5,226.1 488.1,225.5 488.5,224.7 488.7,223.8 488.5,223 488.1,222.2 487.5,221.6 
	486.8,221.2 485.9,221.1 "/>
<polygon class="st0" points="144,221.2 143.3,221.6 142.7,222.2 142.3,223 142.1,223.8 142.3,224.7 142.7,225.5 143.3,226.1 
	144,226.5 144.9,226.6 145.7,226.5 146.5,226.1 147.1,225.5 147.5,224.7 147.7,223.8 147.5,223 147.1,222.2 146.5,221.6 
	145.7,221.2 144.9,221.1 "/>
<polygon class="st0" points="160.8,168.7 160.8,170.4 158.5,170.4 158.5,206.3 160.8,206.3 160.8,208 200,208 200,206.3 
	202.3,206.3 202.3,170.4 200,170.4 200,168.7 "/>
<polygon class="st0" points="214.8,168.7 214.8,170.4 212.5,170.4 212.5,206.3 214.8,206.3 214.8,208 254,208 254,206.3 
	256.3,206.3 256.3,170.4 254,170.4 254,168.7 "/>
<polygon class="st0" points="268.8,168.7 268.8,170.4 266.5,170.4 266.5,206.3 268.8,206.3 268.8,208 308,208 308,206.3 
	310.3,206.3 310.3,170.4 308,170.4 308,168.7 "/>
<polygon class="st0" points="322.8,168.7 322.8,170.4 320.5,170.4 320.5,206.3 322.8,206.3 322.8,208 362,208 362,206.3 
	364.3,206.3 364.3,170.4 362,170.4 362,168.7 "/>
<polygon class="st0" points="160.8,114.7 160.8,116.4 158.5,116.4 158.5,152.3 160.8,152.3 160.8,154 200,154 200,152.3 
	202.3,152.3 202.3,116.4 200,116.4 200,114.7 "/>
<polygon class="st0" points="214.8,114.7 214.8,116.4 212.5,116.4 212.5,152.3 214.8,152.3 214.8,154 254,154 254,152.3 
	256.3,152.3 256.3,116.4 254,116.4 254,114.7 "/>
<polygon class="st0" points="268.8,114.7 268.8,116.4 266.5,116.4 266.5,152.3 268.8,152.3 268.8,154 308,154 308,152.3 
	310.3,152.3 310.3,116.4 308,116.4 308,114.7 "/>
<polygon class="st0" points="322.8,114.7 322.8,116.4 320.5,116.4 320.5,152.3 322.8,152.3 322.8,154 362,154 362,152.3 
	364.3,152.3 364.3,116.4 362,116.4 362,114.7 "/>
<polygon class="st0" points="376.8,114.7 376.8,116.4 374.5,116.4 374.5,152.3 376.8,152.3 376.8,154 416,154 416,152.3 
	418.3,152.3 418.3,116.4 416,116.4 416,114.7 "/>
<polygon class="st0" points="430.8,114.7 430.8,116.4 428.5,116.4 428.5,152.3 430.8,152.3 430.8,154 470,154 470,152.3 
	472.3,152.3 472.3,116.4 470,116.4 470,114.7 "/>
<polygon class="st0" points="160.8,60.7 160.8,62.4 158.5,62.4 158.5,98.3 160.8,98.3 160.8,100 200,100 200,98.3 202.3,98.3 
	202.3,62.4 200,62.4 200,60.7 "/>
<polygon class="st0" points="214.8,60.7 214.8,62.4 212.5,62.4 212.5,98.3 214.8,98.3 214.8,100 254,100 254,98.3 256.3,98.3 
	256.3,62.4 254,62.4 254,60.7 "/>
<polygon class="st0" points="268.8,60.7 268.8,62.4 266.5,62.4 266.5,98.3 268.8,98.3 268.8,100 308,100 308,98.3 310.3,98.3 
	310.3,62.4 308,62.4 308,60.7 "/>
<polygon class="st0" points="322.8,60.7 322.8,62.4 320.5,62.4 320.5,98.3 322.8,98.3 322.8,100 362,100 362,98.3 364.3,98.3 
	364.3,62.4 362,62.4 362,60.7 "/>
<polygon class="st0" points="376.8,60.7 376.8,62.4 374.5,62.4 374.5,98.3 376.8,98.3 376.8,100 416,100 416,98.3 418.3,98.3 
	418.3,62.4 416,62.4 416,60.7 "/>
<polygon class="st0" points="430.8,60.7 430.8,62.4 428.5,62.4 428.5,98.3 430.8,98.3 430.8,100 470,100 470,98.3 472.3,98.3 
	472.3,62.4 470,62.4 470,60.7 "/>
<polygon class="st0" points="144.4,77.4 144.2,77.4 144,77.4 143.8,77.5 143.5,77.6 143.3,77.7 143.1,77.8 142.9,77.9 142.7,78.1 
	142.6,78.2 142.4,78.4 142.3,78.6 142.1,78.8 142,79 141.9,79.2 141.8,79.4 141.8,79.6 141.7,79.9 141.7,80.1 141.7,80.3 
	141.7,80.6 141.7,80.8 141.8,81 141.8,81.3 141.9,81.5 142,81.7 142.1,81.9 142.3,82.1 142.4,82.3 142.6,82.4 142.7,82.6 
	142.9,82.7 143.1,82.9 143.3,83 143.5,83.1 143.8,83.2 144,83.2 144.2,83.3 144.4,83.3 144.7,83.3 144.9,83.3 145.1,83.3 
	145.4,83.2 145.6,83.2 145.8,83.1 146,83 146.2,82.9 146.4,82.7 146.6,82.6 146.8,82.4 146.9,82.3 147.1,82.1 147.2,81.9 
	147.3,81.7 147.4,81.5 147.5,81.3 147.6,81 147.6,80.8 147.6,80.6 147.7,80.3 147.6,80.1 147.6,79.9 147.6,79.6 147.5,79.4 
	147.4,79.2 147.3,79 147.2,78.8 147.1,78.6 146.9,78.4 146.8,78.2 146.6,78.1 146.4,77.9 146.2,77.8 146,77.7 145.8,77.6 
	145.6,77.5 145.4,77.4 145.1,77.4 144.9,77.4 144.7,77.4 "/>
<polygon class="st0" points="485.9,77.4 485.6,77.4 485.4,77.4 485.2,77.5 485,77.6 484.8,77.7 484.6,77.8 484.4,77.9 484.2,78.1 
	484,78.2 483.9,78.4 483.7,78.6 483.6,78.8 483.5,79 483.4,79.2 483.3,79.4 483.2,79.6 483.2,79.9 483.1,80.1 483.1,80.3 
	483.1,80.6 483.2,80.8 483.2,81 483.3,81.3 483.4,81.5 483.5,81.7 483.6,81.9 483.7,82.1 483.9,82.3 484,82.4 484.2,82.6 
	484.4,82.7 484.6,82.9 484.8,83 485,83.1 485.2,83.2 485.4,83.2 485.6,83.3 485.9,83.3 486.1,83.3 486.3,83.3 486.6,83.3 
	486.8,83.2 487,83.2 487.3,83.1 487.5,83 487.7,82.9 487.9,82.7 488,82.6 488.2,82.4 488.4,82.3 488.5,82.1 488.7,81.9 488.8,81.7 
	488.9,81.5 488.9,81.3 489,81 489.1,80.8 489.1,80.6 489.1,80.3 489.1,80.1 489.1,79.9 489,79.6 488.9,79.4 488.9,79.2 488.8,79 
	488.7,78.8 488.5,78.6 488.4,78.4 488.2,78.2 488,78.1 487.9,77.9 487.7,77.8 487.5,77.7 487.3,77.6 487,77.5 486.8,77.4 
	486.6,77.4 486.3,77.4 486.1,77.4 "/>
<polygon class="st0" points="160.8,6.7 160.8,8.4 158.5,8.4 158.5,44.3 160.8,44.3 160.8,46 200,46 200,44.3 202.3,44.3 202.3,8.4 
	200,8.4 200,6.7 "/>
<polygon class="st0" points="214.8,6.7 214.8,8.4 212.5,8.4 212.5,44.3 214.8,44.3 214.8,46 254,46 254,44.3 256.3,44.3 256.3,8.4 
	254,8.4 254,6.7 "/>
<polygon class="st0" points="268.8,6.7 268.8,8.4 266.5,8.4 266.5,44.3 268.8,44.3 268.8,46 308,46 308,44.3 310.3,44.3 310.3,8.4 
	308,8.4 308,6.7 "/>
<polygon class="st0" points="322.8,6.7 322.8,8.4 320.5,8.4 320.5,44.3 322.8,44.3 322.8,46 362,46 362,44.3 364.3,44.3 364.3,8.4 
	362,8.4 362,6.7 "/>
<polygon class="st0" points="376.8,6.7 376.8,8.4 374.5,8.4 374.5,44.3 376.8,44.3 376.8,46 416,46 416,44.3 418.3,44.3 418.3,8.4 
	416,8.4 416,6.7 "/>
<polygon class="st0" points="430.8,6.7 430.8,8.4 428.5,8.4 428.5,44.3 430.8,44.3 430.8,46 470,46 470,44.3 472.3,44.3 472.3,8.4 
	470,8.4 470,6.7 "/>
<polygon class="st0" points="160.8,-47.3 160.8,-45.6 158.5,-45.6 158.5,-9.7 160.8,-9.7 160.8,-8 200,-8 200,-9.7 202.3,-9.7 
	202.3,-45.6 200,-45.6 200,-47.3 "/>
<polygon class="st0" points="214.8,-47.3 214.8,-45.6 212.5,-45.6 212.5,-9.7 214.8,-9.7 214.8,-8 254,-8 254,-9.7 256.3,-9.7 
	256.3,-45.6 254,-45.6 254,-47.3 "/>
<polygon class="st0" points="268.8,-47.3 268.8,-45.6 266.5,-45.6 266.5,-9.7 268.8,-9.7 268.8,-8 308,-8 308,-9.7 310.3,-9.7 
	310.3,-45.6 308,-45.6 308,-47.3 "/>
<polygon class="st0" points="322.8,-47.3 322.8,-45.6 320.5,-45.6 320.5,-9.7 322.8,-9.7 322.8,-8 362,-8 362,-9.7 364.3,-9.7 
	364.3,-45.6 362,-45.6 362,-47.3 "/>
<polygon class="st0" points="376.8,-47.3 376.8,-45.6 374.5,-45.6 374.5,-9.7 376.8,-9.7 376.8,-8 416,-8 416,-9.7 418.3,-9.7 
	418.3,-45.6 416,-45.6 416,-47.3 "/>
<polygon class="st0" points="430.8,-47.3 430.8,-45.6 428.5,-45.6 428.5,-9.7 430.8,-9.7 430.8,-8 470,-8 470,-9.7 472.3,-9.7 
	472.3,-45.6 470,-45.6 470,-47.3 "/>
<polygon class="st0" points="144,-65.8 143.3,-65.4 142.7,-64.8 142.3,-64 142.1,-63.2 142.3,-62.3 142.7,-61.5 143.3,-60.9 
	144,-60.5 144.9,-60.4 145.7,-60.5 146.5,-60.9 147.1,-61.5 147.5,-62.3 147.7,-63.2 147.5,-64 147.1,-64.8 146.5,-65.4 
	145.7,-65.8 144.9,-65.9 "/>
<polygon class="st0" points="311.2,-66.4 311,-66.3 310.8,-66.3 310.5,-66.2 310.3,-66.1 310.1,-66 309.9,-65.9 309.7,-65.8 
	309.5,-65.6 309.4,-65.5 309.2,-65.3 309,-65.1 308.9,-64.9 308.8,-64.7 308.7,-64.5 308.6,-64.3 308.6,-64.1 308.5,-63.9 
	308.5,-63.6 308.5,-63.4 308.5,-63.2 308.5,-62.9 308.6,-62.7 308.6,-62.5 308.7,-62.2 308.8,-62 308.9,-61.8 309,-61.6 
	309.2,-61.5 309.4,-61.3 309.5,-61.1 309.7,-61 309.9,-60.8 310.1,-60.7 310.3,-60.6 310.5,-60.6 310.8,-60.5 311,-60.4 
	311.2,-60.4 311.5,-60.4 311.7,-60.4 311.9,-60.4 312.1,-60.5 312.4,-60.6 312.6,-60.6 312.8,-60.7 313,-60.8 313.2,-61 
	313.4,-61.1 313.6,-61.3 313.7,-61.5 313.9,-61.6 314,-61.8 314.1,-62 314.2,-62.2 314.3,-62.5 314.3,-62.7 314.4,-62.9 
	314.4,-63.2 314.4,-63.4 314.4,-63.6 314.4,-63.9 314.3,-64.1 314.3,-64.3 314.2,-64.5 314.1,-64.7 314,-64.9 313.9,-65.1 
	313.7,-65.3 313.6,-65.5 313.4,-65.6 313.2,-65.8 313,-65.9 312.8,-66 312.6,-66.1 312.4,-66.2 312.1,-66.3 311.9,-66.3 
	311.7,-66.4 311.5,-66.4 "/>
<polygon class="st0" points="384.9,-66.4 384.7,-66.3 384.5,-66.3 384.2,-66.2 384,-66.1 383.8,-66 383.6,-65.9 383.4,-65.8 
	383.2,-65.6 383.1,-65.5 382.9,-65.3 382.7,-65.1 382.6,-64.9 382.5,-64.7 382.4,-64.5 382.3,-64.3 382.3,-64.1 382.2,-63.9 
	382.2,-63.6 382.2,-63.4 382.2,-63.2 382.2,-62.9 382.3,-62.7 382.3,-62.5 382.4,-62.2 382.5,-62 382.6,-61.8 382.7,-61.6 
	382.9,-61.5 383.1,-61.3 383.2,-61.1 383.4,-61 383.6,-60.8 383.8,-60.7 384,-60.6 384.2,-60.6 384.5,-60.5 384.7,-60.4 
	384.9,-60.4 385.2,-60.4 385.4,-60.4 385.6,-60.4 385.8,-60.5 386.1,-60.6 386.3,-60.6 386.5,-60.7 386.7,-60.8 386.9,-61 
	387.1,-61.1 387.3,-61.3 387.4,-61.5 387.6,-61.6 387.7,-61.8 387.8,-62 387.9,-62.2 388,-62.5 388,-62.7 388.1,-62.9 388.1,-63.2 
	388.1,-63.4 388.1,-63.6 388.1,-63.9 388,-64.1 388,-64.3 387.9,-64.5 387.8,-64.7 387.7,-64.9 387.6,-65.1 387.4,-65.3 
	387.3,-65.5 387.1,-65.6 386.9,-65.8 386.7,-65.9 386.5,-66 386.3,-66.1 386.1,-66.2 385.8,-66.3 385.6,-66.3 385.4,-66.4 
	385.2,-66.4 "/>
<polygon class="st0" points="485,-65.8 484.3,-65.4 483.7,-64.8 483.3,-64 483.1,-63.2 483.3,-62.3 483.7,-61.5 484.3,-60.9 
	485,-60.5 485.9,-60.4 486.8,-60.5 487.5,-60.9 488.1,-61.5 488.5,-62.3 488.7,-63.2 488.5,-64 488.1,-64.8 487.5,-65.4 
	486.8,-65.8 485.9,-65.9 "/>
<polygon class="st0" points="470,208 470,206.3 472.3,206.3 472.3,170.4 470,170.4 470,168.7 461.6,168.7 461.6,166.6 452.7,166.6 
	452.7,168.7 394.1,168.7 394.1,166.6 385.2,166.6 385.2,168.7 376.8,168.7 376.8,170.4 374.5,170.4 374.5,206.3 376.8,206.3 
	376.8,208 "/>
</svg>
