<svg height="10.1016cm" viewBox="0 0 51790 39770" width="13.1547cm" xmlns="http://www.w3.org/2000/svg"><g fill-opacity="0" stroke-linecap="round" stroke-linejoin="round" stroke-width="59.0551"><g fill="#c2c2c2" stroke="#c2c2c2"><text font-size="524.934" lengthAdjust="spacingAndGlyphs" opacity="0" text-anchor="middle" textLength="3037.12" x="39981.7" y="1230.35">8.930 mm</text><path d="m38613 986-38-19-19-18-18-38v-19l18-37 19-19 38-19h75l37 19 19 19 19 37v19l-19 38-19 18-37 19h-75l-38 19-19 19-18 37v75l18 38 19 18 38 19h75l37-19 19-18 19-38v-75l-19-37-19-19-37-19"/><path d="m38931 1174 19 18-19 19-18-19 18-18v37"/><path d="m39138 1211h75l37-19 19-18 37-57 19-75v-150l-19-37-18-19-38-19h-75l-37 19-19 19-19 37v94l19 38 19 18 37 19h75l38-19 18-18 19-38"/><path d="m39456 817h244l-131 150h56l38 19 18 19 19 37v94l-19 38-18 18-38 19h-112l-38-19-19-18"/><path d="m39944 817h37l38 19 18 19 19 37 19 75v94l-19 75-19 38-18 18-38 19h-37l-38-19-19-18-18-38-19-75v-94l19-75 18-37 19-19z"/><path d="m40544 1211v-262"/><path d="m40544 986 18-19 38-18h56l38 18 18 38v206"/><path d="m40712 1005 19-38 38-18h56l37 18 19 38v206"/><path d="m41069 1211v-262"/><path d="m41069 986 18-19 38-18h56l38 18 18 38v206"/><path d="m41237 1005 19-38 38-18h56l37 18 19 38v206"/><path d="m41739 1545h-3516"/><path d="m41739 4709v-3395"/><path d="m38223 4709v-3395"/><path d="m38223 1545 444-231"/><path d="m38223 1545 444 231"/><path d="m41739 1545-443-231"/><path d="m41739 1545-443 231"/><text font-size="524.934" lengthAdjust="spacingAndGlyphs" opacity="0" text-anchor="middle" textLength="3488.85" transform="matrix(0 -1 1 0 -2249.43 5720.55)" x="1735.56" y="4181.84">13.800 mm</text><path d="m1913 5391v225"/><path d="m1913 5503h-394l57 38 37 37 19 38"/><path d="m1519 5259v-243l150 131v-56l19-38 19-19 37-18h94l38 18 18 19 19 38v112l-19 38-18 18"/><path d="m1876 4847 18-19 19 19-19 19-18-19h37"/><path d="m1688 4603-19 38-18 18-38 19h-19l-37-19-19-18-19-38v-75l19-37 19-19 37-19h19l38 19 18 19 19 37v75l19 38 19 18 37 19h75l38-19 18-18 19-38v-75l-19-37-18-19-38-19h-75l-37 19-19 19-19 37"/><path d="m1519 4209v-37l19-38 19-18 37-19 75-19h94l75 19 38 19 18 18 19 38v37l-19 38-18 19-38 18-75 19h-94l-75-19-37-18-19-19z"/><path d="m1519 3835v-38l19-37 19-19 37-19 75-19h94l75 19 38 19 18 19 19 37v38l-19 37-18 19-38 18-75 19h-94l-75-19-37-18-19-19z"/><path d="m1913 3235h-262"/><path d="m1688 3235-19-19-18-38v-56l18-37 38-19h206"/><path d="m1707 3066-38-19-18-37v-57l18-37 38-19h206"/><path d="m1913 2710h-262"/><path d="m1688 2710-19-19-18-38v-56l18-37 38-19h206"/><path d="m1707 2541-38-19-18-37v-57l18-37 38-19h206"/><path d="m2247 6701v-5433"/><path d="m8223 6701h-6207"/><path d="m8223 1268h-6207"/><path d="m2247 1268 231 443"/><path d="m2247 1268-231 443"/><path d="m2247 6701 231-443"/><path d="m2247 6701-231-443"/><text font-size="367.454" lengthAdjust="spacingAndGlyphs" opacity="0" text-anchor="middle" textLength="2727.69" x="26973.9" y="350.984">109.537 mm</text><path d="m25858 337h-158"/><path d="m25779 337v-275l-26 39-26 26-27 14"/><path d="m26029 62h26l26 13 13 13 13 26 13 53v65l-13 53-13 26-13 13-26 13h-26l-27-13-13-13-13-26-13-53v-65l13-53 13-26 13-13z"/><path d="m26252 337h52l26-13 13-13 27-39 13-53v-105l-13-26-13-13-27-13h-52l-26 13-13 13-14 26v66l14 26 13 13 26 13h52l27-13 13-13 13-26"/><path d="m26501 311 13 13-13 13-13-13 13-13v26"/><path d="m26763 62h-131l-13 131 13-13 26-13h66l26 13 13 13 14 26v66l-14 26-13 13-26 13h-66l-26-13-13-13"/><path d="m26868 62h171l-92 105h40l26 13 13 13 13 26v66l-13 26-13 13-26 13h-79l-26-13-14-13"/><path d="m27131 62h184l-118 275"/><path d="m27630 337v-183"/><path d="m27630 180 13-13 26-13h39l27 13 13 26v144"/><path d="m27748 193 13-26 26-13h39l27 13 13 26v144"/><path d="m27997 337v-183"/><path d="m27997 180 13-13 26-13h40l26 13 13 26v144"/><path d="m28115 193 13-26 27-13h39l26 13 13 26v144"/><path d="m5411 725h43125"/><path d="m5411 4006v-3512"/><path d="m48536 4006v-3512"/><path d="m48536 725-444 230"/><path d="m48536 725-444-231"/><path d="m5411 725 443 230"/><path d="m5411 725 443-231"/><text font-size="367.454" lengthAdjust="spacingAndGlyphs" opacity="0" text-anchor="middle" textLength="2465.22" transform="matrix(0 -1 1 0 -16801.89 23085.51)" x="3141.81" y="20081.5">94.655 mm</text><path d="m3266 21059v-53l-13-26-13-13-40-26-52-14h-105l-26 14-13 13-14 26v52l14 27 13 13 26 13h66l26-13 13-13 13-27v-52l-13-26-13-13-26-14"/><path d="m3082 20691h184"/><path d="m2977 20757 197 65v-170"/><path d="m3240 20547 13-13 13 13-13 13-13-13h26"/><path d="m2990 20298v52l14 26 13 13 39 27 53 13h104l27-13 13-13 13-27v-52l-13-26-13-14-27-13h-65l-26 13-13 14-14 26v52l14 27 13 13 26 13"/><path d="m2990 20022v131l132 13-13-13-14-26v-66l14-26 13-13 26-13h65l27 13 13 13 13 26v66l-13 26-13 13"/><path d="m2990 19760v131l132 13-13-13-14-27v-65l14-26 13-13 26-14h65l27 14 13 13 13 26v65l-13 27-13 13"/><path d="m3266 19418h-184"/><path d="m3109 19418-14-13-13-26v-39l13-27 27-13h144"/><path d="m3122 19300-27-13-13-26v-40l13-26 27-13h144"/><path d="m3266 19051h-184"/><path d="m3109 19051-14-13-13-27v-39l13-26 27-13h144"/><path d="m3122 18933-27-13-13-27v-39l13-26 27-13h144"/><path d="m3653 38576v-37266"/><path d="m10333 38576h-6911"/><path d="m10333 1310h-6911"/><path d="m3653 1310 231 444"/><path d="m3653 1310-231 444"/><path d="m3653 38576 231-443"/><path d="m3653 38576-231-443"/><text font-size="367.454" lengthAdjust="spacingAndGlyphs" opacity="0" text-anchor="middle" textLength="2465.22" transform="matrix(0 -1 1 0 45979.42 55163.78)" x="50571.6" y="4729.98">10.716 mm</text><path d="m50696 5576v157"/><path d="m50696 5655h-276l40 26 26 26 13 26"/><path d="m50420 5405v-26l13-26 13-13 27-13 52-14h66l52 14 27 13 13 13 13 26v26l-13 27-13 13-27 13-52 13h-66l-52-13-27-13-13-13z"/><path d="m50670 5195 13-13 13 13-13 13-13-13h26"/><path d="m50420 5090v-183l276 118"/><path d="m50696 4657v158"/><path d="m50696 4736h-276l40 26 26 27 13 26"/><path d="m50420 4421v53l13 26 13 13 40 26 52 13h105l27-13 13-13 13-26v-53l-13-26-13-13-27-13h-65l-27 13-13 13-13 26v53l13 26 13 13 27 13"/><path d="m50696 4067h-184"/><path d="m50538 4067-13-13-13-27v-39l13-26 26-13h145"/><path d="m50551 3949-26-13-13-27v-39l13-26 26-13h145"/><path d="m50696 3699h-184"/><path d="m50538 3699-13-13-13-26v-39l13-27 26-13h145"/><path d="m50551 3581-26-13-13-26v-40l13-26 26-13h145"/><path d="m50059 6701v-4219"/><path d="m47833 6701h2457"/><path d="m47833 2482h2457"/><path d="m50059 2482 231 444"/><path d="m50059 2482-231 444"/><path d="m50059 6701 231-443"/><path d="m50059 6701-231-443"/><path d="m46384 32951h788"/><path d="m45916 32951h787"/><path d="m40056 32951h788"/><path d="m39588 32951h787"/><path d="m38884 32951h788"/><path d="m38416 32951h787"/><path d="m32088 32951h787"/><path d="m32556 32951h788"/><path d="m31384 32951h788"/><path d="m30916 32951h787"/><path d="m28572 32951h787"/><path d="m28103 32951h788"/><path d="m16970 32951h788"/><path d="m27283 32951h787"/><path d="m26814 32951h787"/><path d="m24822 32951h787"/><path d="m24353 32951h788"/><path d="m23650 32951h787"/><path d="m23181 32951h788"/><path d="m22713 32951h787"/><path d="m22244 32951h787"/><path d="m21072 32951h787"/><path d="m21541 32951h787"/><path d="m18142 32951h788"/><path d="m17673 32951h788"/><path d="m14861 32951h787"/><path d="m15330 32951h787"/><path d="m9822 32951h787"/><path d="m9353 32951h788"/><path d="m8298 32951h788"/><path d="m36255 31957h-787"/><path d="m35468 31957v-787"/><path d="m36255 26445h-787"/><path d="m35468 26445v788"/><path d="m40979 27233v-788"/><path d="m40979 26445h-787"/><path d="m40192 31957h787"/><path d="m40979 31957v-787"/><path d="m41973 32951h-7500"/><path d="m34473 32951v-7500"/><path d="m34473 25451h7500"/><path d="m41973 25451v7500"/><path d="m13755 31957h-787"/><path d="m12968 31957v-787"/><path d="m13755 26445h-787"/><path d="m12968 26445v788"/><path d="m18479 27233v-788"/><path d="m18479 26445h-787"/><path d="m17692 31957h787"/><path d="m18479 31957v-787"/><path d="m19473 32951h-7500"/><path d="m11973 32951v-7500"/><path d="m11973 25451h7500"/><path d="m19473 25451v7500"/><path d="m36255 9457h-787"/><path d="m35468 9457v-787"/><path d="m36255 3945h-787"/><path d="m35468 3945v788"/><path d="m40979 4733v-788"/><path d="m40979 3945h-787"/><path d="m40192 9457h787"/><path d="m40979 9457v-787"/><path d="m41973 10451h-7500"/><path d="m34473 10451v-7500"/><path d="m34473 2951h7500"/><path d="m41973 2951v7500"/><path d="m10005 39457h-787"/><path d="m9218 39457v-787"/><path d="m10005 33945h-787"/><path d="m9218 33945v788"/><path d="m14729 34733v-788"/><path d="m14729 33945h-787"/><path d="m13942 39457h787"/><path d="m14729 39457v-787"/><path d="m19473 40451h-15000"/><path d="m4473 40451v-7500"/><path d="m4473 32951h15000"/><path d="m19473 32951v7500"/><path d="m43755 39457h-788"/><path d="m42967 39457v-787"/><path d="m43755 33945h-788"/><path d="m42967 33945v788"/><path d="m48479 34733v-788"/><path d="m48479 33945h-787"/><path d="m47692 39457h787"/><path d="m48479 39457v-787"/><path d="m49473 40451h-7500"/><path d="m41973 40451v-7500"/><path d="m41973 32951h7500"/><path d="m49473 32951v7500"/><path d="m36255 39457h-787"/><path d="m35468 39457v-787"/><path d="m36255 33945h-787"/><path d="m35468 33945v788"/><path d="m40979 34733v-788"/><path d="m40979 33945h-787"/><path d="m40192 39457h787"/><path d="m40979 39457v-787"/><path d="m41973 40451h-7500"/><path d="m34473 40451v-7500"/><path d="m34473 32951h7500"/><path d="m41973 32951v7500"/><path d="m28755 39457h-787"/><path d="m27968 39457v-787"/><path d="m28755 33945h-787"/><path d="m27968 33945v788"/><path d="m33479 34733v-788"/><path d="m33479 33945h-787"/><path d="m32692 39457h787"/><path d="m33479 39457v-787"/><path d="m34473 40451h-7500"/><path d="m26973 40451v-7500"/><path d="m26973 32951h7500"/><path d="m34473 32951v7500"/><path d="m21255 39457h-787"/><path d="m20468 39457v-787"/><path d="m21255 33945h-787"/><path d="m20468 33945v788"/><path d="m25979 34733v-788"/><path d="m25979 33945h-787"/><path d="m25192 39457h787"/><path d="m25979 39457v-787"/><path d="m26973 40451h-7500"/><path d="m19473 40451v-7500"/><path d="m19473 32951h7500"/><path d="m26973 32951v7500"/><path d="m13755 39457h-787"/><path d="m12968 39457v-787"/><path d="m13755 33945h-787"/><path d="m12968 33945v788"/><path d="m18479 34733v-788"/><path d="m18479 33945h-787"/><path d="m17692 39457h787"/><path d="m18479 39457v-787"/><path d="m19473 40451h-7500"/><path d="m11973 40451v-7500"/><path d="m11973 32951h7500"/><path d="m19473 32951v7500"/><path d="m6255 39457h-787"/><path d="m5468 39457v-787"/><path d="m6255 33945h-787"/><path d="m5468 33945v788"/><path d="m10979 34733v-788"/><path d="m10979 33945h-787"/><path d="m10192 39457h787"/><path d="m10979 39457v-787"/><path d="m11973 40451h-7500"/><path d="m4473 40451v-7500"/><path d="m4473 32951h7500"/><path d="m11973 32951v7500"/><path d="m43755 31957h-788"/><path d="m42967 31957v-787"/><path d="m43755 26445h-788"/><path d="m42967 26445v788"/><path d="m48479 27233v-788"/><path d="m48479 26445h-787"/><path d="m47692 31957h787"/><path d="m48479 31957v-787"/><path d="m49473 32951h-7500"/><path d="m41973 32951v-7500"/><path d="m41973 25451h7500"/><path d="m49473 25451v7500"/><path d="m28755 31957h-787"/><path d="m27968 31957v-787"/><path d="m28755 26445h-787"/><path d="m27968 26445v788"/><path d="m33479 27233v-788"/><path d="m33479 26445h-787"/><path d="m32692 31957h787"/><path d="m33479 31957v-787"/><path d="m34473 32951h-7500"/><path d="m26973 32951v-7500"/><path d="m26973 25451h7500"/><path d="m34473 25451v7500"/><path d="m21255 31957h-787"/><path d="m20468 31957v-787"/><path d="m21255 26445h-787"/><path d="m20468 26445v788"/><path d="m25979 27233v-788"/><path d="m25979 26445h-787"/><path d="m25192 31957h787"/><path d="m25979 31957v-787"/><path d="m26973 32951h-7500"/><path d="m19473 32951v-7500"/><path d="m19473 25451h7500"/><path d="m26973 25451v7500"/><path d="m6255 31957h-787"/><path d="m5468 31957v-787"/><path d="m6255 26445h-787"/><path d="m5468 26445v788"/><path d="m10979 27233v-788"/><path d="m10979 26445h-787"/><path d="m10192 31957h787"/><path d="m10979 31957v-787"/><path d="m11973 32951h-7500"/><path d="m4473 32951v-7500"/><path d="m4473 25451h7500"/><path d="m11973 25451v7500"/><path d="m43755 24457h-788"/><path d="m42967 24457v-787"/><path d="m43755 18945h-788"/><path d="m42967 18945v788"/><path d="m48479 19733v-788"/><path d="m48479 18945h-787"/><path d="m47692 24457h787"/><path d="m48479 24457v-787"/><path d="m49473 25451h-7500"/><path d="m41973 25451v-7500"/><path d="m41973 17951h7500"/><path d="m49473 17951v7500"/><path d="m36255 24457h-787"/><path d="m35468 24457v-787"/><path d="m36255 18945h-787"/><path d="m35468 18945v788"/><path d="m40979 19733v-788"/><path d="m40979 18945h-787"/><path d="m40192 24457h787"/><path d="m40979 24457v-787"/><path d="m41973 25451h-7500"/><path d="m34473 25451v-7500"/><path d="m34473 17951h7500"/><path d="m41973 17951v7500"/><path d="m28755 24457h-787"/><path d="m27968 24457v-787"/><path d="m28755 18945h-787"/><path d="m27968 18945v788"/><path d="m33479 19733v-788"/><path d="m33479 18945h-787"/><path d="m32692 24457h787"/><path d="m33479 24457v-787"/><path d="m34473 25451h-7500"/><path d="m26973 25451v-7500"/><path d="m26973 17951h7500"/><path d="m34473 17951v7500"/><path d="m21255 24457h-787"/><path d="m20468 24457v-787"/><path d="m21255 18945h-787"/><path d="m20468 18945v788"/><path d="m25979 19733v-788"/><path d="m25979 18945h-787"/><path d="m25192 24457h787"/><path d="m25979 24457v-787"/><path d="m26973 25451h-7500"/><path d="m19473 25451v-7500"/><path d="m19473 17951h7500"/><path d="m26973 17951v7500"/><path d="m13755 24457h-787"/><path d="m12968 24457v-787"/><path d="m13755 18945h-787"/><path d="m12968 18945v788"/><path d="m18479 19733v-788"/><path d="m18479 18945h-787"/><path d="m17692 24457h787"/><path d="m18479 24457v-787"/><path d="m19473 25451h-7500"/><path d="m11973 25451v-7500"/><path d="m11973 17951h7500"/><path d="m19473 17951v7500"/><path d="m6255 24457h-787"/><path d="m5468 24457v-787"/><path d="m6255 18945h-787"/><path d="m5468 18945v788"/><path d="m10979 19733v-788"/><path d="m10979 18945h-787"/><path d="m10192 24457h787"/><path d="m10979 24457v-787"/><path d="m11973 25451h-7500"/><path d="m4473 25451v-7500"/><path d="m4473 17951h7500"/><path d="m11973 17951v7500"/><path d="m43755 16957h-788"/><path d="m42967 16957v-787"/><path d="m43755 11445h-788"/><path d="m42967 11445v788"/><path d="m48479 12233v-788"/><path d="m48479 11445h-787"/><path d="m47692 16957h787"/><path d="m48479 16957v-787"/><path d="m49473 17951h-7500"/><path d="m41973 17951v-7500"/><path d="m41973 10451h7500"/><path d="m49473 10451v7500"/><path d="m36255 16957h-787"/><path d="m35468 16957v-787"/><path d="m36255 11445h-787"/><path d="m35468 11445v788"/><path d="m40979 12233v-788"/><path d="m40979 11445h-787"/><path d="m40192 16957h787"/><path d="m40979 16957v-787"/><path d="m41973 17951h-7500"/><path d="m34473 17951v-7500"/><path d="m34473 10451h7500"/><path d="m41973 10451v7500"/><path d="m28755 16957h-787"/><path d="m27968 16957v-787"/><path d="m28755 11445h-787"/><path d="m27968 11445v788"/><path d="m33479 12233v-788"/><path d="m33479 11445h-787"/><path d="m32692 16957h787"/><path d="m33479 16957v-787"/><path d="m34473 17951h-7500"/><path d="m26973 17951v-7500"/><path d="m26973 10451h7500"/><path d="m34473 10451v7500"/><path d="m21255 16957h-787"/><path d="m20468 16957v-787"/><path d="m21255 11445h-787"/><path d="m20468 11445v788"/><path d="m25979 12233v-788"/><path d="m25979 11445h-787"/><path d="m25192 16957h787"/><path d="m25979 16957v-787"/><path d="m26973 17951h-7500"/><path d="m19473 17951v-7500"/><path d="m19473 10451h7500"/><path d="m26973 10451v7500"/><path d="m13755 16957h-787"/><path d="m12968 16957v-787"/><path d="m13755 11445h-787"/><path d="m12968 11445v788"/><path d="m18479 12233v-788"/><path d="m18479 11445h-787"/><path d="m17692 16957h787"/><path d="m18479 16957v-787"/><path d="m19473 17951h-7500"/><path d="m11973 17951v-7500"/><path d="m11973 10451h7500"/><path d="m19473 10451v7500"/><path d="m6255 16957h-787"/><path d="m5468 16957v-787"/><path d="m6255 11445h-787"/><path d="m5468 11445v788"/><path d="m10979 12233v-788"/><path d="m10979 11445h-787"/><path d="m10192 16957h787"/><path d="m10979 16957v-787"/><path d="m11973 17951h-7500"/><path d="m4473 17951v-7500"/><path d="m4473 10451h7500"/><path d="m11973 10451v7500"/><path d="m43755 9457h-788"/><path d="m42967 9457v-787"/><path d="m43755 3945h-788"/><path d="m42967 3945v788"/><path d="m48479 4733v-788"/><path d="m48479 3945h-787"/><path d="m47692 9457h787"/><path d="m48479 9457v-787"/><path d="m49473 10451h-7500"/><path d="m41973 10451v-7500"/><path d="m41973 2951h7500"/><path d="m49473 2951v7500"/><path d="m28755 9457h-787"/><path d="m27968 9457v-787"/><path d="m28755 3945h-787"/><path d="m27968 3945v788"/><path d="m33479 4733v-788"/><path d="m33479 3945h-787"/><path d="m32692 9457h787"/><path d="m33479 9457v-787"/><path d="m34473 10451h-7500"/><path d="m26973 10451v-7500"/><path d="m26973 2951h7500"/><path d="m34473 2951v7500"/><path d="m21255 9457h-787"/><path d="m20468 9457v-787"/><path d="m21255 3945h-787"/><path d="m20468 3945v788"/><path d="m25979 4733v-788"/><path d="m25979 3945h-787"/><path d="m25192 9457h787"/><path d="m25979 9457v-787"/><path d="m26973 10451h-7500"/><path d="m19473 10451v-7500"/><path d="m19473 2951h7500"/><path d="m26973 2951v7500"/><path d="m13755 9457h-787"/><path d="m12968 9457v-787"/><path d="m13755 3945h-787"/><path d="m12968 3945v788"/><path d="m18479 4733v-788"/><path d="m18479 3945h-787"/><path d="m17692 9457h787"/><path d="m18479 9457v-787"/><path d="m19473 10451h-7500"/><path d="m11973 10451v-7500"/><path d="m11973 2951h7500"/><path d="m19473 2951v7500"/><path d="m6255 9457h-787"/><path d="m5468 9457v-787"/><path d="m6255 3945h-787"/><path d="m5468 3945v788"/><path d="m10979 4733v-788"/><path d="m10979 3945h-787"/><path d="m10192 9457h787"/><path d="m10979 9457v-787"/><path d="m11973 10451h-7500"/><path d="m4473 10451v-7500"/><path d="m4473 2951h7500"/><path d="m11973 2951v7500"/><path d="m39979 5474h3520"/><path d="m43499 2599v2875"/><path d="m39979 2599v2875"/><path d="m39979 2599h3520"/><path d="m7830 32951h787"/></g><g fill="#c2c2c2" stroke="#c2c2c2"><text font-size="524.934" lengthAdjust="spacingAndGlyphs" opacity="0" text-anchor="middle" textLength="901.669" x="38223.9" y="32523.4">MX</text><path d="m37905 32504v-394l131 282 131-282v394"/><path d="m38317 32110 263 394"/><path d="m38580 32110-263 394"/><text font-size="524.934" lengthAdjust="spacingAndGlyphs" opacity="0" text-anchor="middle" textLength="901.669" x="15723.9" y="32523.4">MX</text><path d="m15405 32504v-394l131 282 131-282v394"/><path d="m15817 32110 263 394"/><path d="m16080 32110-263 394"/><text font-size="524.934" lengthAdjust="spacingAndGlyphs" opacity="0" text-anchor="middle" textLength="901.669" x="38223.9" y="10023.4">MX</text><path d="m37905 10004v-394l131 282 131-282v394"/><path d="m38317 9610 263 394"/><path d="m38580 9610-263 394"/><text font-size="524.934" lengthAdjust="spacingAndGlyphs" opacity="0" text-anchor="middle" textLength="901.669" x="11974" y="40023.5">MX</text><path d="m11655 40004v-393l131 281 131-281v393"/><path d="m12067 39611 263 393"/><path d="m12330 39611-263 393"/><text font-size="524.934" lengthAdjust="spacingAndGlyphs" opacity="0" text-anchor="middle" textLength="901.669" x="45723.9" y="40023.4">MX</text><path d="m45405 40004v-394l131 282 131-282v394"/><path d="m45817 39610 263 394"/><path d="m46080 39610-263 394"/><text font-size="524.934" lengthAdjust="spacingAndGlyphs" opacity="0" text-anchor="middle" textLength="901.669" x="38223.9" y="40023.4">MX</text><path d="m37905 40004v-394l131 282 131-282v394"/><path d="m38317 39610 263 394"/><path d="m38580 39610-263 394"/><text font-size="524.934" lengthAdjust="spacingAndGlyphs" opacity="0" text-anchor="middle" textLength="901.669" x="30723.9" y="40023.4">MX</text><path d="m30405 40004v-394l131 282 131-282v394"/><path d="m30817 39610 263 394"/><path d="m31080 39610-263 394"/><text font-size="524.934" lengthAdjust="spacingAndGlyphs" opacity="0" text-anchor="middle" textLength="901.669" x="23223.9" y="40023.4">MX</text><path d="m22905 40004v-394l131 282 131-282v394"/><path d="m23317 39610 263 394"/><path d="m23580 39610-263 394"/><text font-size="524.934" lengthAdjust="spacingAndGlyphs" opacity="0" text-anchor="middle" textLength="901.669" x="15723.9" y="40023.4">MX</text><path d="m15405 40004v-394l131 282 131-282v394"/><path d="m15817 39610 263 394"/><path d="m16080 39610-263 394"/><text font-size="524.934" lengthAdjust="spacingAndGlyphs" opacity="0" text-anchor="middle" textLength="901.669" x="8223.93" y="40023.4">MX</text><path d="m7905 40004v-394l131 282 131-282v394"/><path d="m8317 39610 263 394"/><path d="m8580 39610-263 394"/><text font-size="524.934" lengthAdjust="spacingAndGlyphs" opacity="0" text-anchor="middle" textLength="901.669" x="45723.9" y="32523.4">MX</text><path d="m45405 32504v-394l131 282 131-282v394"/><path d="m45817 32110 263 394"/><path d="m46080 32110-263 394"/><text font-size="524.934" lengthAdjust="spacingAndGlyphs" opacity="0" text-anchor="middle" textLength="901.669" x="30723.9" y="32523.4">MX</text><path d="m30405 32504v-394l131 282 131-282v394"/><path d="m30817 32110 263 394"/><path d="m31080 32110-263 394"/><text font-size="524.934" lengthAdjust="spacingAndGlyphs" opacity="0" text-anchor="middle" textLength="901.669" x="23223.9" y="32523.4">MX</text><path d="m22905 32504v-394l131 282 131-282v394"/><path d="m23317 32110 263 394"/><path d="m23580 32110-263 394"/><text font-size="524.934" lengthAdjust="spacingAndGlyphs" opacity="0" text-anchor="middle" textLength="901.669" x="8223.93" y="32523.4">MX</text><path d="m7905 32504v-394l131 282 131-282v394"/><path d="m8317 32110 263 394"/><path d="m8580 32110-263 394"/><text font-size="524.934" lengthAdjust="spacingAndGlyphs" opacity="0" text-anchor="middle" textLength="901.669" x="45723.9" y="25023.4">MX</text><path d="m45405 25004v-394l131 282 131-282v394"/><path d="m45817 24610 263 394"/><path d="m46080 24610-263 394"/><text font-size="524.934" lengthAdjust="spacingAndGlyphs" opacity="0" text-anchor="middle" textLength="901.669" x="38223.9" y="25023.4">MX</text><path d="m37905 25004v-394l131 282 131-282v394"/><path d="m38317 24610 263 394"/><path d="m38580 24610-263 394"/><text font-size="524.934" lengthAdjust="spacingAndGlyphs" opacity="0" text-anchor="middle" textLength="901.669" x="30723.9" y="25023.4">MX</text><path d="m30405 25004v-394l131 282 131-282v394"/><path d="m30817 24610 263 394"/><path d="m31080 24610-263 394"/><text font-size="524.934" lengthAdjust="spacingAndGlyphs" opacity="0" text-anchor="middle" textLength="901.669" x="23223.9" y="25023.4">MX</text><path d="m22905 25004v-394l131 282 131-282v394"/><path d="m23317 24610 263 394"/><path d="m23580 24610-263 394"/><text font-size="524.934" lengthAdjust="spacingAndGlyphs" opacity="0" text-anchor="middle" textLength="901.669" x="15723.9" y="25023.4">MX</text><path d="m15405 25004v-394l131 282 131-282v394"/><path d="m15817 24610 263 394"/><path d="m16080 24610-263 394"/><text font-size="524.934" lengthAdjust="spacingAndGlyphs" opacity="0" text-anchor="middle" textLength="901.669" x="8223.93" y="25023.4">MX</text><path d="m7905 25004v-394l131 282 131-282v394"/><path d="m8317 24610 263 394"/><path d="m8580 24610-263 394"/><text font-size="524.934" lengthAdjust="spacingAndGlyphs" opacity="0" text-anchor="middle" textLength="901.669" x="45723.9" y="17523.4">MX</text><path d="m45405 17504v-394l131 282 131-282v394"/><path d="m45817 17110 263 394"/><path d="m46080 17110-263 394"/><text font-size="524.934" lengthAdjust="spacingAndGlyphs" opacity="0" text-anchor="middle" textLength="901.669" x="38223.9" y="17523.4">MX</text><path d="m37905 17504v-394l131 282 131-282v394"/><path d="m38317 17110 263 394"/><path d="m38580 17110-263 394"/><text font-size="524.934" lengthAdjust="spacingAndGlyphs" opacity="0" text-anchor="middle" textLength="901.669" x="30723.9" y="17523.4">MX</text><path d="m30405 17504v-394l131 282 131-282v394"/><path d="m30817 17110 263 394"/><path d="m31080 17110-263 394"/><text font-size="524.934" lengthAdjust="spacingAndGlyphs" opacity="0" text-anchor="middle" textLength="901.669" x="23223.9" y="17523.4">MX</text><path d="m22905 17504v-394l131 282 131-282v394"/><path d="m23317 17110 263 394"/><path d="m23580 17110-263 394"/><text font-size="524.934" lengthAdjust="spacingAndGlyphs" opacity="0" text-anchor="middle" textLength="901.669" x="15723.9" y="17523.4">MX</text><path d="m15405 17504v-394l131 282 131-282v394"/><path d="m15817 17110 263 394"/><path d="m16080 17110-263 394"/><text font-size="524.934" lengthAdjust="spacingAndGlyphs" opacity="0" text-anchor="middle" textLength="901.669" x="8223.93" y="17523.4">MX</text><path d="m7905 17504v-394l131 282 131-282v394"/><path d="m8317 17110 263 394"/><path d="m8580 17110-263 394"/><text font-size="524.934" lengthAdjust="spacingAndGlyphs" opacity="0" text-anchor="middle" textLength="901.669" x="45723.9" y="10023.4">MX</text><path d="m45405 10004v-394l131 282 131-282v394"/><path d="m45817 9610 263 394"/><path d="m46080 9610-263 394"/><text font-size="524.934" lengthAdjust="spacingAndGlyphs" opacity="0" text-anchor="middle" textLength="901.669" x="30723.9" y="10023.4">MX</text><path d="m30405 10004v-394l131 282 131-282v394"/><path d="m30817 9610 263 394"/><path d="m31080 9610-263 394"/><text font-size="524.934" lengthAdjust="spacingAndGlyphs" opacity="0" text-anchor="middle" textLength="901.669" x="23223.9" y="10023.4">MX</text><path d="m22905 10004v-394l131 282 131-282v394"/><path d="m23317 9610 263 394"/><path d="m23580 9610-263 394"/><text font-size="524.934" lengthAdjust="spacingAndGlyphs" opacity="0" text-anchor="middle" textLength="901.669" x="15723.9" y="10023.4">MX</text><path d="m15405 10004v-394l131 282 131-282v394"/><path d="m15817 9610 263 394"/><path d="m16080 9610-263 394"/><text font-size="524.934" lengthAdjust="spacingAndGlyphs" opacity="0" text-anchor="middle" textLength="901.669" x="8223.93" y="10023.4">MX</text><path d="m7905 10004v-394l131 282 131-282v394"/><path d="m8317 9610 263 394"/><path d="m8580 9610-263 394"/><text font-size="367.454" lengthAdjust="spacingAndGlyphs" opacity="0" text-anchor="middle" textLength="627.953" x="11974" y="6996.83">U2</text><path d="m11763 6708v223l14 26 13 13 26 13h52l27-13 13-13 13-26v-223"/><path d="m12039 6734 13-13 26-13h66l26 13 13 13 14 26v26l-14 40-157 157h171"/><text font-size="367.454" lengthAdjust="spacingAndGlyphs" opacity="0" text-anchor="middle" textLength="5247.38" x="41739.5" y="2285.04">HRO-TYPE-C-31-M-12</text><path d="m39219 2271v-275"/><path d="m39219 2127h158"/><path d="m39377 2271v-275"/><path d="m39666 2271-92-131"/><path d="m39508 2271v-275h105l26 13 13 13 14 26v40l-14 26-13 13-26 13h-105"/><path d="m39836 1996h53l26 13 26 26 13 53v92l-13 52-26 26-26 13h-53l-26-13-26-26-13-52v-92l13-53 26-26z"/><path d="m40072 2166h210"/><path d="m40374 1996h158"/><path d="m40453 2271v-275"/><path d="m40676 2140v131"/><path d="m40584 1996 92 144 92-144"/><path d="m40860 2271v-275h105l26 13 13 13 13 26v40l-13 26-13 13-26 13h-105"/><path d="m41135 2127h92"/><path d="m41267 2271h-132v-275h132"/><path d="m41385 2166h210"/><path d="m41883 2245-13 13-39 13h-26l-40-13-26-26-13-26-13-53v-39l13-53 13-26 26-26 40-13h26l39 13 13 13"/><path d="m42001 2166h210"/><path d="m42316 1996h171l-92 105h40l26 13 13 13 13 26v66l-13 26-13 13-26 13h-79l-26-13-14-13"/><path d="m42750 2271h-158"/><path d="m42671 2271v-275l-26 39-27 26-26 14"/><path d="m42868 2166h210"/><path d="m43209 2271v-275l92 197 92-197v275"/><path d="m43524 2166h210"/><path d="m44009 2271h-157"/><path d="m43931 2271v-275l-27 39-26 26-26 14"/><path d="m44114 2022 13-13 27-13h65l27 13 13 13 13 26v27l-13 39-158 157h171"/></g><g fill="#000084" stroke="#000084"><circle cx="34473.9" cy="29201.5" r="866.142"/><circle cx="19473.9" cy="29201.5" r="866.142"/><circle cx="41973.9" cy="17951.5" r="866.142"/><circle cx="11973.9" cy="9514.08" r="866.142"/><circle cx="19474" cy="36701.6" r="866.142"/><circle cx="41973.9" cy="36701.5" r="866.142"/></g><g fill="#c2c200" stroke="#c2c200"><path d="m30958 32951h-1641"/><path d="m29317 32482h1641"/><path d="m29317.7 32482.8a234.375 234.375 0 0 0 0 468.7"/><path d="m30958.3 32951.5a234.375 234.375 0 0 0 0-468.7"/><path d="m25567.7 32482.8a234.375 234.375 0 0 0 0 468.7"/><path d="m26739.5 32951.5a234.375 234.375 0 0 0 0-468.7"/><path d="m26739 32482h-1172"/><path d="m25567 32951h1172"/><path d="m10567 1662v1172"/><path d="m13262 2834v-1172"/><path d="m38341 32951h-4922"/><path d="m33419 32482h4922"/><path d="m18887 32951h2110"/><path d="m20997 32482h-2110"/><path d="m20997.4 32951.5a234.375 234.375 0 0 0 0-468.7"/><path d="m14786 32951h-4219"/><path d="m10567 32482h4219"/><path d="m14786.4 32951.5a234.375 234.375 0 0 0 0-468.7"/><path d="m10567.7 32482.8a234.375 234.375 0 0 0 0 468.7"/><path d="m6114.56 32951.5a234.375 234.375 0 0 0 0-468.7"/><path d="m18888 32482.8a234.375 234.375 0 0 0 0 468.7"/><path d="m33419.2 32482.8a234.375 234.375 0 0 0 0 468.7"/><path d="m38341.1 32951.5a234.375 234.375 0 0 0 0-468.7"/><path d="m40802 32951h5156"/><path d="m45958 32482h-5156"/><path d="m40802 32482.8a234.375 234.375 0 0 0 0 468.7"/><path d="m45958.3 32951.5a234.375 234.375 0 0 0 0-468.7"/><path d="m47833.3 32482.8a234.375 234.375 0 0 0 0 468.7"/><path d="m48536 33654v5391"/><path d="m48536.4 33654.7a703.124 703.124 0 0 0 -703.1-703.2"/><path d="m47833.3 32482.8a703.124 703.124 0 0 0 703.1-703.1"/><path d="m5411 33654v5391"/><path d="m6114.56 32951.5a703.124 703.124 0 0 0 -703.12 703.2"/><path d="m5411.44 31779.7a703.124 703.124 0 0 0 703.12 703.1"/><path d="m13614 3185h30000"/><path d="m6114 3185h4102"/><path d="m5411 31779v-27890"/><path d="m47833 39748h-41719"/><path d="m48536 3889v27890"/><path d="m43614 3185h4219"/><path d="m12911 1310h-1992"/><path d="m13262.9 1662.5a351.562 351.562 0 0 0 -351.5-351.56"/><path d="m10919.2 1310.94a351.562 351.562 0 0 0 -351.6 351.56"/><path d="m13262.9 2834.37a351.562 351.562 0 0 0 351.6 351.57"/><path d="m10216.1 3185.94a351.562 351.562 0 0 0 351.5-351.57"/><path d="m6114.56 3185.94a703.124 703.124 0 0 0 -703.12 703.12"/><path d="m48536.4 3889.06a703.124 703.124 0 0 0 -703.1-703.12"/><path d="m5411.44 39045.30000000001a703.124 703.124 0 0 0 703.12 703.1"/><path d="m47833.3 39748.4a703.124 703.124 0 0 0 703.1-703.1"/></g></g></svg>