<?xml version="1.0" standalone="no"?>
 <!DOCTYPE svg PUBLIC "-//W3C//DTD SVG 1.1//EN" 
 "http://www.w3.org/Graphics/SVG/1.1/DTD/svg11.dtd"> 
<svg xmlns="http://www.w3.org/2000/svg" version="1.1" 
    width="12.9565cm" height="10.1168cm" viewBox="0 0 51010 39830">
<title>SVG Picture created as nyquist-left-brd.svg date 2020/06/10 16:41:52 </title>
  <desc>Picture generated by PCBNEW </desc>
<g style="fill:#000000; fill-opacity:1;stroke:#000000; stroke-opacity:1;
stroke-linecap:round; stroke-linejoin:round;"
 transform="translate(0 0) scale(1 1)">
</g>
<g style="fill:#000000; fill-opacity:0.0; 
stroke:#000000; stroke-width:-0.000393701; stroke-opacity:1; 
stroke-linecap:round; stroke-linejoin:round;">
</g>
<g style="fill:#C2C2C2; fill-opacity:0.0; 
stroke:#C2C2C2; stroke-width:-0.000393701; stroke-opacity:1; 
stroke-linecap:round; stroke-linejoin:round;">
</g>
<g style="fill:#C2C2C2; fill-opacity:0.0; 
stroke:#C2C2C2; stroke-width:59.0551; stroke-opacity:1; 
stroke-linecap:round; stroke-linejoin:round;">
<g transform="rotate(-90 49282.8 3878.21)">
<text x="49282.8" y="4075.06"
textLength="3412.07" font-size="524.934" lengthAdjust="spacingAndGlyphs"
text-anchor="middle" opacity="0">13.800 mm</text>
</g>
<g class="stroked-text"><desc>13.800 mm</desc>
<path d="M49460 5284
L49460 5509
" />
<path d="M49460 5396
L49067 5396
L49123 5434
L49160 5471
L49179 5509
" />
<path d="M49067 5153
L49067 4909
L49217 5040
L49217 4984
L49235 4946
L49254 4928
L49292 4909
L49385 4909
L49423 4928
L49442 4946
L49460 4984
L49460 5096
L49442 5134
L49423 5153
" />
<path d="M49423 4740
L49442 4721
L49460 4740
L49442 4759
L49423 4740
L49460 4740
" />
<path d="M49235 4496
L49217 4534
L49198 4553
L49160 4571
L49142 4571
L49104 4553
L49085 4534
L49067 4496
L49067 4421
L49085 4384
L49104 4365
L49142 4346
L49160 4346
L49198 4365
L49217 4384
L49235 4421
L49235 4496
L49254 4534
L49273 4553
L49310 4571
L49385 4571
L49423 4553
L49442 4534
L49460 4496
L49460 4421
L49442 4384
L49423 4365
L49385 4346
L49310 4346
L49273 4365
L49254 4384
L49235 4421
" />
<path d="M49067 4103
L49067 4065
L49085 4028
L49104 4009
L49142 3990
L49217 3971
L49310 3971
L49385 3990
L49423 4009
L49442 4028
L49460 4065
L49460 4103
L49442 4140
L49423 4159
L49385 4178
L49310 4196
L49217 4196
L49142 4178
L49104 4159
L49085 4140
L49067 4103
" />
<path d="M49067 3728
L49067 3690
L49085 3653
L49104 3634
L49142 3615
L49217 3596
L49310 3596
L49385 3615
L49423 3634
L49442 3653
L49460 3690
L49460 3728
L49442 3765
L49423 3784
L49385 3803
L49310 3821
L49217 3821
L49142 3803
L49104 3784
L49085 3765
L49067 3728
" />
<path d="M49460 3128
L49198 3128
" />
<path d="M49235 3128
L49217 3109
L49198 3072
L49198 3015
L49217 2978
L49254 2959
L49460 2959
" />
<path d="M49254 2959
L49217 2940
L49198 2903
L49198 2847
L49217 2809
L49254 2790
L49460 2790
" />
<path d="M49460 2603
L49198 2603
" />
<path d="M49235 2603
L49217 2584
L49198 2547
L49198 2490
L49217 2453
L49254 2434
L49460 2434
" />
<path d="M49254 2434
L49217 2415
L49198 2378
L49198 2322
L49217 2284
L49254 2265
L49460 2265
" />
</g><path d="M48770 6594
L48770 1161
" />
<path d="M44552 6594
L49001 6594
" />
<path d="M44552 1161
L49001 1161
" />
<path d="M48770 1161
L49001 1605
" />
<path d="M48770 1161
L48540 1605
" />
<path d="M48770 6594
L49001 6151
" />
<path d="M48770 6594
L48540 6151
" />
<g transform="rotate(-270 1735.56 20907.7)">
<text x="1735.56" y="21104.5"
textLength="3488.85" font-size="524.934" lengthAdjust="spacingAndGlyphs"
text-anchor="middle" opacity="0">96.143 mm</text>
</g>
<g class="stroked-text"><desc>96.143 mm</desc>
<path d="M1557 19314
L1557 19389
L1576 19426
L1594 19445
L1651 19482
L1726 19501
L1876 19501
L1913 19482
L1932 19464
L1951 19426
L1951 19351
L1932 19314
L1913 19295
L1876 19276
L1782 19276
L1744 19295
L1726 19314
L1707 19351
L1707 19426
L1726 19464
L1744 19482
L1782 19501
" />
<path d="M1951 19839
L1951 19764
L1932 19726
L1913 19707
L1857 19670
L1782 19651
L1632 19651
L1594 19670
L1576 19689
L1557 19726
L1557 19801
L1576 19839
L1594 19857
L1632 19876
L1726 19876
L1763 19857
L1782 19839
L1801 19801
L1801 19726
L1782 19689
L1763 19670
L1726 19651
" />
<path d="M1594 20045
L1576 20064
L1557 20045
L1576 20026
L1594 20045
L1557 20045
" />
<path d="M1557 20438
L1557 20214
" />
<path d="M1557 20326
L1951 20326
L1894 20289
L1857 20251
L1838 20214
" />
<path d="M1819 20776
L1557 20776
" />
<path d="M1969 20682
L1688 20588
L1688 20832
" />
<path d="M1951 20945
L1951 21188
L1801 21057
L1801 21113
L1782 21151
L1763 21170
L1726 21188
L1632 21188
L1594 21170
L1576 21151
L1557 21113
L1557 21001
L1576 20963
L1594 20945
" />
<path d="M1557 21657
L1819 21657
" />
<path d="M1782 21657
L1801 21676
L1819 21713
L1819 21770
L1801 21807
L1763 21826
L1557 21826
" />
<path d="M1763 21826
L1801 21845
L1819 21882
L1819 21938
L1801 21976
L1763 21995
L1557 21995
" />
<path d="M1557 22182
L1819 22182
" />
<path d="M1782 22182
L1801 22201
L1819 22238
L1819 22295
L1801 22332
L1763 22351
L1557 22351
" />
<path d="M1763 22351
L1801 22369
L1819 22407
L1819 22463
L1801 22501
L1763 22519
L1557 22519
" />
</g><path d="M2247 1981
L2247 39833
" />
<path d="M16544 1981
L2016 1981
" />
<path d="M16544 39833
L2016 39833
" />
<path d="M2247 39833
L2016 39389
" />
<path d="M2247 39833
L2478 39389
" />
<path d="M2247 1981
L2016 2425
" />
<path d="M2247 1981
L2478 2425
" />
<text x="25802" y="495.079"
textLength="3863.8" font-size="524.934" lengthAdjust="spacingAndGlyphs"
text-anchor="middle" opacity="0">109.537 mm</text>
<g class="stroked-text"><desc>109.537 mm</desc>
<path d="M24208 476
L23983 476
" />
<path d="M24096 476
L24096 82
L24058 138
L24021 176
L23983 195
" />
<path d="M24452 82
L24489 82
L24527 101
L24545 120
L24564 157
L24583 232
L24583 326
L24564 401
L24545 438
L24527 457
L24489 476
L24452 476
L24414 457
L24395 438
L24377 401
L24358 326
L24358 232
L24377 157
L24395 120
L24414 101
L24452 82
" />
<path d="M24770 476
L24845 476
L24883 457
L24902 438
L24939 382
L24958 307
L24958 157
L24939 120
L24920 101
L24883 82
L24808 82
L24770 101
L24752 120
L24733 157
L24733 251
L24752 288
L24770 307
L24808 326
L24883 326
L24920 307
L24939 288
L24958 251
" />
<path d="M25127 438
L25145 457
L25127 476
L25108 457
L25127 438
L25127 476
" />
<path d="M25502 82
L25314 82
L25295 270
L25314 251
L25352 232
L25445 232
L25483 251
L25502 270
L25520 307
L25520 401
L25502 438
L25483 457
L25445 476
L25352 476
L25314 457
L25295 438
" />
<path d="M25652 82
L25895 82
L25764 232
L25820 232
L25858 251
L25877 270
L25895 307
L25895 401
L25877 438
L25858 457
L25820 476
L25708 476
L25670 457
L25652 438
" />
<path d="M26027 82
L26289 82
L26120 476
" />
<path d="M26739 476
L26739 213
" />
<path d="M26739 251
L26758 232
L26795 213
L26851 213
L26889 232
L26908 270
L26908 476
" />
<path d="M26908 270
L26926 232
L26964 213
L27020 213
L27058 232
L27076 270
L27076 476
" />
<path d="M27264 476
L27264 213
" />
<path d="M27264 251
L27283 232
L27320 213
L27376 213
L27414 232
L27433 270
L27433 476
" />
<path d="M27433 270
L27451 232
L27489 213
L27545 213
L27583 232
L27601 270
L27601 476
" />
</g><path d="M4239 810
L47364 810
" />
<path d="M4239 3856
L4239 579
" />
<path d="M47364 3856
L47364 579
" />
<path d="M47364 810
L46921 1040
" />
<path d="M47364 810
L46921 579
" />
<path d="M4239 810
L4683 1040
" />
<path d="M4239 810
L4683 579
" />
<path d="M42869 32802
L43656 32802
" />
<path d="M43338 32802
L44125 32802
" />
<path d="M36892 32802
L37680 32802
" />
<path d="M37361 32802
L38148 32802
" />
<path d="M38064 32802
L38851 32802
" />
<path d="M38533 32802
L39320 32802
" />
<path d="M30330 32802
L31117 32802
" />
<path d="M31033 32802
L31820 32802
" />
<path d="M31502 32802
L32289 32802
" />
<path d="M29861 32802
L30648 32802
" />
<path d="M24002 32802
L24789 32802
" />
<path d="M22361 32802
L23148 32802
" />
<path d="M22830 32802
L23617 32802
" />
<path d="M23533 32802
L24320 32802
" />
<path d="M15916 32802
L16703 32802
" />
<path d="M16384 32802
L17172 32802
" />
<path d="M14978 32802
L15766 32802
" />
<path d="M14509 32802
L15297 32802
" />
<path d="M8767 32802
L9555 32802
" />
<path d="M8298 32802
L9086 32802
" />
<path d="M5252 32802
L6039 32802
" />
<path d="M5720 32802
L6508 32802
" />
<path d="M6189 32802
L6977 32802
" />
<path d="M6658 32802
L7445 32802
" />
<path d="M38833 39308
L38046 39308
" />
<path d="M38046 39308
L38046 38520
" />
<path d="M38833 33796
L38046 33796
" />
<path d="M38046 33796
L38046 34583
" />
<path d="M43557 34583
L43557 33796
" />
<path d="M43557 33796
L42770 33796
" />
<path d="M42770 39308
L43557 39308
" />
<path d="M43557 39308
L43557 38520
" />
<path d="M48302 40302
L33302 40302
" />
<path d="M33302 40302
L33302 32802
" />
<path d="M33302 32802
L48302 32802
" />
<path d="M48302 32802
L48302 40302
" />
<path d="M42583 39308
L41796 39308
" />
<path d="M41796 39308
L41796 38520
" />
<path d="M42583 33796
L41796 33796
" />
<path d="M41796 33796
L41796 34583
" />
<path d="M47307 34583
L47307 33796
" />
<path d="M47307 33796
L46520 33796
" />
<path d="M46520 39308
L47307 39308
" />
<path d="M47307 39308
L47307 38520
" />
<path d="M48302 40302
L40802 40302
" />
<path d="M40802 40302
L40802 32802
" />
<path d="M40802 32802
L48302 32802
" />
<path d="M48302 32802
L48302 40302
" />
<path d="M35083 39308
L34296 39308
" />
<path d="M34296 39308
L34296 38520
" />
<path d="M35083 33796
L34296 33796
" />
<path d="M34296 33796
L34296 34583
" />
<path d="M39807 34583
L39807 33796
" />
<path d="M39807 33796
L39020 33796
" />
<path d="M39020 39308
L39807 39308
" />
<path d="M39807 39308
L39807 38520
" />
<path d="M40802 40302
L33302 40302
" />
<path d="M33302 40302
L33302 32802
" />
<path d="M33302 32802
L40802 32802
" />
<path d="M40802 32802
L40802 40302
" />
<path d="M27583 39308
L26796 39308
" />
<path d="M26796 39308
L26796 38520
" />
<path d="M27583 33796
L26796 33796
" />
<path d="M26796 33796
L26796 34583
" />
<path d="M32307 34583
L32307 33796
" />
<path d="M32307 33796
L31520 33796
" />
<path d="M31520 39308
L32307 39308
" />
<path d="M32307 39308
L32307 38520
" />
<path d="M33302 40302
L25802 40302
" />
<path d="M25802 40302
L25802 32802
" />
<path d="M25802 32802
L33302 32802
" />
<path d="M33302 32802
L33302 40302
" />
<path d="M20083 39308
L19296 39308
" />
<path d="M19296 39308
L19296 38520
" />
<path d="M20083 33796
L19296 33796
" />
<path d="M19296 33796
L19296 34583
" />
<path d="M24807 34583
L24807 33796
" />
<path d="M24807 33796
L24020 33796
" />
<path d="M24020 39308
L24807 39308
" />
<path d="M24807 39308
L24807 38520
" />
<path d="M25802 40302
L18302 40302
" />
<path d="M18302 40302
L18302 32802
" />
<path d="M18302 32802
L25802 32802
" />
<path d="M25802 32802
L25802 40302
" />
<path d="M12583 39308
L11796 39308
" />
<path d="M11796 39308
L11796 38520
" />
<path d="M12583 33796
L11796 33796
" />
<path d="M11796 33796
L11796 34583
" />
<path d="M17307 34583
L17307 33796
" />
<path d="M17307 33796
L16520 33796
" />
<path d="M16520 39308
L17307 39308
" />
<path d="M17307 39308
L17307 38520
" />
<path d="M18302 40302
L10802 40302
" />
<path d="M10802 40302
L10802 32802
" />
<path d="M10802 32802
L18302 32802
" />
<path d="M18302 32802
L18302 40302
" />
<path d="M5083 39308
L4296 39308
" />
<path d="M4296 39308
L4296 38520
" />
<path d="M5083 33796
L4296 33796
" />
<path d="M4296 33796
L4296 34583
" />
<path d="M9807 34583
L9807 33796
" />
<path d="M9807 33796
L9020 33796
" />
<path d="M9020 39308
L9807 39308
" />
<path d="M9807 39308
L9807 38520
" />
<path d="M10802 40302
L3302 40302
" />
<path d="M3302 40302
L3302 32802
" />
<path d="M3302 32802
L10802 32802
" />
<path d="M10802 32802
L10802 40302
" />
<path d="M42583 31808
L41796 31808
" />
<path d="M41796 31808
L41796 31020
" />
<path d="M42583 26296
L41796 26296
" />
<path d="M41796 26296
L41796 27083
" />
<path d="M47307 27083
L47307 26296
" />
<path d="M47307 26296
L46520 26296
" />
<path d="M46520 31808
L47307 31808
" />
<path d="M47307 31808
L47307 31020
" />
<path d="M48302 32802
L40802 32802
" />
<path d="M40802 32802
L40802 25302
" />
<path d="M40802 25302
L48302 25302
" />
<path d="M48302 25302
L48302 32802
" />
<path d="M35083 31808
L34296 31808
" />
<path d="M34296 31808
L34296 31020
" />
<path d="M35083 26296
L34296 26296
" />
<path d="M34296 26296
L34296 27083
" />
<path d="M39807 27083
L39807 26296
" />
<path d="M39807 26296
L39020 26296
" />
<path d="M39020 31808
L39807 31808
" />
<path d="M39807 31808
L39807 31020
" />
<path d="M40802 32802
L33302 32802
" />
<path d="M33302 32802
L33302 25302
" />
<path d="M33302 25302
L40802 25302
" />
<path d="M40802 25302
L40802 32802
" />
<path d="M27583 31808
L26796 31808
" />
<path d="M26796 31808
L26796 31020
" />
<path d="M27583 26296
L26796 26296
" />
<path d="M26796 26296
L26796 27083
" />
<path d="M32307 27083
L32307 26296
" />
<path d="M32307 26296
L31520 26296
" />
<path d="M31520 31808
L32307 31808
" />
<path d="M32307 31808
L32307 31020
" />
<path d="M33302 32802
L25802 32802
" />
<path d="M25802 32802
L25802 25302
" />
<path d="M25802 25302
L33302 25302
" />
<path d="M33302 25302
L33302 32802
" />
<path d="M20083 31808
L19296 31808
" />
<path d="M19296 31808
L19296 31020
" />
<path d="M20083 26296
L19296 26296
" />
<path d="M19296 26296
L19296 27083
" />
<path d="M24807 27083
L24807 26296
" />
<path d="M24807 26296
L24020 26296
" />
<path d="M24020 31808
L24807 31808
" />
<path d="M24807 31808
L24807 31020
" />
<path d="M25802 32802
L18302 32802
" />
<path d="M18302 32802
L18302 25302
" />
<path d="M18302 25302
L25802 25302
" />
<path d="M25802 25302
L25802 32802
" />
<path d="M12583 31808
L11796 31808
" />
<path d="M11796 31808
L11796 31020
" />
<path d="M12583 26296
L11796 26296
" />
<path d="M11796 26296
L11796 27083
" />
<path d="M17307 27083
L17307 26296
" />
<path d="M17307 26296
L16520 26296
" />
<path d="M16520 31808
L17307 31808
" />
<path d="M17307 31808
L17307 31020
" />
<path d="M18302 32802
L10802 32802
" />
<path d="M10802 32802
L10802 25302
" />
<path d="M10802 25302
L18302 25302
" />
<path d="M18302 25302
L18302 32802
" />
<path d="M5083 31808
L4296 31808
" />
<path d="M4296 31808
L4296 31020
" />
<path d="M5083 26296
L4296 26296
" />
<path d="M4296 26296
L4296 27083
" />
<path d="M9807 27083
L9807 26296
" />
<path d="M9807 26296
L9020 26296
" />
<path d="M9020 31808
L9807 31808
" />
<path d="M9807 31808
L9807 31020
" />
<path d="M10802 32802
L3302 32802
" />
<path d="M3302 32802
L3302 25302
" />
<path d="M3302 25302
L10802 25302
" />
<path d="M10802 25302
L10802 32802
" />
<path d="M42583 24308
L41796 24308
" />
<path d="M41796 24308
L41796 23520
" />
<path d="M42583 18796
L41796 18796
" />
<path d="M41796 18796
L41796 19583
" />
<path d="M47307 19583
L47307 18796
" />
<path d="M47307 18796
L46520 18796
" />
<path d="M46520 24308
L47307 24308
" />
<path d="M47307 24308
L47307 23520
" />
<path d="M48302 25302
L40802 25302
" />
<path d="M40802 25302
L40802 17802
" />
<path d="M40802 17802
L48302 17802
" />
<path d="M48302 17802
L48302 25302
" />
<path d="M35083 24308
L34296 24308
" />
<path d="M34296 24308
L34296 23520
" />
<path d="M35083 18796
L34296 18796
" />
<path d="M34296 18796
L34296 19583
" />
<path d="M39807 19583
L39807 18796
" />
<path d="M39807 18796
L39020 18796
" />
<path d="M39020 24308
L39807 24308
" />
<path d="M39807 24308
L39807 23520
" />
<path d="M40802 25302
L33302 25302
" />
<path d="M33302 25302
L33302 17802
" />
<path d="M33302 17802
L40802 17802
" />
<path d="M40802 17802
L40802 25302
" />
<path d="M27583 24308
L26796 24308
" />
<path d="M26796 24308
L26796 23520
" />
<path d="M27583 18796
L26796 18796
" />
<path d="M26796 18796
L26796 19583
" />
<path d="M32307 19583
L32307 18796
" />
<path d="M32307 18796
L31520 18796
" />
<path d="M31520 24308
L32307 24308
" />
<path d="M32307 24308
L32307 23520
" />
<path d="M33302 25302
L25802 25302
" />
<path d="M25802 25302
L25802 17802
" />
<path d="M25802 17802
L33302 17802
" />
<path d="M33302 17802
L33302 25302
" />
<path d="M20083 24308
L19296 24308
" />
<path d="M19296 24308
L19296 23520
" />
<path d="M20083 18796
L19296 18796
" />
<path d="M19296 18796
L19296 19583
" />
<path d="M24807 19583
L24807 18796
" />
<path d="M24807 18796
L24020 18796
" />
<path d="M24020 24308
L24807 24308
" />
<path d="M24807 24308
L24807 23520
" />
<path d="M25802 25302
L18302 25302
" />
<path d="M18302 25302
L18302 17802
" />
<path d="M18302 17802
L25802 17802
" />
<path d="M25802 17802
L25802 25302
" />
<path d="M12583 24308
L11796 24308
" />
<path d="M11796 24308
L11796 23520
" />
<path d="M12583 18796
L11796 18796
" />
<path d="M11796 18796
L11796 19583
" />
<path d="M17307 19583
L17307 18796
" />
<path d="M17307 18796
L16520 18796
" />
<path d="M16520 24308
L17307 24308
" />
<path d="M17307 24308
L17307 23520
" />
<path d="M18302 25302
L10802 25302
" />
<path d="M10802 25302
L10802 17802
" />
<path d="M10802 17802
L18302 17802
" />
<path d="M18302 17802
L18302 25302
" />
<path d="M5083 24308
L4296 24308
" />
<path d="M4296 24308
L4296 23520
" />
<path d="M5083 18796
L4296 18796
" />
<path d="M4296 18796
L4296 19583
" />
<path d="M9807 19583
L9807 18796
" />
<path d="M9807 18796
L9020 18796
" />
<path d="M9020 24308
L9807 24308
" />
<path d="M9807 24308
L9807 23520
" />
<path d="M10802 25302
L3302 25302
" />
<path d="M3302 25302
L3302 17802
" />
<path d="M3302 17802
L10802 17802
" />
<path d="M10802 17802
L10802 25302
" />
<path d="M42583 16808
L41796 16808
" />
<path d="M41796 16808
L41796 16020
" />
<path d="M42583 11296
L41796 11296
" />
<path d="M41796 11296
L41796 12083
" />
<path d="M47307 12083
L47307 11296
" />
<path d="M47307 11296
L46520 11296
" />
<path d="M46520 16808
L47307 16808
" />
<path d="M47307 16808
L47307 16020
" />
<path d="M48302 17802
L40802 17802
" />
<path d="M40802 17802
L40802 10302
" />
<path d="M40802 10302
L48302 10302
" />
<path d="M48302 10302
L48302 17802
" />
<path d="M35083 16808
L34296 16808
" />
<path d="M34296 16808
L34296 16020
" />
<path d="M35083 11296
L34296 11296
" />
<path d="M34296 11296
L34296 12083
" />
<path d="M39807 12083
L39807 11296
" />
<path d="M39807 11296
L39020 11296
" />
<path d="M39020 16808
L39807 16808
" />
<path d="M39807 16808
L39807 16020
" />
<path d="M40802 17802
L33302 17802
" />
<path d="M33302 17802
L33302 10302
" />
<path d="M33302 10302
L40802 10302
" />
<path d="M40802 10302
L40802 17802
" />
<path d="M27583 16808
L26796 16808
" />
<path d="M26796 16808
L26796 16020
" />
<path d="M27583 11296
L26796 11296
" />
<path d="M26796 11296
L26796 12083
" />
<path d="M32307 12083
L32307 11296
" />
<path d="M32307 11296
L31520 11296
" />
<path d="M31520 16808
L32307 16808
" />
<path d="M32307 16808
L32307 16020
" />
<path d="M33302 17802
L25802 17802
" />
<path d="M25802 17802
L25802 10302
" />
<path d="M25802 10302
L33302 10302
" />
<path d="M33302 10302
L33302 17802
" />
<path d="M20083 16808
L19296 16808
" />
<path d="M19296 16808
L19296 16020
" />
<path d="M20083 11296
L19296 11296
" />
<path d="M19296 11296
L19296 12083
" />
<path d="M24807 12083
L24807 11296
" />
<path d="M24807 11296
L24020 11296
" />
<path d="M24020 16808
L24807 16808
" />
<path d="M24807 16808
L24807 16020
" />
<path d="M25802 17802
L18302 17802
" />
<path d="M18302 17802
L18302 10302
" />
<path d="M18302 10302
L25802 10302
" />
<path d="M25802 10302
L25802 17802
" />
<path d="M12583 16808
L11796 16808
" />
<path d="M11796 16808
L11796 16020
" />
<path d="M12583 11296
L11796 11296
" />
<path d="M11796 11296
L11796 12083
" />
<path d="M17307 12083
L17307 11296
" />
<path d="M17307 11296
L16520 11296
" />
<path d="M16520 16808
L17307 16808
" />
<path d="M17307 16808
L17307 16020
" />
<path d="M18302 17802
L10802 17802
" />
<path d="M10802 17802
L10802 10302
" />
<path d="M10802 10302
L18302 10302
" />
<path d="M18302 10302
L18302 17802
" />
<path d="M5083 16808
L4296 16808
" />
<path d="M4296 16808
L4296 16020
" />
<path d="M5083 11296
L4296 11296
" />
<path d="M4296 11296
L4296 12083
" />
<path d="M9807 12083
L9807 11296
" />
<path d="M9807 11296
L9020 11296
" />
<path d="M9020 16808
L9807 16808
" />
<path d="M9807 16808
L9807 16020
" />
<path d="M10802 17802
L3302 17802
" />
<path d="M3302 17802
L3302 10302
" />
<path d="M3302 10302
L10802 10302
" />
<path d="M10802 10302
L10802 17802
" />
<path d="M42583 9308
L41796 9308
" />
<path d="M41796 9308
L41796 8520
" />
<path d="M42583 3796
L41796 3796
" />
<path d="M41796 3796
L41796 4583
" />
<path d="M47307 4583
L47307 3796
" />
<path d="M47307 3796
L46520 3796
" />
<path d="M46520 9308
L47307 9308
" />
<path d="M47307 9308
L47307 8520
" />
<path d="M48302 10302
L40802 10302
" />
<path d="M40802 10302
L40802 2802
" />
<path d="M40802 2802
L48302 2802
" />
<path d="M48302 2802
L48302 10302
" />
<path d="M35083 9308
L34296 9308
" />
<path d="M34296 9308
L34296 8520
" />
<path d="M35083 3796
L34296 3796
" />
<path d="M34296 3796
L34296 4583
" />
<path d="M39807 4583
L39807 3796
" />
<path d="M39807 3796
L39020 3796
" />
<path d="M39020 9308
L39807 9308
" />
<path d="M39807 9308
L39807 8520
" />
<path d="M40802 10302
L33302 10302
" />
<path d="M33302 10302
L33302 2802
" />
<path d="M33302 2802
L40802 2802
" />
<path d="M40802 2802
L40802 10302
" />
<path d="M27583 9308
L26796 9308
" />
<path d="M26796 9308
L26796 8520
" />
<path d="M27583 3796
L26796 3796
" />
<path d="M26796 3796
L26796 4583
" />
<path d="M32307 4583
L32307 3796
" />
<path d="M32307 3796
L31520 3796
" />
<path d="M31520 9308
L32307 9308
" />
<path d="M32307 9308
L32307 8520
" />
<path d="M33302 10302
L25802 10302
" />
<path d="M25802 10302
L25802 2802
" />
<path d="M25802 2802
L33302 2802
" />
<path d="M33302 2802
L33302 10302
" />
<path d="M20083 9308
L19296 9308
" />
<path d="M19296 9308
L19296 8520
" />
<path d="M20083 3796
L19296 3796
" />
<path d="M19296 3796
L19296 4583
" />
<path d="M24807 4583
L24807 3796
" />
<path d="M24807 3796
L24020 3796
" />
<path d="M24020 9308
L24807 9308
" />
<path d="M24807 9308
L24807 8520
" />
<path d="M25802 10302
L18302 10302
" />
<path d="M18302 10302
L18302 2802
" />
<path d="M18302 2802
L25802 2802
" />
<path d="M25802 2802
L25802 10302
" />
<path d="M12583 9308
L11796 9308
" />
<path d="M11796 9308
L11796 8520
" />
<path d="M12583 3796
L11796 3796
" />
<path d="M11796 3796
L11796 4583
" />
<path d="M17307 4583
L17307 3796
" />
<path d="M17307 3796
L16520 3796
" />
<path d="M16520 9308
L17307 9308
" />
<path d="M17307 9308
L17307 8520
" />
<path d="M18302 10302
L10802 10302
" />
<path d="M10802 10302
L10802 2802
" />
<path d="M10802 2802
L18302 2802
" />
<path d="M18302 2802
L18302 10302
" />
<path d="M5083 9308
L4296 9308
" />
<path d="M4296 9308
L4296 8520
" />
<path d="M5083 3796
L4296 3796
" />
<path d="M4296 3796
L4296 4583
" />
<path d="M9807 4583
L9807 3796
" />
<path d="M9807 3796
L9020 3796
" />
<path d="M9020 9308
L9807 9308
" />
<path d="M9807 9308
L9807 8520
" />
<path d="M10802 10302
L3302 10302
" />
<path d="M3302 10302
L3302 2802
" />
<path d="M3302 2802
L10802 2802
" />
<path d="M10802 2802
L10802 10302
" />
<path d="M16542 4035
L20061 4035
" />
<path d="M20061 1161
L20061 4035
" />
<path d="M16542 1161
L16542 4035
" />
<path d="M16542 1161
L20061 1161
" />
<path d="M7127 32802
L7914 32802
" />
<g >
</g>
<g >
</g>
<g >
</g>
<g >
</g>
<g >
</g>
<g >
</g>
<g >
</g>
<g >
</g>
<g >
</g>
<g >
</g>
<g >
</g>
<g >
</g>
<g >
</g>
<g >
</g>
<g >
</g>
<g >
</g>
<g >
</g>
<g >
</g>
<g >
</g>
<g >
</g>
<g >
</g>
<g >
</g>
<g >
</g>
<g >
</g>
<g >
</g>
<g >
</g>
<g >
</g>
<g >
</g>
<g >
</g>
<g >
</g>
<g >
</g>
<g >
</g>
<g >
</g>
<g >
</g>
<g >
</g>
<g >
</g>
<g >
</g>
<g >
</g>
<g >
</g>
<g >
</g>
<g >
</g>
<g >
</g>
<g >
</g>
<g >
</g>
<g >
</g>
<g >
</g>
<g >
</g>
<g >
</g>
<g >
</g>
<g >
</g>
<g >
</g>
<g >
</g>
<g >
</g>
<g >
</g>
<g >
</g>
<g >
</g>
<g >
</g>
<g >
</g>
<g >
</g>
<g >
</g>
<g >
</g>
<g >
</g>
<g >
</g>
<g >
</g>
<g >
</g>
<g >
</g>
<g >
</g>
<g >
</g>
<g >
</g>
<g >
</g>
<g >
</g>
<g >
</g>
<g >
</g>
<g >
</g>
<g >
</g>
<g >
</g>
<g >
</g>
<g >
</g>
<g >
</g>
<g >
</g>
<g >
</g>
<g >
</g>
<g >
</g>
<g >
</g>
<g >
</g>
<g >
</g>
<g >
</g>
<g >
</g>
<g >
</g>
<g >
</g>
<g >
</g>
<g >
</g>
<g >
</g>
<g >
</g>
<g >
</g>
<g >
</g>
<g >
</g>
<g >
</g>
<g >
</g>
<g >
</g>
<g >
</g>
<g >
</g>
<g >
</g>
<g >
</g>
<g >
</g>
<g >
</g>
<g >
</g>
<g >
</g>
<g >
</g>
<g >
</g>
<g >
</g>
<g >
</g>
<g >
</g>
<g >
</g>
<g >
</g>
<g >
</g>
<g >
</g>
<g >
</g>
<g >
</g>
<g >
</g>
<g >
</g>
<g >
</g>
<g >
</g>
<g >
</g>
<g >
</g>
<g >
</g>
<g >
</g>
<g >
</g>
<g >
</g>
<g >
</g>
<g >
</g>
<g >
</g>
<g >
</g>
<g >
</g>
<g >
</g>
<g >
</g>
<g >
</g>
<g >
</g>
<g >
</g>
<g >
</g>
<g >
</g>
<g >
</g>
<g >
</g>
<g >
</g>
<g >
</g>
<g >
</g>
<g >
</g>
</g>
<g style="fill:#C2C2C2; fill-opacity:0.0; 
stroke:#C2C2C2; stroke-width:59.0551; stroke-opacity:1; 
stroke-linecap:round; stroke-linejoin:round;">
<text x="40802" y="39874"
textLength="901.669" font-size="524.934" lengthAdjust="spacingAndGlyphs"
text-anchor="middle" opacity="0">MX</text>
<g class="stroked-text"><desc>MX</desc>
<path d="M40483 39855
L40483 39461
L40614 39742
L40745 39461
L40745 39855
" />
<path d="M40895 39461
L41158 39855
" />
<path d="M41158 39461
L40895 39855
" />
</g><text x="44552" y="39874"
textLength="901.669" font-size="524.934" lengthAdjust="spacingAndGlyphs"
text-anchor="middle" opacity="0">MX</text>
<g class="stroked-text"><desc>MX</desc>
<path d="M44233 39855
L44233 39461
L44364 39742
L44495 39461
L44495 39855
" />
<path d="M44645 39461
L44908 39855
" />
<path d="M44908 39461
L44645 39855
" />
</g><text x="37052" y="39874"
textLength="901.669" font-size="524.934" lengthAdjust="spacingAndGlyphs"
text-anchor="middle" opacity="0">MX</text>
<g class="stroked-text"><desc>MX</desc>
<path d="M36733 39855
L36733 39461
L36864 39742
L36995 39461
L36995 39855
" />
<path d="M37145 39461
L37408 39855
" />
<path d="M37408 39461
L37145 39855
" />
</g><text x="29552" y="39874"
textLength="901.669" font-size="524.934" lengthAdjust="spacingAndGlyphs"
text-anchor="middle" opacity="0">MX</text>
<g class="stroked-text"><desc>MX</desc>
<path d="M29233 39855
L29233 39461
L29364 39742
L29495 39461
L29495 39855
" />
<path d="M29645 39461
L29908 39855
" />
<path d="M29908 39461
L29645 39855
" />
</g><text x="22052" y="39874"
textLength="901.669" font-size="524.934" lengthAdjust="spacingAndGlyphs"
text-anchor="middle" opacity="0">MX</text>
<g class="stroked-text"><desc>MX</desc>
<path d="M21733 39855
L21733 39461
L21864 39742
L21995 39461
L21995 39855
" />
<path d="M22145 39461
L22408 39855
" />
<path d="M22408 39461
L22145 39855
" />
</g><text x="14552.1" y="39874"
textLength="901.669" font-size="524.934" lengthAdjust="spacingAndGlyphs"
text-anchor="middle" opacity="0">MX</text>
<g class="stroked-text"><desc>MX</desc>
<path d="M14233 39855
L14233 39461
L14364 39742
L14495 39461
L14495 39855
" />
<path d="M14645 39461
L14908 39855
" />
<path d="M14908 39461
L14645 39855
" />
</g><text x="7052.06" y="39874"
textLength="901.669" font-size="524.934" lengthAdjust="spacingAndGlyphs"
text-anchor="middle" opacity="0">MX</text>
<g class="stroked-text"><desc>MX</desc>
<path d="M6733 39855
L6733 39461
L6864 39742
L6995 39461
L6995 39855
" />
<path d="M7145 39461
L7408 39855
" />
<path d="M7408 39461
L7145 39855
" />
</g><text x="44552" y="32374.1"
textLength="901.669" font-size="524.934" lengthAdjust="spacingAndGlyphs"
text-anchor="middle" opacity="0">MX</text>
<g class="stroked-text"><desc>MX</desc>
<path d="M44233 32355
L44233 31961
L44364 32242
L44495 31961
L44495 32355
" />
<path d="M44645 31961
L44908 32355
" />
<path d="M44908 31961
L44645 32355
" />
</g><text x="37052" y="32374.1"
textLength="901.669" font-size="524.934" lengthAdjust="spacingAndGlyphs"
text-anchor="middle" opacity="0">MX</text>
<g class="stroked-text"><desc>MX</desc>
<path d="M36733 32355
L36733 31961
L36864 32242
L36995 31961
L36995 32355
" />
<path d="M37145 31961
L37408 32355
" />
<path d="M37408 31961
L37145 32355
" />
</g><text x="29552" y="32374.1"
textLength="901.669" font-size="524.934" lengthAdjust="spacingAndGlyphs"
text-anchor="middle" opacity="0">MX</text>
<g class="stroked-text"><desc>MX</desc>
<path d="M29233 32355
L29233 31961
L29364 32242
L29495 31961
L29495 32355
" />
<path d="M29645 31961
L29908 32355
" />
<path d="M29908 31961
L29645 32355
" />
</g><text x="22052" y="32374.1"
textLength="901.669" font-size="524.934" lengthAdjust="spacingAndGlyphs"
text-anchor="middle" opacity="0">MX</text>
<g class="stroked-text"><desc>MX</desc>
<path d="M21733 32355
L21733 31961
L21864 32242
L21995 31961
L21995 32355
" />
<path d="M22145 31961
L22408 32355
" />
<path d="M22408 31961
L22145 32355
" />
</g><text x="14552.1" y="32374.1"
textLength="901.669" font-size="524.934" lengthAdjust="spacingAndGlyphs"
text-anchor="middle" opacity="0">MX</text>
<g class="stroked-text"><desc>MX</desc>
<path d="M14233 32355
L14233 31961
L14364 32242
L14495 31961
L14495 32355
" />
<path d="M14645 31961
L14908 32355
" />
<path d="M14908 31961
L14645 32355
" />
</g><text x="7052.06" y="32374.1"
textLength="901.669" font-size="524.934" lengthAdjust="spacingAndGlyphs"
text-anchor="middle" opacity="0">MX</text>
<g class="stroked-text"><desc>MX</desc>
<path d="M6733 32355
L6733 31961
L6864 32242
L6995 31961
L6995 32355
" />
<path d="M7145 31961
L7408 32355
" />
<path d="M7408 31961
L7145 32355
" />
</g><text x="44552" y="24874.1"
textLength="901.669" font-size="524.934" lengthAdjust="spacingAndGlyphs"
text-anchor="middle" opacity="0">MX</text>
<g class="stroked-text"><desc>MX</desc>
<path d="M44233 24855
L44233 24461
L44364 24742
L44495 24461
L44495 24855
" />
<path d="M44645 24461
L44908 24855
" />
<path d="M44908 24461
L44645 24855
" />
</g><text x="37052" y="24874.1"
textLength="901.669" font-size="524.934" lengthAdjust="spacingAndGlyphs"
text-anchor="middle" opacity="0">MX</text>
<g class="stroked-text"><desc>MX</desc>
<path d="M36733 24855
L36733 24461
L36864 24742
L36995 24461
L36995 24855
" />
<path d="M37145 24461
L37408 24855
" />
<path d="M37408 24461
L37145 24855
" />
</g><text x="29552" y="24874.1"
textLength="901.669" font-size="524.934" lengthAdjust="spacingAndGlyphs"
text-anchor="middle" opacity="0">MX</text>
<g class="stroked-text"><desc>MX</desc>
<path d="M29233 24855
L29233 24461
L29364 24742
L29495 24461
L29495 24855
" />
<path d="M29645 24461
L29908 24855
" />
<path d="M29908 24461
L29645 24855
" />
</g><text x="22052" y="24874.1"
textLength="901.669" font-size="524.934" lengthAdjust="spacingAndGlyphs"
text-anchor="middle" opacity="0">MX</text>
<g class="stroked-text"><desc>MX</desc>
<path d="M21733 24855
L21733 24461
L21864 24742
L21995 24461
L21995 24855
" />
<path d="M22145 24461
L22408 24855
" />
<path d="M22408 24461
L22145 24855
" />
</g><text x="14552.1" y="24874.1"
textLength="901.669" font-size="524.934" lengthAdjust="spacingAndGlyphs"
text-anchor="middle" opacity="0">MX</text>
<g class="stroked-text"><desc>MX</desc>
<path d="M14233 24855
L14233 24461
L14364 24742
L14495 24461
L14495 24855
" />
<path d="M14645 24461
L14908 24855
" />
<path d="M14908 24461
L14645 24855
" />
</g><text x="7052.06" y="24874.1"
textLength="901.669" font-size="524.934" lengthAdjust="spacingAndGlyphs"
text-anchor="middle" opacity="0">MX</text>
<g class="stroked-text"><desc>MX</desc>
<path d="M6733 24855
L6733 24461
L6864 24742
L6995 24461
L6995 24855
" />
<path d="M7145 24461
L7408 24855
" />
<path d="M7408 24461
L7145 24855
" />
</g><text x="44552" y="17374.1"
textLength="901.669" font-size="524.934" lengthAdjust="spacingAndGlyphs"
text-anchor="middle" opacity="0">MX</text>
<g class="stroked-text"><desc>MX</desc>
<path d="M44233 17355
L44233 16961
L44364 17242
L44495 16961
L44495 17355
" />
<path d="M44645 16961
L44908 17355
" />
<path d="M44908 16961
L44645 17355
" />
</g><text x="37052" y="17374.1"
textLength="901.669" font-size="524.934" lengthAdjust="spacingAndGlyphs"
text-anchor="middle" opacity="0">MX</text>
<g class="stroked-text"><desc>MX</desc>
<path d="M36733 17355
L36733 16961
L36864 17242
L36995 16961
L36995 17355
" />
<path d="M37145 16961
L37408 17355
" />
<path d="M37408 16961
L37145 17355
" />
</g><text x="29552" y="17374.1"
textLength="901.669" font-size="524.934" lengthAdjust="spacingAndGlyphs"
text-anchor="middle" opacity="0">MX</text>
<g class="stroked-text"><desc>MX</desc>
<path d="M29233 17355
L29233 16961
L29364 17242
L29495 16961
L29495 17355
" />
<path d="M29645 16961
L29908 17355
" />
<path d="M29908 16961
L29645 17355
" />
</g><text x="22052" y="17374.1"
textLength="901.669" font-size="524.934" lengthAdjust="spacingAndGlyphs"
text-anchor="middle" opacity="0">MX</text>
<g class="stroked-text"><desc>MX</desc>
<path d="M21733 17355
L21733 16961
L21864 17242
L21995 16961
L21995 17355
" />
<path d="M22145 16961
L22408 17355
" />
<path d="M22408 16961
L22145 17355
" />
</g><text x="14552.1" y="17374.1"
textLength="901.669" font-size="524.934" lengthAdjust="spacingAndGlyphs"
text-anchor="middle" opacity="0">MX</text>
<g class="stroked-text"><desc>MX</desc>
<path d="M14233 17355
L14233 16961
L14364 17242
L14495 16961
L14495 17355
" />
<path d="M14645 16961
L14908 17355
" />
<path d="M14908 16961
L14645 17355
" />
</g><text x="7052.06" y="17374.1"
textLength="901.669" font-size="524.934" lengthAdjust="spacingAndGlyphs"
text-anchor="middle" opacity="0">MX</text>
<g class="stroked-text"><desc>MX</desc>
<path d="M6733 17355
L6733 16961
L6864 17242
L6995 16961
L6995 17355
" />
<path d="M7145 16961
L7408 17355
" />
<path d="M7408 16961
L7145 17355
" />
</g><text x="44552" y="9874.07"
textLength="901.669" font-size="524.934" lengthAdjust="spacingAndGlyphs"
text-anchor="middle" opacity="0">MX</text>
<g class="stroked-text"><desc>MX</desc>
<path d="M44233 9855
L44233 9461
L44364 9742
L44495 9461
L44495 9855
" />
<path d="M44645 9461
L44908 9855
" />
<path d="M44908 9461
L44645 9855
" />
</g><text x="37052" y="9874.07"
textLength="901.669" font-size="524.934" lengthAdjust="spacingAndGlyphs"
text-anchor="middle" opacity="0">MX</text>
<g class="stroked-text"><desc>MX</desc>
<path d="M36733 9855
L36733 9461
L36864 9742
L36995 9461
L36995 9855
" />
<path d="M37145 9461
L37408 9855
" />
<path d="M37408 9461
L37145 9855
" />
</g><text x="29552" y="9874.07"
textLength="901.669" font-size="524.934" lengthAdjust="spacingAndGlyphs"
text-anchor="middle" opacity="0">MX</text>
<g class="stroked-text"><desc>MX</desc>
<path d="M29233 9855
L29233 9461
L29364 9742
L29495 9461
L29495 9855
" />
<path d="M29645 9461
L29908 9855
" />
<path d="M29908 9461
L29645 9855
" />
</g><text x="22052" y="9874.07"
textLength="901.669" font-size="524.934" lengthAdjust="spacingAndGlyphs"
text-anchor="middle" opacity="0">MX</text>
<g class="stroked-text"><desc>MX</desc>
<path d="M21733 9855
L21733 9461
L21864 9742
L21995 9461
L21995 9855
" />
<path d="M22145 9461
L22408 9855
" />
<path d="M22408 9461
L22145 9855
" />
</g><text x="14552.1" y="9874.07"
textLength="901.669" font-size="524.934" lengthAdjust="spacingAndGlyphs"
text-anchor="middle" opacity="0">MX</text>
<g class="stroked-text"><desc>MX</desc>
<path d="M14233 9855
L14233 9461
L14364 9742
L14495 9461
L14495 9855
" />
<path d="M14645 9461
L14908 9855
" />
<path d="M14908 9461
L14645 9855
" />
</g><text x="7052.06" y="9874.07"
textLength="901.669" font-size="524.934" lengthAdjust="spacingAndGlyphs"
text-anchor="middle" opacity="0">MX</text>
<g class="stroked-text"><desc>MX</desc>
<path d="M6733 9855
L6733 9461
L6864 9742
L6995 9461
L6995 9855
" />
<path d="M7145 9461
L7408 9855
" />
<path d="M7408 9461
L7145 9855
" />
</g><text x="40802" y="7693.95"
textLength="864.173" font-size="524.934" lengthAdjust="spacingAndGlyphs"
text-anchor="middle" opacity="0">U2</text>
<g class="stroked-text"><desc>U2</desc>
<path d="M40502 7281
L40502 7600
L40520 7637
L40539 7656
L40577 7675
L40652 7675
L40689 7656
L40708 7637
L40727 7600
L40727 7281
" />
<path d="M40895 7319
L40914 7300
L40952 7281
L41045 7281
L41083 7300
L41101 7319
L41120 7356
L41120 7393
L41101 7450
L40877 7675
L41120 7675
" />
</g><text x="18302" y="905.696"
textLength="7463.35" font-size="524.934" lengthAdjust="spacingAndGlyphs"
text-anchor="middle" opacity="0">HRO-TYPE-C-31-M-12</text>
<g class="stroked-text"><desc>HRO-TYPE-C-31-M-12</desc>
<path d="M14702 886
L14702 493
" />
<path d="M14702 680
L14927 680
" />
<path d="M14927 886
L14927 493
" />
<path d="M15339 886
L15208 699
" />
<path d="M15114 886
L15114 493
L15264 493
L15302 511
L15321 530
L15339 568
L15339 624
L15321 661
L15302 680
L15264 699
L15114 699
" />
<path d="M15583 493
L15658 493
L15696 511
L15733 549
L15752 624
L15752 755
L15733 830
L15696 868
L15658 886
L15583 886
L15546 868
L15508 830
L15489 755
L15489 624
L15508 549
L15546 511
L15583 493
" />
<path d="M15921 736
L16221 736
" />
<path d="M16352 493
L16577 493
" />
<path d="M16464 886
L16464 493
" />
<path d="M16783 699
L16783 886
" />
<path d="M16652 493
L16783 699
L16914 493
" />
<path d="M17045 886
L17045 493
L17195 493
L17233 511
L17252 530
L17270 568
L17270 624
L17252 661
L17233 680
L17195 699
L17045 699
" />
<path d="M17439 680
L17570 680
" />
<path d="M17627 886
L17439 886
L17439 493
L17627 493
" />
<path d="M17795 736
L18095 736
" />
<path d="M18508 849
L18489 868
L18433 886
L18395 886
L18339 868
L18302 830
L18283 793
L18264 718
L18264 661
L18283 586
L18302 549
L18339 511
L18395 493
L18433 493
L18489 511
L18508 530
" />
<path d="M18677 736
L18976 736
" />
<path d="M19126 493
L19370 493
L19239 643
L19295 643
L19333 661
L19351 680
L19370 718
L19370 811
L19351 849
L19333 868
L19295 886
L19183 886
L19145 868
L19126 849
" />
<path d="M19745 886
L19520 886
" />
<path d="M19633 886
L19633 493
L19595 549
L19558 586
L19520 605
" />
<path d="M19914 736
L20214 736
" />
<path d="M20401 886
L20401 493
L20533 774
L20664 493
L20664 886
" />
<path d="M20851 736
L21151 736
" />
<path d="M21545 886
L21320 886
" />
<path d="M21432 886
L21432 493
L21395 549
L21357 586
L21320 605
" />
<path d="M21695 530
L21714 511
L21751 493
L21845 493
L21882 511
L21901 530
L21920 568
L21920 605
L21901 661
L21676 886
L21920 886
" />
</g><g >
</g>
</g>
<g style="fill:#000000; fill-opacity:0.0; 
stroke:#000000; stroke-width:59.0551; stroke-opacity:1; 
stroke-linecap:round; stroke-linejoin:round;">
</g>
<g style="fill:#000084; fill-opacity:0.0; 
stroke:#000084; stroke-width:59.0551; stroke-opacity:1; 
stroke-linecap:round; stroke-linejoin:round;">
<circle cx="18302.1" cy="29052.3" r="866.142" /> 
<circle cx="33302.2" cy="36552.3" r="866.142" /> 
<circle cx="10802.1" cy="10302.3" r="866.142" /> 
<circle cx="10802.1" cy="36552.2" r="866.142" /> 
<circle cx="40802.2" cy="9364.78" r="866.142" /> 
<circle cx="33302" cy="29052.2" r="866.142" /> 
<g >
</g>
<g >
</g>
<g >
</g>
<g >
</g>
<g >
</g>
<g >
</g>
<g >
</g>
<g >
</g>
<g >
</g>
<g >
</g>
<g >
</g>
<g >
</g>
<g >
</g>
<g >
</g>
<g >
</g>
<g >
</g>
<g >
</g>
<g >
</g>
<g >
</g>
<g >
</g>
<g >
</g>
<g >
</g>
<g >
</g>
<g >
</g>
<g >
</g>
<g >
</g>
<g >
</g>
<g >
</g>
<g >
</g>
<g >
</g>
<g >
</g>
<g >
</g>
<g >
</g>
<g >
</g>
<g >
</g>
<g >
</g>
<g >
</g>
<g >
</g>
<g >
</g>
<g >
</g>
<g >
</g>
<g >
</g>
<g >
</g>
<g >
</g>
<g >
</g>
<g >
</g>
<g >
</g>
<g >
</g>
<g >
</g>
<g >
</g>
<g >
</g>
<g >
</g>
<g >
</g>
<g >
</g>
<g >
</g>
<g >
</g>
<g >
</g>
<g >
</g>
<g >
</g>
<g >
</g>
<g >
</g>
<g >
</g>
<g >
</g>
<g >
</g>
<g >
</g>
<g >
</g>
<g >
</g>
<g >
</g>
<g >
</g>
<g >
</g>
<g >
</g>
<g >
</g>
<g >
</g>
<g >
</g>
<g >
</g>
<g >
</g>
<g >
</g>
<g >
</g>
<g >
</g>
<g >
</g>
<g >
</g>
<g >
</g>
<g >
</g>
<g >
</g>
<g >
</g>
<g >
</g>
<g >
</g>
<g >
</g>
<g >
</g>
<g >
</g>
<g >
</g>
<g >
</g>
<g >
</g>
<g >
</g>
<g >
</g>
<g >
</g>
<g >
</g>
<g >
</g>
<g >
</g>
<g >
</g>
<g >
</g>
<g >
</g>
<g >
</g>
<g >
</g>
<g >
</g>
<g >
</g>
<g >
</g>
<g >
</g>
<g >
</g>
<g >
</g>
<g >
</g>
<g >
</g>
<g >
</g>
<g >
</g>
<g >
</g>
<g >
</g>
<g >
</g>
<g >
</g>
<g >
</g>
<g >
</g>
<g >
</g>
<g >
</g>
<g >
</g>
<g >
</g>
<g >
</g>
<g >
</g>
<g >
</g>
<g >
</g>
<g >
</g>
<g >
</g>
<g >
</g>
<g >
</g>
<g >
</g>
<g >
</g>
<g >
</g>
<g >
</g>
<g >
</g>
<g >
</g>
<g >
</g>
<g >
</g>
<g >
</g>
<g >
</g>
<g >
</g>
<g >
</g>
<g >
</g>
<g >
</g>
<g >
</g>
<g >
</g>
</g>
<g style="fill:#000000; fill-opacity:0.0; 
stroke:#000000; stroke-width:59.0551; stroke-opacity:1; 
stroke-linecap:round; stroke-linejoin:round;">
</g>
<g style="fill:#C2C200; fill-opacity:0.0; 
stroke:#C2C200; stroke-width:59.0551; stroke-opacity:1; 
stroke-linecap:round; stroke-linejoin:round;">
<path d="M42911 32802
L39278 32802
" />
<path d="M39278 32333
L42911 32333
" />
<path d="M39278.6 32333.5 A234.375 234.375 0.0 0 0 39278.6 32802.2" />
<path d="M42911.4 32802.2 A234.375 234.375 0.0 0 0 42911.4 32333.5" />
<path d="M35294 32802
L32247 32802
" />
<path d="M32247 32333
L35294 32333
" />
<path d="M35294.2 32802.2 A234.375 234.375 0.0 0 0 35294.2 32333.5" />
<path d="M32247.3 32333.5 A234.375 234.375 0.0 0 0 32247.3 32802.2" />
<path d="M29903 32333
L24747 32333
" />
<path d="M24747.4 32333.5 A234.375 234.375 0.0 0 0 24747.4 32802.2" />
<path d="M29903 32802
L24747 32802
" />
<path d="M29903.6 32802.2 A234.375 234.375 0.0 0 0 29903.6 32333.5" />
<path d="M17130.2 32333.5 A234.375 234.375 0.0 0 0 17130.2 32802.2" />
<path d="M22403.6 32802.2 A234.375 234.375 0.0 0 0 22403.6 32333.5" />
<path d="M22403 32802
L17130 32802
" />
<path d="M22403 32333
L17130 32333
" />
<path d="M39395 2333
L39395 2685
" />
<path d="M42091 2685
L42091 2333
" />
<path d="M9512.99 32333.5 A234.375 234.375 0.0 0 0 9512.99 32802.2" />
<path d="M14552 32333
L9512 32333
" />
<path d="M14552 32802
L9512 32802
" />
<path d="M14552.1 32802.2 A234.375 234.375 0.0 0 0 14552.1 32333.5" />
<path d="M46661.4 32333.5 A234.375 234.375 0.0 0 0 46661.4 32802.2" />
<path d="M4942.69 32802.2 A234.375 234.375 0.0 0 0 4942.69 32333.5" />
<path d="M4239 38895
L4239 33505
" />
<path d="M47364 33505
L47364 38895
" />
<path d="M46661.4 32333.5 A703.124 703.124 0.0 0 0 47364.5 31630.3" />
<path d="M47364.5 33505.3 A703.124 703.124 0.0 0 0 46661.4 32802.2" />
<path d="M4942.69 32802.2 A703.124 703.124 0.0 0 0 4239.56 33505.3" />
<path d="M4239.56 31630.3 A703.124 703.124 0.0 0 0 4942.69 32333.5" />
<path d="M20411 3036
L39044 3036
" />
<path d="M20411 1747
L20411 3036
" />
<path d="M16192 1747
L20411 1747
" />
<path d="M16192 3036
L16192 1747
" />
<path d="M4942 3036
L16192 3036
" />
<path d="M4239 31630
L4239 3739
" />
<path d="M46661 39599
L4942 39599
" />
<path d="M47364 3739
L47364 31630
" />
<path d="M42442 3036
L46661 3036
" />
<path d="M41739 1981
L39747 1981
" />
<path d="M42091.3 2333.51 A351.562 351.562 0.0 0 0 41739.7 1981.95" />
<path d="M39747.3 1981.95 A351.562 351.562 0.0 0 0 39395.8 2333.51" />
<path d="M42091.1 2685.04 A351.562 351.562 0.0 0 0 42442.7 3036.6" />
<path d="M39044.2 3036.6 A351.562 351.562 0.0 0 0 39395.8 2685.04" />
<path d="M4942.69 3036.6 A703.124 703.124 0.0 0 0 4239.56 3739.72" />
<path d="M47364.5 3739.72 A703.124 703.124 0.0 0 0 46661.4 3036.6" />
<path d="M4239.56 38895.9 A703.124 703.124 0.0 0 0 4942.69 39599.1" />
<path d="M46661.4 39599.1 A703.124 703.124 0.0 0 0 47364.5 38895.9" />
<g >
</g>
<g >
</g>
<g >
</g>
<g >
</g>
<g >
</g>
<g >
</g>
<g >
</g>
<g >
</g>
<g >
</g>
<g >
</g>
<g >
</g>
<g >
</g>
<g >
</g>
<g >
</g>
<g >
</g>
<g >
</g>
<g >
</g>
<g >
</g>
<g >
</g>
<g >
</g>
<g >
</g>
<g >
</g>
<g >
</g>
<g >
</g>
<g >
</g>
<g >
</g>
<g >
</g>
<g >
</g>
<g >
</g>
<g >
</g>
<g >
</g>
<g >
</g>
<g >
</g>
<g >
</g>
<g >
</g>
<g >
</g>
<g >
</g>
<g >
</g>
<g >
</g>
<g >
</g>
<g >
</g>
<g >
</g>
<g >
</g>
<g >
</g>
<g >
</g>
<g >
</g>
<g >
</g>
<g >
</g>
<g >
</g>
<g >
</g>
<g >
</g>
<g >
</g>
<g >
</g>
<g >
</g>
<g >
</g>
<g >
</g>
<g >
</g>
<g >
</g>
<g >
</g>
<g >
</g>
<g >
</g>
<g >
</g>
<g >
</g>
<g >
</g>
<g >
</g>
<g >
</g>
<g >
</g>
<g >
</g>
<g >
</g>
<g >
</g>
<g >
</g>
<g >
</g>
<g >
</g>
<g >
</g>
<g >
</g>
<g >
</g>
<g >
</g>
<g >
</g>
<g >
</g>
<g >
</g>
<g >
</g>
<g >
</g>
<g >
</g>
<g >
</g>
<g >
</g>
<g >
</g>
<g >
</g>
<g >
</g>
<g >
</g>
<g >
</g>
<g >
</g>
<g >
</g>
<g >
</g>
<g >
</g>
<g >
</g>
<g >
</g>
<g >
</g>
<g >
</g>
<g >
</g>
<g >
</g>
<g >
</g>
<g >
</g>
<g >
</g>
<g >
</g>
<g >
</g>
<g >
</g>
<g >
</g>
<g >
</g>
<g >
</g>
<g >
</g>
<g >
</g>
<g >
</g>
<g >
</g>
<g >
</g>
<g >
</g>
<g >
</g>
<g >
</g>
<g >
</g>
<g >
</g>
<g >
</g>
<g >
</g>
<g >
</g>
<g >
</g>
<g >
</g>
<g >
</g>
<g >
</g>
<g >
</g>
<g >
</g>
<g >
</g>
<g >
</g>
<g >
</g>
<g >
</g>
<g >
</g>
<g >
</g>
<g >
</g>
<g >
</g>
<g >
</g>
<g >
</g>
<g >
</g>
<g >
</g>
<g >
</g>
<g >
</g>
<g >
</g>
<g >
</g>
<g >
</g>
<g >
</g>
<g >
</g>
<g >
</g>
</g> 
</svg>
