0
SECTION
2
HEADER
9
$INSUNITS
70
4
9
$ACADVER
1
AC1014
9
$HANDSEED
5
FFFF
0
ENDSEC
0
SECTION
2
TABLES
0
TABLE
2
VPORT
5
8
100
AcDbSymbolTable
0
ENDTAB
0
TABLE
2
LTYPE
5
5
100
AcDbSymbolTable
70
2
0
LTYPE
5
14
100
AcDbSymbolTableRecord
100
AcDbLinetypeTableRecord
2
BYBLOCK
70
0
0
LTYPE
5
15
100
AcDbSymbolTableRecord
100
AcDbLinetypeTableRecord
2
BYLAYER
70
0
0
ENDTAB
0
TABLE
2
LAYER
5
2
100
AcDbSymbolTable
70
3
0
LAYER
5
50
100
AcDbSymbolTableRecord
100
AcDbLayerTableRecord
2
0
70
0
6
CONTINUOUS
0
LAYER
5
51
100
AcDbSymbolTableRecord
100
AcDbLayerTableRecord
2
CUTOUTS
70
0
62
1
6
CONTINUOUS
0
LAYER
5
52
100
AcDbSymbolTableRecord
100
AcDbLayerTableRecord
2
PERIMETER
70
0
62
5
6
CONTINUOUS
0
ENDTAB
0
TABLE
2
STYLE
5
3
100
AcDbSymbolTable
70
1
0
STYLE
5
11
100
AcDbSymbolTableRecord
100
AcDbTextStyleTableRecord
2
STANDARD
70
0
0
ENDTAB
0
TABLE
2
VIEW
5
6
100
AcDbSymbolTable
0
ENDTAB
0
TABLE
2
UCS
5
7
100
AcDbSymbolTable
0
ENDTAB
0
TABLE
2
APPID
5
9
100
AcDbSymbolTable
70
1
0
APPID
5
12
100
AcDbSymbolTableRecord
100
AcDbRegAppTableRecord
2
ACAD
70
0
0
ENDTAB
0
TABLE
2
DIMSTYLE
5
A
100
AcDbSymbolTable
0
ENDTAB
0
TABLE
2
BLOCK_RECORD
5
1
100
AcDbSymbolTable
70
2
0
BLOCK_RECORD
5
1F
100
AcDbSymbolTableRecord
100
AcDbBlockTableRecord
2
*MODEL_SPACE
0
BLOCK_RECORD
5
1B
100
AcDbSymbolTableRecord
100
AcDbBlockTableRecord
2
*PAPER_SPACE
0
ENDTAB
0
ENDSEC
0
SECTION
2
BLOCKS
0
BLOCK
5
20
100
AcDbEntity
100
AcDbBlockBegin
2
*MODEL_SPACE
0
ENDBLK
5
21
100
AcDbEntity
100
AcDbBlockEnd
0
BLOCK
5
1C
100
AcDbEntity
100
AcDbBlockBegin
2
*PAPER_SPACE
0
ENDBLK
5
1D
100
AcDbEntity
100
AcDbBlockEnd
0
ENDSEC
0
SECTION
2
ENTITIES
0
CIRCLE
5
100
100
AcDbEntity
8
CUTOUTS
100
AcDbCircle
10
-59.71066017177985
20
50.185660171779816
30
0
40
1.1000000000000032
210
0
220
0
230
1
0
CIRCLE
5
101
100
AcDbEntity
8
CUTOUTS
100
AcDbCircle
10
-2.6645352591003757e-14
20
50.624999999999993
30
0
40
1.0999999999999943
210
0
220
0
230
1
0
CIRCLE
5
102
100
AcDbEntity
8
CUTOUTS
100
AcDbCircle
10
-1.7763568394002505e-13
20
-50.625000000000178
30
0
40
1.0999999999999943
210
0
220
0
230
1
0
CIRCLE
5
103
100
AcDbEntity
8
CUTOUTS
100
AcDbCircle
10
-60.15000000000002
20
0
30
0
40
1.1000000000000032
210
0
220
0
230
1
0
CIRCLE
5
104
100
AcDbEntity
8
CUTOUTS
100
AcDbCircle
10
60.149999999999977
20
0
30
0
40
1.0999999999999943
210
0
220
0
230
1
0
CIRCLE
5
105
100
AcDbEntity
8
CUTOUTS
100
AcDbCircle
10
59.710660171779651
20
-50.185660171780171
30
0
40
1.0999999999999943
210
0
220
0
230
1
0
CIRCLE
5
106
100
AcDbEntity
8
CUTOUTS
100
AcDbCircle
10
-59.710660171779999
20
-50.18566017177983
30
0
40
1.1000000000000032
210
0
220
0
230
1
0
CIRCLE
5
107
100
AcDbEntity
8
CUTOUTS
100
AcDbCircle
10
59.710660171779793
20
50.185660171779816
30
0
40
1.0999999999999943
210
0
220
0
230
1
0
LINE
5
108
100
AcDbEntity
8
CUTOUTS
100
AcDbLine
10
16.524999999999991
20
31.099999999999991
30
0
11
2.5249999999999861
21
31.099999999999991
31
0
0
LINE
5
109
100
AcDbEntity
8
CUTOUTS
100
AcDbLine
10
2.5249999999999861
20
31.099999999999991
30
0
11
2.5249999999999861
21
45.099999999999994
31
0
0
LINE
5
10A
100
AcDbEntity
8
CUTOUTS
100
AcDbLine
10
2.5249999999999861
20
45.099999999999994
30
0
11
16.524999999999991
21
45.099999999999994
31
0
0
LINE
5
10B
100
AcDbEntity
8
CUTOUTS
100
AcDbLine
10
16.524999999999991
20
45.099999999999994
30
0
11
16.524999999999991
21
31.099999999999994
31
0
0
LINE
5
10C
100
AcDbEntity
8
CUTOUTS
100
AcDbLine
10
35.575000000000003
20
-7.0000000000000107
30
0
11
21.574999999999996
21
-7.0000000000000107
31
0
0
LINE
5
10D
100
AcDbEntity
8
CUTOUTS
100
AcDbLine
10
21.574999999999996
20
-7.0000000000000107
30
0
11
21.574999999999996
21
6.9999999999999929
31
0
0
LINE
5
10E
100
AcDbEntity
8
CUTOUTS
100
AcDbLine
10
21.574999999999996
20
6.9999999999999929
30
0
11
35.575000000000003
21
6.9999999999999929
31
0
0
LINE
5
10F
100
AcDbEntity
8
CUTOUTS
100
AcDbLine
10
35.575000000000003
20
6.9999999999999929
30
0
11
35.575000000000003
21
-7.0000000000000107
31
0
0
LINE
5
110
100
AcDbEntity
8
CUTOUTS
100
AcDbLine
10
54.624999999999993
20
31.099999999999991
30
0
11
40.624999999999993
21
31.099999999999991
31
0
0
LINE
5
111
100
AcDbEntity
8
CUTOUTS
100
AcDbLine
10
40.624999999999993
20
31.099999999999991
30
0
11
40.624999999999993
21
45.099999999999994
31
0
0
LINE
5
112
100
AcDbEntity
8
CUTOUTS
100
AcDbLine
10
40.624999999999993
20
45.099999999999994
30
0
11
54.624999999999993
21
45.099999999999994
31
0
0
LINE
5
113
100
AcDbEntity
8
CUTOUTS
100
AcDbLine
10
54.624999999999993
20
45.099999999999994
30
0
11
54.624999999999993
21
31.099999999999994
31
0
0
LINE
5
114
100
AcDbEntity
8
CUTOUTS
100
AcDbLine
10
-2.5250000000000128
20
12.049999999999986
30
0
11
-16.525000000000016
21
12.049999999999986
31
0
0
LINE
5
115
100
AcDbEntity
8
CUTOUTS
100
AcDbLine
10
-16.525000000000016
20
12.049999999999986
30
0
11
-16.525000000000016
21
26.04999999999999
31
0
0
LINE
5
116
100
AcDbEntity
8
CUTOUTS
100
AcDbLine
10
-16.525000000000016
20
26.04999999999999
30
0
11
-2.5250000000000128
21
26.04999999999999
31
0
0
LINE
5
117
100
AcDbEntity
8
CUTOUTS
100
AcDbLine
10
-2.5250000000000128
20
26.04999999999999
30
0
11
-2.5250000000000128
21
12.049999999999986
31
0
0
LINE
5
118
100
AcDbEntity
8
CUTOUTS
100
AcDbLine
10
-2.5250000000000128
20
31.099999999999991
30
0
11
-16.525000000000016
21
31.099999999999991
31
0
0
LINE
5
119
100
AcDbEntity
8
CUTOUTS
100
AcDbLine
10
-16.525000000000016
20
31.099999999999991
30
0
11
-16.525000000000016
21
45.099999999999994
31
0
0
LINE
5
11A
100
AcDbEntity
8
CUTOUTS
100
AcDbLine
10
-16.525000000000016
20
45.099999999999994
30
0
11
-2.5250000000000128
21
45.099999999999994
31
0
0
LINE
5
11B
100
AcDbEntity
8
CUTOUTS
100
AcDbLine
10
-2.5250000000000128
20
45.099999999999994
30
0
11
-2.5250000000000128
21
31.099999999999994
31
0
0
LINE
5
11C
100
AcDbEntity
8
CUTOUTS
100
AcDbLine
10
35.575000000000003
20
45.099999999999994
30
0
11
35.575000000000003
21
31.099999999999994
31
0
0
LINE
5
11D
100
AcDbEntity
8
CUTOUTS
100
AcDbLine
10
35.575000000000003
20
31.099999999999991
30
0
11
21.574999999999996
21
31.099999999999991
31
0
0
LINE
5
11E
100
AcDbEntity
8
CUTOUTS
100
AcDbLine
10
21.574999999999996
20
31.099999999999991
30
0
11
21.574999999999996
21
45.099999999999994
31
0
0
LINE
5
11F
100
AcDbEntity
8
CUTOUTS
100
AcDbLine
10
21.574999999999996
20
45.099999999999994
30
0
11
35.575000000000003
21
45.099999999999994
31
0
0
LINE
5
120
100
AcDbEntity
8
CUTOUTS
100
AcDbLine
10
-40.625000000000028
20
12.049999999999986
30
0
11
-54.625000000000028
21
12.049999999999986
31
0
0
LINE
5
121
100
AcDbEntity
8
CUTOUTS
100
AcDbLine
10
-54.625000000000028
20
12.049999999999986
30
0
11
-54.625000000000028
21
26.04999999999999
31
0
0
LINE
5
122
100
AcDbEntity
8
CUTOUTS
100
AcDbLine
10
-54.625000000000028
20
26.04999999999999
30
0
11
-40.625000000000028
21
26.04999999999999
31
0
0
LINE
5
123
100
AcDbEntity
8
CUTOUTS
100
AcDbLine
10
-40.625000000000028
20
26.04999999999999
30
0
11
-40.625000000000028
21
12.049999999999986
31
0
0
LINE
5
124
100
AcDbEntity
8
CUTOUTS
100
AcDbLine
10
16.524999999999991
20
12.049999999999986
30
0
11
2.5249999999999861
21
12.049999999999986
31
0
0
LINE
5
125
100
AcDbEntity
8
CUTOUTS
100
AcDbLine
10
2.5249999999999861
20
12.049999999999986
30
0
11
2.5249999999999861
21
26.04999999999999
31
0
0
LINE
5
126
100
AcDbEntity
8
CUTOUTS
100
AcDbLine
10
2.5249999999999861
20
26.04999999999999
30
0
11
16.524999999999991
21
26.04999999999999
31
0
0
LINE
5
127
100
AcDbEntity
8
CUTOUTS
100
AcDbLine
10
16.524999999999991
20
26.04999999999999
30
0
11
16.524999999999991
21
12.049999999999986
31
0
0
LINE
5
128
100
AcDbEntity
8
CUTOUTS
100
AcDbLine
10
54.624999999999993
20
12.049999999999986
30
0
11
40.624999999999993
21
12.049999999999986
31
0
0
LINE
5
129
100
AcDbEntity
8
CUTOUTS
100
AcDbLine
10
40.624999999999993
20
12.049999999999986
30
0
11
40.624999999999993
21
26.04999999999999
31
0
0
LINE
5
12A
100
AcDbEntity
8
CUTOUTS
100
AcDbLine
10
40.624999999999993
20
26.04999999999999
30
0
11
54.624999999999993
21
26.04999999999999
31
0
0
LINE
5
12B
100
AcDbEntity
8
CUTOUTS
100
AcDbLine
10
54.624999999999993
20
26.04999999999999
30
0
11
54.624999999999993
21
12.049999999999986
31
0
0
LINE
5
12C
100
AcDbEntity
8
CUTOUTS
100
AcDbLine
10
35.575000000000003
20
12.049999999999986
30
0
11
21.574999999999996
21
12.049999999999986
31
0
0
LINE
5
12D
100
AcDbEntity
8
CUTOUTS
100
AcDbLine
10
21.574999999999996
20
12.049999999999986
30
0
11
21.574999999999996
21
26.04999999999999
31
0
0
LINE
5
12E
100
AcDbEntity
8
CUTOUTS
100
AcDbLine
10
21.574999999999996
20
26.04999999999999
30
0
11
35.575000000000003
21
26.04999999999999
31
0
0
LINE
5
12F
100
AcDbEntity
8
CUTOUTS
100
AcDbLine
10
35.575000000000003
20
26.04999999999999
30
0
11
35.575000000000003
21
12.049999999999986
31
0
0
LINE
5
130
100
AcDbEntity
8
CUTOUTS
100
AcDbLine
10
35.575000000000003
20
-45.100000000000016
30
0
11
21.574999999999996
21
-45.100000000000016
31
0
0
LINE
5
131
100
AcDbEntity
8
CUTOUTS
100
AcDbLine
10
21.574999999999996
20
-45.100000000000016
30
0
11
21.574999999999996
21
-31.100000000000012
31
0
0
LINE
5
132
100
AcDbEntity
8
CUTOUTS
100
AcDbLine
10
21.574999999999996
20
-31.100000000000012
30
0
11
35.575000000000003
21
-31.100000000000012
31
0
0
LINE
5
133
100
AcDbEntity
8
CUTOUTS
100
AcDbLine
10
35.575000000000003
20
-31.100000000000012
30
0
11
35.575000000000003
21
-45.100000000000016
31
0
0
LINE
5
134
100
AcDbEntity
8
CUTOUTS
100
AcDbLine
10
-2.5250000000000128
20
6.9999999999999929
30
0
11
-2.5250000000000128
21
-7.0000000000000107
31
0
0
LINE
5
135
100
AcDbEntity
8
CUTOUTS
100
AcDbLine
10
-2.5250000000000128
20
-7.0000000000000107
30
0
11
-16.525000000000016
21
-7.0000000000000107
31
0
0
LINE
5
136
100
AcDbEntity
8
CUTOUTS
100
AcDbLine
10
-16.525000000000016
20
-7.0000000000000107
30
0
11
-16.525000000000016
21
6.9999999999999929
31
0
0
LINE
5
137
100
AcDbEntity
8
CUTOUTS
100
AcDbLine
10
-16.525000000000016
20
6.9999999999999929
30
0
11
-2.5250000000000128
21
6.9999999999999929
31
0
0
LINE
5
138
100
AcDbEntity
8
CUTOUTS
100
AcDbLine
10
-21.575000000000017
20
6.9999999999999929
30
0
11
-21.575000000000017
21
-7.0000000000000107
31
0
0
LINE
5
139
100
AcDbEntity
8
CUTOUTS
100
AcDbLine
10
-21.575000000000017
20
-7.0000000000000107
30
0
11
-35.575000000000017
21
-7.0000000000000107
31
0
0
LINE
5
13A
100
AcDbEntity
8
CUTOUTS
100
AcDbLine
10
-35.575000000000017
20
-7.0000000000000107
30
0
11
-35.575000000000017
21
6.9999999999999929
31
0
0
LINE
5
13B
100
AcDbEntity
8
CUTOUTS
100
AcDbLine
10
-35.575000000000017
20
6.9999999999999929
30
0
11
-21.575000000000017
21
6.9999999999999929
31
0
0
LINE
5
13C
100
AcDbEntity
8
CUTOUTS
100
AcDbLine
10
-21.575000000000017
20
26.04999999999999
30
0
11
-21.575000000000017
21
12.049999999999986
31
0
0
LINE
5
13D
100
AcDbEntity
8
CUTOUTS
100
AcDbLine
10
-21.575000000000017
20
12.049999999999986
30
0
11
-35.575000000000017
21
12.049999999999986
31
0
0
LINE
5
13E
100
AcDbEntity
8
CUTOUTS
100
AcDbLine
10
-35.575000000000017
20
12.049999999999986
30
0
11
-35.575000000000017
21
26.04999999999999
31
0
0
LINE
5
13F
100
AcDbEntity
8
CUTOUTS
100
AcDbLine
10
-35.575000000000017
20
26.04999999999999
30
0
11
-21.575000000000017
21
26.04999999999999
31
0
0
LINE
5
140
100
AcDbEntity
8
CUTOUTS
100
AcDbLine
10
-54.625000000000028
20
6.9999999999999929
30
0
11
-40.625000000000028
21
6.9999999999999929
31
0
0
LINE
5
141
100
AcDbEntity
8
CUTOUTS
100
AcDbLine
10
-40.625000000000028
20
6.9999999999999929
30
0
11
-40.625000000000028
21
-7.0000000000000107
31
0
0
LINE
5
142
100
AcDbEntity
8
CUTOUTS
100
AcDbLine
10
-40.625000000000028
20
-7.0000000000000107
30
0
11
-54.625000000000028
21
-7.0000000000000107
31
0
0
LINE
5
143
100
AcDbEntity
8
CUTOUTS
100
AcDbLine
10
-54.625000000000028
20
-7.0000000000000107
30
0
11
-54.625000000000028
21
6.9999999999999929
31
0
0
LINE
5
144
100
AcDbEntity
8
CUTOUTS
100
AcDbLine
10
16.524999999999991
20
6.9999999999999929
30
0
11
16.524999999999991
21
-7.0000000000000107
31
0
0
LINE
5
145
100
AcDbEntity
8
CUTOUTS
100
AcDbLine
10
16.524999999999991
20
-7.0000000000000107
30
0
11
2.5249999999999861
21
-7.0000000000000107
31
0
0
LINE
5
146
100
AcDbEntity
8
CUTOUTS
100
AcDbLine
10
2.5249999999999861
20
-7.0000000000000107
30
0
11
2.5249999999999861
21
6.9999999999999929
31
0
0
LINE
5
147
100
AcDbEntity
8
CUTOUTS
100
AcDbLine
10
2.5249999999999861
20
6.9999999999999929
30
0
11
16.524999999999991
21
6.9999999999999929
31
0
0
LINE
5
148
100
AcDbEntity
8
CUTOUTS
100
AcDbLine
10
35.575000000000003
20
-26.050000000000022
30
0
11
21.574999999999996
21
-26.050000000000022
31
0
0
LINE
5
149
100
AcDbEntity
8
CUTOUTS
100
AcDbLine
10
21.574999999999996
20
-26.050000000000022
30
0
11
21.574999999999996
21
-12.050000000000018
31
0
0
LINE
5
14A
100
AcDbEntity
8
CUTOUTS
100
AcDbLine
10
21.574999999999996
20
-12.050000000000018
30
0
11
35.575000000000003
21
-12.050000000000018
31
0
0
LINE
5
14B
100
AcDbEntity
8
CUTOUTS
100
AcDbLine
10
35.575000000000003
20
-12.050000000000018
30
0
11
35.575000000000003
21
-26.050000000000022
31
0
0
LINE
5
14C
100
AcDbEntity
8
CUTOUTS
100
AcDbLine
10
-40.625000000000028
20
-45.100000000000016
30
0
11
-54.625000000000028
21
-45.100000000000016
31
0
0
LINE
5
14D
100
AcDbEntity
8
CUTOUTS
100
AcDbLine
10
-54.625000000000028
20
-45.100000000000016
30
0
11
-54.625000000000028
21
-31.100000000000012
31
0
0
LINE
5
14E
100
AcDbEntity
8
CUTOUTS
100
AcDbLine
10
-54.625000000000028
20
-31.100000000000012
30
0
11
-40.625000000000028
21
-31.100000000000012
31
0
0
LINE
5
14F
100
AcDbEntity
8
CUTOUTS
100
AcDbLine
10
-40.625000000000028
20
-31.100000000000012
30
0
11
-40.625000000000028
21
-45.100000000000016
31
0
0
LINE
5
150
100
AcDbEntity
8
CUTOUTS
100
AcDbLine
10
54.624999999999993
20
-45.100000000000016
30
0
11
40.624999999999993
21
-45.100000000000016
31
0
0
LINE
5
151
100
AcDbEntity
8
CUTOUTS
100
AcDbLine
10
40.624999999999993
20
-45.100000000000016
30
0
11
40.624999999999993
21
-31.100000000000012
31
0
0
LINE
5
152
100
AcDbEntity
8
CUTOUTS
100
AcDbLine
10
40.624999999999993
20
-31.100000000000012
30
0
11
54.624999999999993
21
-31.100000000000012
31
0
0
LINE
5
153
100
AcDbEntity
8
CUTOUTS
100
AcDbLine
10
54.624999999999993
20
-31.100000000000012
30
0
11
54.624999999999993
21
-45.100000000000016
31
0
0
LINE
5
154
100
AcDbEntity
8
CUTOUTS
100
AcDbLine
10
-2.5250000000000128
20
-12.050000000000018
30
0
11
-2.5250000000000128
21
-26.050000000000022
31
0
0
LINE
5
155
100
AcDbEntity
8
CUTOUTS
100
AcDbLine
10
-2.5250000000000128
20
-26.050000000000022
30
0
11
-16.525000000000016
21
-26.050000000000022
31
0
0
LINE
5
156
100
AcDbEntity
8
CUTOUTS
100
AcDbLine
10
-16.525000000000016
20
-26.050000000000022
30
0
11
-16.525000000000016
21
-12.050000000000018
31
0
0
LINE
5
157
100
AcDbEntity
8
CUTOUTS
100
AcDbLine
10
-16.525000000000016
20
-12.050000000000018
30
0
11
-2.5250000000000128
21
-12.050000000000018
31
0
0
LINE
5
158
100
AcDbEntity
8
CUTOUTS
100
AcDbLine
10
-21.575000000000017
20
-26.050000000000022
30
0
11
-35.575000000000017
21
-26.050000000000022
31
0
0
LINE
5
159
100
AcDbEntity
8
CUTOUTS
100
AcDbLine
10
-35.575000000000017
20
-26.050000000000022
30
0
11
-35.575000000000017
21
-12.050000000000018
31
0
0
LINE
5
15A
100
AcDbEntity
8
CUTOUTS
100
AcDbLine
10
-35.575000000000017
20
-12.050000000000018
30
0
11
-21.575000000000017
21
-12.050000000000018
31
0
0
LINE
5
15B
100
AcDbEntity
8
CUTOUTS
100
AcDbLine
10
-21.575000000000017
20
-12.050000000000018
30
0
11
-21.575000000000017
21
-26.050000000000022
31
0
0
LINE
5
15C
100
AcDbEntity
8
CUTOUTS
100
AcDbLine
10
16.524999999999991
20
-26.050000000000022
30
0
11
2.5249999999999861
21
-26.050000000000022
31
0
0
LINE
5
15D
100
AcDbEntity
8
CUTOUTS
100
AcDbLine
10
2.5249999999999861
20
-26.050000000000022
30
0
11
2.5249999999999861
21
-12.050000000000018
31
0
0
LINE
5
15E
100
AcDbEntity
8
CUTOUTS
100
AcDbLine
10
2.5249999999999861
20
-12.050000000000018
30
0
11
16.524999999999991
21
-12.050000000000018
31
0
0
LINE
5
15F
100
AcDbEntity
8
CUTOUTS
100
AcDbLine
10
16.524999999999991
20
-12.050000000000018
30
0
11
16.524999999999991
21
-26.050000000000022
31
0
0
LINE
5
160
100
AcDbEntity
8
CUTOUTS
100
AcDbLine
10
-21.575000000000017
20
31.099999999999991
30
0
11
-35.575000000000017
21
31.099999999999991
31
0
0
LINE
5
161
100
AcDbEntity
8
CUTOUTS
100
AcDbLine
10
-35.575000000000017
20
31.099999999999991
30
0
11
-35.575000000000017
21
45.099999999999994
31
0
0
LINE
5
162
100
AcDbEntity
8
CUTOUTS
100
AcDbLine
10
-35.575000000000017
20
45.099999999999994
30
0
11
-21.575000000000017
21
45.099999999999994
31
0
0
LINE
5
163
100
AcDbEntity
8
CUTOUTS
100
AcDbLine
10
-21.575000000000017
20
45.099999999999994
30
0
11
-21.575000000000017
21
31.099999999999994
31
0
0
LINE
5
164
100
AcDbEntity
8
CUTOUTS
100
AcDbLine
10
-40.625000000000028
20
-12.050000000000018
30
0
11
-40.625000000000028
21
-26.050000000000022
31
0
0
LINE
5
165
100
AcDbEntity
8
CUTOUTS
100
AcDbLine
10
-40.625000000000028
20
-26.050000000000022
30
0
11
-54.625000000000028
21
-26.050000000000022
31
0
0
LINE
5
166
100
AcDbEntity
8
CUTOUTS
100
AcDbLine
10
-54.625000000000028
20
-26.050000000000022
30
0
11
-54.625000000000028
21
-12.050000000000018
31
0
0
LINE
5
167
100
AcDbEntity
8
CUTOUTS
100
AcDbLine
10
-54.625000000000028
20
-12.050000000000018
30
0
11
-40.625000000000028
21
-12.050000000000018
31
0
0
LINE
5
168
100
AcDbEntity
8
CUTOUTS
100
AcDbLine
10
-40.625000000000028
20
31.099999999999991
30
0
11
-54.625000000000028
21
31.099999999999991
31
0
0
LINE
5
169
100
AcDbEntity
8
CUTOUTS
100
AcDbLine
10
-54.625000000000028
20
31.099999999999991
30
0
11
-54.625000000000028
21
45.099999999999994
31
0
0
LINE
5
16A
100
AcDbEntity
8
CUTOUTS
100
AcDbLine
10
-54.625000000000028
20
45.099999999999994
30
0
11
-40.625000000000028
21
45.099999999999994
31
0
0
LINE
5
16B
100
AcDbEntity
8
CUTOUTS
100
AcDbLine
10
-40.625000000000028
20
45.099999999999994
30
0
11
-40.625000000000028
21
31.099999999999994
31
0
0
LINE
5
16C
100
AcDbEntity
8
CUTOUTS
100
AcDbLine
10
54.624999999999993
20
-7.0000000000000107
30
0
11
40.624999999999993
21
-7.0000000000000107
31
0
0
LINE
5
16D
100
AcDbEntity
8
CUTOUTS
100
AcDbLine
10
40.624999999999993
20
-7.0000000000000107
30
0
11
40.624999999999993
21
6.9999999999999929
31
0
0
LINE
5
16E
100
AcDbEntity
8
CUTOUTS
100
AcDbLine
10
40.624999999999993
20
6.9999999999999929
30
0
11
54.624999999999993
21
6.9999999999999929
31
0
0
LINE
5
16F
100
AcDbEntity
8
CUTOUTS
100
AcDbLine
10
54.624999999999993
20
6.9999999999999929
30
0
11
54.624999999999993
21
-7.0000000000000107
31
0
0
LINE
5
170
100
AcDbEntity
8
CUTOUTS
100
AcDbLine
10
-21.575000000000017
20
-45.100000000000016
30
0
11
-35.575000000000017
21
-45.100000000000016
31
0
0
LINE
5
171
100
AcDbEntity
8
CUTOUTS
100
AcDbLine
10
-35.575000000000017
20
-45.100000000000016
30
0
11
-35.575000000000017
21
-31.100000000000012
31
0
0
LINE
5
172
100
AcDbEntity
8
CUTOUTS
100
AcDbLine
10
-35.575000000000017
20
-31.100000000000012
30
0
11
-21.575000000000017
21
-31.100000000000012
31
0
0
LINE
5
173
100
AcDbEntity
8
CUTOUTS
100
AcDbLine
10
-21.575000000000017
20
-31.100000000000012
30
0
11
-21.575000000000017
21
-45.100000000000016
31
0
0
LINE
5
174
100
AcDbEntity
8
CUTOUTS
100
AcDbLine
10
54.624999999999993
20
-12.050000000000018
30
0
11
54.624999999999993
21
-26.050000000000022
31
0
0
LINE
5
175
100
AcDbEntity
8
CUTOUTS
100
AcDbLine
10
54.624999999999993
20
-26.050000000000022
30
0
11
40.624999999999993
21
-26.050000000000022
31
0
0
LINE
5
176
100
AcDbEntity
8
CUTOUTS
100
AcDbLine
10
40.624999999999993
20
-26.050000000000022
30
0
11
40.624999999999993
21
-12.050000000000018
31
0
0
LINE
5
177
100
AcDbEntity
8
CUTOUTS
100
AcDbLine
10
40.624999999999993
20
-12.050000000000018
30
0
11
54.624999999999993
21
-12.050000000000018
31
0
0
LINE
5
178
100
AcDbEntity
8
CUTOUTS
100
AcDbLine
10
16.524999999999991
20
-31.100000000000012
30
0
11
16.524999999999991
21
-45.100000000000016
31
0
0
LINE
5
179
100
AcDbEntity
8
CUTOUTS
100
AcDbLine
10
16.524999999999991
20
-45.100000000000016
30
0
11
2.5249999999999861
21
-45.100000000000016
31
0
0
LINE
5
17A
100
AcDbEntity
8
CUTOUTS
100
AcDbLine
10
2.5249999999999861
20
-45.100000000000016
30
0
11
2.5249999999999861
21
-31.100000000000012
31
0
0
LINE
5
17B
100
AcDbEntity
8
CUTOUTS
100
AcDbLine
10
2.5249999999999861
20
-31.100000000000012
30
0
11
16.524999999999991
21
-31.100000000000012
31
0
0
LINE
5
17C
100
AcDbEntity
8
CUTOUTS
100
AcDbLine
10
-2.5250000000000128
20
-45.100000000000016
30
0
11
-16.525000000000016
21
-45.100000000000016
31
0
0
LINE
5
17D
100
AcDbEntity
8
CUTOUTS
100
AcDbLine
10
-16.525000000000016
20
-45.100000000000016
30
0
11
-16.525000000000016
21
-31.100000000000012
31
0
0
LINE
5
17E
100
AcDbEntity
8
CUTOUTS
100
AcDbLine
10
-16.525000000000016
20
-31.100000000000012
30
0
11
-2.5250000000000128
21
-31.100000000000012
31
0
0
LINE
5
17F
100
AcDbEntity
8
CUTOUTS
100
AcDbLine
10
-2.5250000000000128
20
-31.100000000000012
30
0
11
-2.5250000000000128
21
-45.100000000000016
31
0
0
LINE
5
180
100
AcDbEntity
8
PERIMETER
100
AcDbLine
10
-60.150000000000034
20
-53.625000000000007
30
0
11
60.150000000000013
21
-53.625000000000043
31
0
0
ARC
5
181
100
AcDbEntity
8
PERIMETER
100
AcDbCircle
10
60.149999999999977
20
-50.625
30
0
40
3.0000000000000426
210
-0
220
0
230
1
100
AcDbArc
50
-89.999999999999332
51
0
0
LINE
5
182
100
AcDbEntity
8
PERIMETER
100
AcDbLine
10
63.15000000000002
20
-50.625
30
0
11
63.15000000000002
21
50.625
31
0
0
ARC
5
183
100
AcDbEntity
8
PERIMETER
100
AcDbCircle
10
60.149999999999977
20
50.624999999999993
30
0
40
3.0000000000000426
210
0
220
-0
230
1
100
AcDbArc
50
0
51
90
0
LINE
5
184
100
AcDbEntity
8
PERIMETER
100
AcDbLine
10
60.149999999999977
20
53.625000000000036
30
0
11
-60.150000000000034
21
53.624999999999986
31
0
0
ARC
5
185
100
AcDbEntity
8
PERIMETER
100
AcDbCircle
10
-60.15000000000002
20
50.624999999999993
30
0
40
2.9999999999999982
210
0
220
0
230
1
100
AcDbArc
50
90.00000000000027
51
180
0
LINE
5
186
100
AcDbEntity
8
PERIMETER
100
AcDbLine
10
-63.150000000000034
20
50.624999999999993
30
0
11
-63.150000000000034
21
-50.625000000000007
31
0
0
ARC
5
187
100
AcDbEntity
8
PERIMETER
100
AcDbCircle
10
-60.149999999999999
20
-50.624999999999986
30
0
40
3.0000000000000249
210
0
220
0
230
1
100
AcDbArc
50
180
51
269.99999999999932
0
ENDSEC
0
SECTION
2
OBJECTS
0
DICTIONARY
5
C
100
AcDbDictionary
3
ACAD_GROUP
350
D
3
ACAD_MLINESTYLE
350
17
0
DICTIONARY
5
D
100
AcDbDictionary
0
DICTIONARY
5
1A
330
C
100
AcDbDictionary
0
DICTIONARY
5
17
100
AcDbDictionary
0
ENDSEC
0
EOF
