  0
SECTION
  2
HEADER
  9
$ANGBASE
  50
0.0
  9
$ANGDIR
  70
1
  9
$MEASUREMENT
  70
1
  0
ENDSEC
  0
SECTION
  2
TABLES
  0
TABLE
  2
LTYPE
  70
4
  0
LTYPE
  5
40F
  2
CONTINUOUS
  70
0
  3
Solid line
  72
65
  73
0
  40
0.0
  0
LTYPE
  5
410
  2
DASHDOT
 70
0
  3
Dash Dot ____ _ ____ _
 72
65
 73
4
 40
2.0
 49
1.25
 49
-0.25
 49
0.25
 49
-0.25
  0
LTYPE
  5
411
  2
DASHED
 70
0
  3
Dashed __ __ __ __ __
 72
65
 73
2
 40
0.75
 49
0.5
 49
-0.25
  0
LTYPE
  5
43B
  2
DOTTED
 70
0
  3
Dotted .  .  .  .
 72
65
 73
2
 40
0.2
 49
0.0
 49
-0.2
  0
ENDTAB
  0
TABLE
  2
STYLE
  70
4
  0
STYLE
  2
KICAD
  70
0
  40
0
  41
1
  42
1
  50
0
  71
0
  3
isocp.shx
  0
STYLE
  2
KICADB
  70
0
  40
0
  41
1
  42
1
  50
0
  71
0
  3
isocp.shx
  0
STYLE
  2
KICADI
  70
0
  40
0
  41
1
  42
1
  50
15
  71
0
  3
isocp.shx
  0
STYLE
  2
KICADBI
  70
0
  40
0
  41
1
  42
1
  50
15
  71
0
  3
isocp.shx
  0
ENDTAB
  0
TABLE
  2
LAYER
  70
1
  0
LAYER
  2
BLACK
  70
0
  62
7
  6
CONTINUOUS
  0
ENDTAB
  0
ENDSEC
  0
SECTION
  2
ENTITIES
0
LINE
8
BLACK
6
CONTINUOUS
10
35.7539
20
-80.9836
11
35.7892
21
-80.9131
0
LINE
8
BLACK
6
CONTINUOUS
10
94.0328
20
-131.607
11
94.0328
21
-131.678
0
LINE
8
BLACK
6
CONTINUOUS
10
94.7736
20
-132.278
11
94.8442
21
-132.313
0
LINE
8
BLACK
6
CONTINUOUS
10
95.1969
20
-130.231
11
95.0911
21
-130.231
0
LINE
8
BLACK
6
CONTINUOUS
10
154.452
20
-129.867
11
154.205
21
-130.008
0
LINE
8
BLACK
6
CONTINUOUS
10
158.168
20
-131.96
11
158.097
21
-132.207
0
LINE
8
BLACK
6
CONTINUOUS
10
153.993
20
-131.384
11
154.205
21
-131.595
0
LINE
8
BLACK
6
CONTINUOUS
10
95.6908
20
-132.066
11
95.7614
21
-132.031
0
LINE
8
BLACK
6
CONTINUOUS
10
94.6325
20
-132.242
11
94.7031
21
-132.278
0
LINE
8
BLACK
6
CONTINUOUS
10
154.781
20
-81.5128
11
154.852
21
-81.5481
0
LINE
8
BLACK
6
CONTINUOUS
10
31.8381
20
-131.748
11
31.8028
21
-131.501
0
LINE
8
BLACK
6
CONTINUOUS
10
95.0206
20
-132.313
11
95.0911
21
-132.313
0
LINE
8
BLACK
6
CONTINUOUS
10
33.99
20
-79.89
11
33.9547
21
-79.9606
0
LINE
8
BLACK
6
CONTINUOUS
10
154.205
20
-130.008
11
153.993
21
-130.219
0
LINE
8
BLACK
6
CONTINUOUS
10
95.6381
20
-29.0194
11
95.5676
21
-28.9842
0
LINE
8
BLACK
6
CONTINUOUS
10
153.852
20
-30.0544
11
153.781
21
-30.3367
0
LINE
8
BLACK
6
CONTINUOUS
10
96.0083
20
-130.937
11
95.9731
21
-130.866
0
LINE
8
BLACK
6
CONTINUOUS
10
156.157
20
-80.0311
11
156.086
21
-79.9606
0
LINE
8
BLACK
6
CONTINUOUS
10
35.5542
20
-131.736
11
35.8364
21
-131.595
0
LINE
8
BLACK
6
CONTINUOUS
10
156.827
20
-27.3261
11
157.004
21
-27.4319
0
LINE
8
BLACK
6
CONTINUOUS
10
155.686
20
-30.0544
11
155.545
21
-29.7722
0
LINE
8
BLACK
6
CONTINUOUS
10
33.8489
20
-134.112
11
33.6372
21
-134.041
0
LINE
8
BLACK
6
CONTINUOUS
10
31.9439
20
-28.9489
11
32.0144
21
-28.7372
0
LINE
8
BLACK
6
CONTINUOUS
10
154.252
20
-80.2428
11
154.217
21
-80.3133
0
LINE
8
BLACK
6
CONTINUOUS
10
155.087
20
-129.867
11
154.769
21
-129.831
0
LINE
8
BLACK
6
CONTINUOUS
10
36.1892
20
-30.0544
11
36.0481
21
-29.7722
0
LINE
8
BLACK
6
CONTINUOUS
10
33.7783
20
-80.3133
11
33.7431
21
-80.4192
0
LINE
8
BLACK
6
CONTINUOUS
10
94.95
20
-132.313
11
95.0206
21
-132.313
0
LINE
8
BLACK
6
CONTINUOUS
10
154.322
20
-81.0542
11
154.358
21
-81.1247
0
LINE
8
BLACK
6
CONTINUOUS
10
34.4958
20
-131.384
11
34.7075
21
-131.595
0
LINE
8
BLACK
6
CONTINUOUS
10
36.0481
20
-130.219
11
35.8364
21
-130.008
0
LINE
8
BLACK
6
CONTINUOUS
10
157.533
20
-133.23
11
157.356
21
-133.406
0
LINE
8
BLACK
6
CONTINUOUS
10
34.8014
20
-134.288
11
34.5544
21
-134.253
0
LINE
8
BLACK
6
CONTINUOUS
10
157.674
20
-133.054
11
157.533
21
-133.23
0
LINE
8
BLACK
6
CONTINUOUS
10
34.3547
20
-30.6542
11
34.4958
21
-30.9364
0
LINE
8
BLACK
6
CONTINUOUS
10
94.0154
20
-29.5486
11
94.0154
21
-29.6192
0
LINE
8
BLACK
6
CONTINUOUS
10
154.287
20
-80.9836
11
154.322
21
-81.0542
0
LINE
8
BLACK
6
CONTINUOUS
10
94.0328
20
-131.678
11
94.0681
21
-131.748
0
LINE
8
BLACK
6
CONTINUOUS
10
95.8319
20
-130.584
11
95.7614
21
-130.514
0
LINE
8
BLACK
6
CONTINUOUS
10
34.3075
20
-26.9028
11
34.5544
21
-26.8675
0
LINE
8
BLACK
6
CONTINUOUS
10
94.3329
20
-29.09
11
94.2976
21
-29.1253
0
LINE
8
BLACK
6
CONTINUOUS
10
32.6847
20
-133.406
11
32.5083
21
-133.23
0
LINE
8
BLACK
6
CONTINUOUS
10
155.169
20
-79.5372
11
155.063
21
-79.5372
0
LINE
8
BLACK
6
CONTINUOUS
10
155.545
20
-131.384
11
155.686
21
-131.101
0
LINE
8
BLACK
6
CONTINUOUS
10
155.545
20
-130.219
11
155.334
21
-130.008
0
LINE
8
BLACK
6
CONTINUOUS
10
31.9439
20
-132.207
11
31.8733
21
-131.96
0
LINE
8
BLACK
6
CONTINUOUS
10
111.071
20
-57.2406
11
111.071
21
-44.2406
0
LINE
8
BLACK
6
CONTINUOUS
10
156.298
20
-80.7367
11
156.298
21
-80.6661
0
LINE
8
BLACK
6
CONTINUOUS
10
36.0481
20
-30.9364
11
36.1892
21
-30.6542
0
LINE
8
BLACK
6
CONTINUOUS
10
33.8842
20
-80.0311
11
33.8489
21
-80.1017
0
LINE
8
BLACK
6
CONTINUOUS
10
35.8364
20
-31.1481
11
36.0481
21
-30.9364
0
LINE
8
BLACK
6
CONTINUOUS
10
35.7186
20
-80.1017
11
35.6833
21
-80.0311
0
LINE
8
BLACK
6
CONTINUOUS
10
35.8364
20
-29.5606
11
35.5542
21
-29.4194
0
LINE
8
BLACK
6
CONTINUOUS
10
35.8364
20
-130.008
11
35.5542
21
-129.867
0
LINE
8
BLACK
6
CONTINUOUS
10
93.9801
20
-29.9367
11
93.9801
21
-30.0425
0
LINE
8
BLACK
6
CONTINUOUS
10
34.5544
20
-26.8675
11
34.8014
21
-26.8675
0
LINE
8
BLACK
6
CONTINUOUS
10
95.6908
20
-130.478
11
95.6203
21
-130.408
0
LINE
8
BLACK
6
CONTINUOUS
10
32.5083
20
-27.9258
11
32.6847
21
-27.7494
0
LINE
8
BLACK
6
CONTINUOUS
10
94.227
20
-30.5364
11
94.2976
21
-30.6069
0
LINE
8
BLACK
6
CONTINUOUS
10
95.8319
20
-131.96
11
95.8672
21
-131.889
0
LINE
8
BLACK
6
CONTINUOUS
10
35.5542
20
-29.4194
11
35.2719
21
-29.3842
0
LINE
8
BLACK
6
CONTINUOUS
10
157.356
20
-27.7494
11
157.533
21
-27.9258
0
LINE
8
BLACK
6
CONTINUOUS
10
35.5775
20
-81.2658
11
35.6481
21
-81.1953
0
LINE
8
BLACK
6
CONTINUOUS
10
154.769
20
-131.772
11
155.087
21
-131.736
0
LINE
8
BLACK
6
CONTINUOUS
10
35.6833
20
-81.1247
11
35.7186
21
-81.0542
0
LINE
8
BLACK
6
CONTINUOUS
10
35.4011
20
-81.4069
11
35.4717
21
-81.3717
0
LINE
8
BLACK
6
CONTINUOUS
10
95.9909
20
-29.4781
11
95.9556
21
-29.4075
0
LINE
8
BLACK
6
CONTINUOUS
10
154.64
20
-81.4069
11
154.711
21
-81.4775
0
LINE
8
BLACK
6
CONTINUOUS
10
31.8028
20
-29.8661
11
31.8028
21
-29.6192
0
LINE
8
BLACK
6
CONTINUOUS
10
94.6151
20
-28.9136
11
94.5445
21
-28.9489
0
LINE
8
BLACK
6
CONTINUOUS
10
95.7087
20
-29.09
11
95.6381
21
-29.0194
0
LINE
8
BLACK
6
CONTINUOUS
10
94.1212
20
-30.4306
11
94.1565
21
-30.5011
0
LINE
8
BLACK
6
CONTINUOUS
10
155.545
20
-29.7722
11
155.334
21
-29.5606
0
LINE
8
BLACK
6
CONTINUOUS
10
34.5544
20
-134.253
11
34.3075
21
-134.253
0
LINE
8
BLACK
6
CONTINUOUS
10
154.181
20
-80.4897
11
154.181
21
-80.5603
0
LINE
8
BLACK
6
CONTINUOUS
10
94.2976
20
-29.1253
11
94.227
21
-29.1958
0
LINE
8
BLACK
6
CONTINUOUS
10
94.0154
20
-30.1836
11
94.0506
21
-30.2894
0
LINE
8
BLACK
6
CONTINUOUS
10
35.7539
20
-80.1722
11
35.7186
21
-80.1017
0
LINE
8
BLACK
6
CONTINUOUS
10
94.1565
20
-29.2664
11
94.1212
21
-29.3369
0
LINE
8
BLACK
6
CONTINUOUS
10
158.238
20
-131.29
11
158.238
21
-131.501
0
LINE
8
BLACK
6
CONTINUOUS
10
154.205
20
-31.1481
11
154.452
21
-31.2892
0
LINE
8
BLACK
6
CONTINUOUS
10
154.287
20
-80.1722
11
154.252
21
-80.2428
0
LINE
8
BLACK
6
CONTINUOUS
10
34.6956
20
-81.6186
11
34.8014
21
-81.6186
0
LINE
8
BLACK
6
CONTINUOUS
10
155.334
20
-131.595
11
155.545
21
-131.384
0
LINE
8
BLACK
6
CONTINUOUS
10
34.4839
20
-81.5833
11
34.5544
21
-81.5833
0
LINE
8
BLACK
6
CONTINUOUS
10
95.497
20
-28.9489
11
95.4265
21
-28.9136
0
LINE
8
BLACK
6
CONTINUOUS
10
94.2797
20
-132.031
11
94.3503
21
-132.066
0
LINE
8
BLACK
6
CONTINUOUS
10
94.0859
20
-29.4075
11
94.0506
21
-29.4781
0
LINE
8
BLACK
6
CONTINUOUS
10
155.557
20
-81.5833
11
155.663
21
-81.5481
0
LINE
8
BLACK
6
CONTINUOUS
10
32.8611
20
-27.5731
11
33.0375
21
-27.4319
0
LINE
8
BLACK
6
CONTINUOUS
10
95.9378
20
-130.796
11
95.9025
21
-130.725
0
LINE
8
BLACK
6
CONTINUOUS
10
34.4839
20
-79.5725
11
34.3781
21
-79.6078
0
LINE
8
BLACK
6
CONTINUOUS
10
34.7075
20
-131.595
11
34.9544
21
-131.736
0
LINE
8
BLACK
6
CONTINUOUS
10
94.474
20
-30.7833
11
94.5445
21
-30.8186
0
LINE
8
BLACK
6
CONTINUOUS
10
157.356
20
-133.406
11
157.18
21
-133.548
0
LINE
8
BLACK
6
CONTINUOUS
10
155.24
20
-81.6186
11
155.31
21
-81.6186
0
LINE
8
BLACK
6
CONTINUOUS
10
35.3306
20
-81.4775
11
35.4011
21
-81.4069
0
LINE
8
BLACK
6
CONTINUOUS
10
95.9909
20
-30.2894
11
96.0262
21
-30.1836
0
LINE
8
BLACK
6
CONTINUOUS
10
94.0681
20
-130.796
11
94.0328
21
-130.866
0
LINE
8
BLACK
6
CONTINUOUS
10
155.24
20
-134.288
11
34.8014
21
-134.288
0
LINE
8
BLACK
6
CONTINUOUS
10
94.2976
20
-30.6069
11
94.3329
21
-30.6775
0
LINE
8
BLACK
6
CONTINUOUS
10
95.1969
20
-132.313
11
95.2675
21
-132.278
0
LINE
8
BLACK
6
CONTINUOUS
10
95.9731
20
-130.866
11
95.9378
21
-130.796
0
LINE
8
BLACK
6
CONTINUOUS
10
154.769
20
-29.3842
11
154.452
21
-29.4194
0
LINE
8
BLACK
6
CONTINUOUS
10
156.157
20
-27.0086
11
156.404
21
-27.1144
0
LINE
8
BLACK
6
CONTINUOUS
10
34.0958
20
-79.7842
11
34.0606
21
-79.8194
0
LINE
8
BLACK
6
CONTINUOUS
10
95.8851
20
-29.2664
11
95.8145
21
-29.1958
0
LINE
8
BLACK
6
CONTINUOUS
10
95.8145
20
-29.1958
11
95.7793
21
-29.1253
0
LINE
8
BLACK
6
CONTINUOUS
10
156.616
20
-27.185
11
156.827
21
-27.3261
0
LINE
8
BLACK
6
CONTINUOUS
10
153.993
20
-130.219
11
153.852
21
-130.502
0
LINE
8
BLACK
6
CONTINUOUS
10
154.852
20
-79.6078
11
154.781
21
-79.6431
0
LINE
8
BLACK
6
CONTINUOUS
10
36.2597
20
-30.3367
11
36.1892
21
-30.0544
0
LINE
8
BLACK
6
CONTINUOUS
10
33.7431
20
-80.6661
11
33.7431
21
-80.7367
0
LINE
8
BLACK
6
CONTINUOUS
10
94.5267
20
-130.337
11
94.4561
21
-130.373
0
LINE
8
BLACK
6
CONTINUOUS
10
154.452
20
-31.2892
11
154.769
21
-31.3244
0
LINE
8
BLACK
6
CONTINUOUS
10
155.416
20
-81.6186
11
155.487
21
-81.5833
0
LINE
8
BLACK
6
CONTINUOUS
10
34.3781
20
-79.6078
11
34.3075
21
-79.6431
0
LINE
8
BLACK
6
CONTINUOUS
10
32.3672
20
-133.054
11
32.2261
21
-132.842
0
LINE
8
BLACK
6
CONTINUOUS
10
155.334
20
-130.008
11
155.087
21
-129.867
0
LINE
8
BLACK
6
CONTINUOUS
10
155.804
20
-79.6783
11
155.734
21
-79.6431
0
LINE
8
BLACK
6
CONTINUOUS
10
34.3075
20
-81.5128
11
34.3781
21
-81.5481
0
LINE
8
BLACK
6
CONTINUOUS
10
153.781
20
-30.3367
11
153.852
21
-30.6542
0
LINE
8
BLACK
6
CONTINUOUS
10
34.8719
20
-81.6186
11
34.9425
21
-81.6186
0
LINE
8
BLACK
6
CONTINUOUS
10
31.8028
20
-131.501
11
31.8028
21
-131.254
0
LINE
8
BLACK
6
CONTINUOUS
10
33.8489
20
-81.0542
11
33.8842
21
-81.1247
0
LINE
8
BLACK
6
CONTINUOUS
10
34.8719
20
-79.5372
11
34.8014
21
-79.5372
0
LINE
8
BLACK
6
CONTINUOUS
10
153.781
20
-130.784
11
153.852
21
-131.101
0
LINE
8
BLACK
6
CONTINUOUS
10
33.8136
20
-80.1722
11
33.7783
21
-80.2428
0
LINE
8
BLACK
6
CONTINUOUS
10
156.227
20
-80.9131
11
156.263
21
-80.8072
0
LINE
8
BLACK
6
CONTINUOUS
10
154.217
20
-80.7367
11
154.217
21
-80.8072
0
LINE
8
BLACK
6
CONTINUOUS
10
96.0615
20
-29.8661
11
96.0615
21
-29.7956
0
LINE
8
BLACK
6
CONTINUOUS
10
155.981
20
-81.3011
11
156.051
21
-81.2658
0
LINE
8
BLACK
6
CONTINUOUS
10
154.922
20
-81.5833
11
154.993
21
-81.5833
0
LINE
8
BLACK
6
CONTINUOUS
10
154.781
20
-79.6431
11
154.711
21
-79.6783
0
LINE
8
BLACK
6
CONTINUOUS
10
154.499
20
-79.8194
11
154.464
21
-79.89
0
LINE
8
BLACK
6
CONTINUOUS
10
95.7614
20
-132.031
11
95.8319
21
-131.96
0
LINE
8
BLACK
6
CONTINUOUS
10
155.757
20
-30.3367
11
155.686
21
-30.0544
0
LINE
8
BLACK
6
CONTINUOUS
10
95.9204
20
-30.4306
11
95.9556
21
-30.36
0
LINE
8
BLACK
6
CONTINUOUS
10
156.227
20
-80.9836
11
156.227
21
-80.9131
0
LINE
8
BLACK
6
CONTINUOUS
10
31.8733
20
-29.1606
11
31.9439
21
-28.9489
0
LINE
8
BLACK
6
CONTINUOUS
10
154.452
20
-29.4194
11
154.205
21
-29.5606
0
LINE
8
BLACK
6
CONTINUOUS
10
154.464
20
-81.2658
11
154.499
21
-81.3011
0
LINE
8
BLACK
6
CONTINUOUS
10
155.663
20
-79.6078
11
155.557
21
-79.5725
0
LINE
8
BLACK
6
CONTINUOUS
10
158.027
20
-28.7372
11
158.097
21
-28.9489
0
LINE
8
BLACK
6
CONTINUOUS
10
153.993
20
-29.7722
11
153.852
21
-30.0544
0
LINE
8
BLACK
6
CONTINUOUS
10
94.474
20
-28.9842
11
94.4034
21
-29.0194
0
LINE
8
BLACK
6
CONTINUOUS
10
155.663
20
-81.5481
11
155.734
21
-81.5128
0
LINE
8
BLACK
6
CONTINUOUS
10
158.238
20
-29.6192
11
158.238
21
-29.8661
0
LINE
8
BLACK
6
CONTINUOUS
10
35.7892
20
-80.9131
11
35.8244
21
-80.8072
0
LINE
8
BLACK
6
CONTINUOUS
10
156.227
20
-80.1722
11
156.192
21
-80.1017
0
LINE
8
BLACK
6
CONTINUOUS
10
117.071
20
-57.2406
11
111.071
21
-57.2406
0
LINE
8
BLACK
6
CONTINUOUS
10
95.0911
20
-130.231
11
95.0206
21
-130.231
0
LINE
8
BLACK
6
CONTINUOUS
10
154.205
20
-29.5606
11
153.993
21
-29.7722
0
LINE
8
BLACK
6
CONTINUOUS
10
95.4086
20
-132.242
11
95.4792
21
-132.207
0
LINE
8
BLACK
6
CONTINUOUS
10
155.757
20
-130.784
11
155.686
21
-130.502
0
LINE
8
BLACK
6
CONTINUOUS
10
35.4717
20
-81.3717
11
35.5422
21
-81.3011
0
LINE
8
BLACK
6
CONTINUOUS
10
158.027
20
-132.419
11
157.921
21
-132.63
0
LINE
8
BLACK
6
CONTINUOUS
10
34.4958
20
-29.7722
11
34.3547
21
-30.0544
0
LINE
8
BLACK
6
CONTINUOUS
10
35.5542
20
-31.2892
11
35.8364
21
-31.1481
0
LINE
8
BLACK
6
CONTINUOUS
10
33.9547
20
-79.9606
11
33.8842
21
-80.0311
0
LINE
8
BLACK
6
CONTINUOUS
10
32.1203
20
-132.63
11
32.0144
21
-132.419
0
LINE
8
BLACK
6
CONTINUOUS
10
94.3856
20
-132.136
11
94.4561
21
-132.172
0
LINE
8
BLACK
6
CONTINUOUS
10
94.7031
20
-132.278
11
94.7736
21
-132.278
0
LINE
8
BLACK
6
CONTINUOUS
10
95.8851
20
-30.5011
11
95.9204
21
-30.4306
0
LINE
8
BLACK
6
CONTINUOUS
10
33.6372
20
-27.1144
11
33.8489
21
-27.0086
0
LINE
8
BLACK
6
CONTINUOUS
10
34.7075
20
-130.008
11
34.4958
21
-130.219
0
LINE
8
BLACK
6
CONTINUOUS
10
94.1739
20
-130.655
11
94.1386
21
-130.725
0
LINE
8
BLACK
6
CONTINUOUS
10
155.487
20
-134.253
11
155.24
21
-134.288
0
LINE
8
BLACK
6
CONTINUOUS
10
95.7793
20
-30.6069
11
95.8145
21
-30.5364
0
LINE
8
BLACK
6
CONTINUOUS
10
33.7783
20
-80.9131
11
33.8136
21
-80.9836
0
LINE
8
BLACK
6
CONTINUOUS
10
154.993
20
-81.5833
11
155.063
21
-81.6186
0
LINE
8
BLACK
6
CONTINUOUS
10
94.8442
20
-132.313
11
94.95
21
-132.313
0
LINE
8
BLACK
6
CONTINUOUS
10
94.0681
20
-131.748
11
94.1386
21
-131.819
0
LINE
8
BLACK
6
CONTINUOUS
10
93.9622
20
-131.184
11
93.9622
21
-131.29
0
LINE
8
BLACK
6
CONTINUOUS
10
155.087
20
-29.4194
11
154.769
21
-29.3842
0
LINE
8
BLACK
6
CONTINUOUS
10
34.1664
20
-79.7136
11
34.0958
21
-79.7842
0
LINE
8
BLACK
6
CONTINUOUS
10
35.5542
20
-129.867
11
35.2719
21
-129.831
0
LINE
8
BLACK
6
CONTINUOUS
10
35.7892
20
-80.2428
11
35.7539
21
-80.1722
0
LINE
8
BLACK
6
CONTINUOUS
10
32.6847
20
-27.7494
11
32.8611
21
-27.5731
0
LINE
8
BLACK
6
CONTINUOUS
10
33.2139
20
-27.3261
11
33.4256
21
-27.185
0
LINE
8
BLACK
6
CONTINUOUS
10
34.9544
20
-131.736
11
35.2719
21
-131.772
0
LINE
8
BLACK
6
CONTINUOUS
10
33.4256
20
-27.185
11
33.6372
21
-27.1144
0
LINE
8
BLACK
6
CONTINUOUS
10
96.0615
20
-29.9367
11
96.0615
21
-29.8661
0
LINE
8
BLACK
6
CONTINUOUS
10
94.1386
20
-131.819
11
94.1739
21
-131.889
0
LINE
8
BLACK
6
CONTINUOUS
10
157.18
20
-133.548
11
157.004
21
-133.689
0
LINE
8
BLACK
6
CONTINUOUS
10
155.31
20
-79.5372
11
155.24
21
-79.5372
0
LINE
8
BLACK
6
CONTINUOUS
10
94.4561
20
-130.373
11
94.3856
21
-130.408
0
LINE
8
BLACK
6
CONTINUOUS
10
95.5676
20
-30.7833
11
95.6381
21
-30.7128
0
LINE
8
BLACK
6
CONTINUOUS
10
95.9204
20
-29.3369
11
95.8851
21
-29.2664
0
LINE
8
BLACK
6
CONTINUOUS
10
34.0606
20
-81.3011
11
34.0958
21
-81.3717
0
LINE
8
BLACK
6
CONTINUOUS
10
95.4792
20
-130.337
11
95.4086
21
-130.302
0
LINE
8
BLACK
6
CONTINUOUS
10
155.487
20
-26.8675
11
155.698
21
-26.9028
0
LINE
8
BLACK
6
CONTINUOUS
10
95.2675
20
-132.278
11
95.3381
21
-132.278
0
LINE
8
BLACK
6
CONTINUOUS
10
154.181
20
-80.5603
11
154.181
21
-80.6661
0
LINE
8
BLACK
6
CONTINUOUS
10
95.585
20
-130.373
11
95.4792
21
-130.337
0
LINE
8
BLACK
6
CONTINUOUS
10
32.2261
20
-28.3139
11
32.3672
21
-28.1022
0
LINE
8
BLACK
6
CONTINUOUS
10
36.2597
20
-130.784
11
36.1892
21
-130.502
0
LINE
8
BLACK
6
CONTINUOUS
10
156.298
20
-80.6661
11
156.298
21
-80.5603
0
LINE
8
BLACK
6
CONTINUOUS
10
34.4958
20
-130.219
11
34.3547
21
-130.502
0
LINE
8
BLACK
6
CONTINUOUS
10
35.26
20
-79.6431
11
35.1894
21
-79.6078
0
LINE
8
BLACK
6
CONTINUOUS
10
96.0083
20
-131.607
11
96.0436
21
-131.501
0
LINE
8
BLACK
6
CONTINUOUS
10
155.087
20
-131.736
11
155.334
21
-131.595
0
LINE
8
BLACK
6
CONTINUOUS
10
156.051
20
-79.89
11
155.981
21
-79.8194
0
LINE
8
BLACK
6
CONTINUOUS
10
95.3559
20
-28.8783
11
95.2501
21
-28.8431
0
LINE
8
BLACK
6
CONTINUOUS
10
95.4086
20
-130.302
11
95.3381
21
-130.267
0
LINE
8
BLACK
6
CONTINUOUS
10
95.0384
20
-30.9244
11
95.109
21
-30.9244
0
LINE
8
BLACK
6
CONTINUOUS
10
35.0483
20
-79.5372
11
34.9425
21
-79.5372
0
LINE
8
BLACK
6
CONTINUOUS
10
94.2797
20
-130.514
11
94.2092
21
-130.584
0
LINE
8
BLACK
6
CONTINUOUS
10
155.698
20
-134.253
11
155.487
21
-134.253
0
LINE
8
BLACK
6
CONTINUOUS
10
33.7783
20
-80.8072
11
33.7783
21
-80.9131
0
LINE
8
BLACK
6
CONTINUOUS
10
34.8014
20
-81.6186
11
34.8719
21
-81.6186
0
LINE
8
BLACK
6
CONTINUOUS
10
154.205
20
-131.595
11
154.452
21
-131.736
0
LINE
8
BLACK
6
CONTINUOUS
10
94.5267
20
-132.207
11
94.6325
21
-132.242
0
LINE
8
BLACK
6
CONTINUOUS
10
96.0615
20
-30.0425
11
96.0615
21
-29.9367
0
LINE
8
BLACK
6
CONTINUOUS
10
32.0144
20
-132.419
11
31.9439
21
-132.207
0
LINE
8
BLACK
6
CONTINUOUS
10
156.227
20
-80.2428
11
156.227
21
-80.1722
0
LINE
8
BLACK
6
CONTINUOUS
10
94.227
20
-29.1958
11
94.1565
21
-29.2664
0
LINE
8
BLACK
6
CONTINUOUS
10
95.3381
20
-132.278
11
95.4086
21
-132.242
0
LINE
8
BLACK
6
CONTINUOUS
10
155.545
20
-30.9364
11
155.686
21
-30.6542
0
LINE
8
BLACK
6
CONTINUOUS
10
34.7075
20
-29.5606
11
34.4958
21
-29.7722
0
LINE
8
BLACK
6
CONTINUOUS
10
94.95
20
-130.231
11
94.8442
21
-130.231
0
LINE
8
BLACK
6
CONTINUOUS
10
94.2092
20
-130.584
11
94.1739
21
-130.655
0
LINE
8
BLACK
6
CONTINUOUS
10
155.487
20
-81.5833
11
155.557
21
-81.5833
0
LINE
8
BLACK
6
CONTINUOUS
10
95.4265
20
-30.8539
11
95.497
21
-30.8186
0
LINE
8
BLACK
6
CONTINUOUS
10
35.8364
20
-131.595
11
36.0481
21
-131.384
0
LINE
8
BLACK
6
CONTINUOUS
10
36.1892
20
-30.6542
11
36.2597
21
-30.3367
0
LINE
8
BLACK
6
CONTINUOUS
10
155.063
20
-79.5372
11
154.993
21
-79.5372
0
LINE
8
BLACK
6
CONTINUOUS
10
96.0436
20
-131.431
11
96.0789
21
-131.36
0
LINE
8
BLACK
6
CONTINUOUS
10
154.499
20
-81.3011
11
154.569
21
-81.3717
0
LINE
8
BLACK
6
CONTINUOUS
10
96.0262
20
-29.5486
11
95.9909
21
-29.4781
0
LINE
8
BLACK
6
CONTINUOUS
10
34.9544
20
-31.2892
11
35.2719
21
-31.3244
0
LINE
8
BLACK
6
CONTINUOUS
10
35.8597
20
-80.5603
11
35.8244
21
-80.4897
0
LINE
8
BLACK
6
CONTINUOUS
10
93.9801
20
-29.7956
11
93.9801
21
-29.8661
0
LINE
8
BLACK
6
CONTINUOUS
10
155.875
20
-79.7136
11
155.804
21
-79.6783
0
LINE
8
BLACK
6
CONTINUOUS
10
34.6956
20
-79.5372
11
34.625
21
-79.5372
0
LINE
8
BLACK
6
CONTINUOUS
10
95.7614
20
-130.514
11
95.6908
21
-130.478
0
LINE
8
BLACK
6
CONTINUOUS
10
33.7431
20
-80.7367
11
33.7783
21
-80.8072
0
LINE
8
BLACK
6
CONTINUOUS
10
156.298
20
-80.4897
11
156.298
21
-80.4192
0
LINE
8
BLACK
6
CONTINUOUS
10
154.769
20
-129.831
11
154.452
21
-129.867
0
LINE
8
BLACK
6
CONTINUOUS
10
156.298
20
-80.5603
11
156.298
21
-80.4897
0
LINE
8
BLACK
6
CONTINUOUS
10
95.8672
20
-131.889
11
95.9025
21
-131.819
0
LINE
8
BLACK
6
CONTINUOUS
10
34.3547
20
-130.502
11
34.2842
21
-130.784
0
LINE
8
BLACK
6
CONTINUOUS
10
94.4034
20
-30.7128
11
94.474
21
-30.7833
0
LINE
8
BLACK
6
CONTINUOUS
10
35.5422
20
-81.3011
11
35.5775
21
-81.2658
0
LINE
8
BLACK
6
CONTINUOUS
10
34.3547
20
-30.0544
11
34.2842
21
-30.3367
0
LINE
8
BLACK
6
CONTINUOUS
10
35.6481
20
-79.9606
11
35.5775
21
-79.89
0
LINE
8
BLACK
6
CONTINUOUS
10
153.993
20
-30.9364
11
154.205
21
-31.1481
0
LINE
8
BLACK
6
CONTINUOUS
10
34.8014
20
-26.8675
11
155.24
21
-26.8675
0
LINE
8
BLACK
6
CONTINUOUS
10
155.487
20
-79.5372
11
155.416
21
-79.5372
0
LINE
8
BLACK
6
CONTINUOUS
10
158.097
20
-28.9489
11
158.168
21
-29.1606
0
LINE
8
BLACK
6
CONTINUOUS
10
155.875
20
-81.4069
11
155.91
21
-81.3717
0
LINE
8
BLACK
6
CONTINUOUS
10
157.815
20
-132.842
11
157.674
21
-133.054
0
LINE
8
BLACK
6
CONTINUOUS
10
34.3547
20
-131.101
11
34.4958
21
-131.384
0
LINE
8
BLACK
6
CONTINUOUS
10
157.004
20
-133.689
11
156.827
21
-133.83
0
LINE
8
BLACK
6
CONTINUOUS
10
94.9326
20
-28.8078
11
94.862
21
-28.8431
0
LINE
8
BLACK
6
CONTINUOUS
10
155.804
20
-81.4775
11
155.875
21
-81.4069
0
LINE
8
BLACK
6
CONTINUOUS
10
111.071
20
-44.2406
11
117.071
21
-44.2406
0
LINE
8
BLACK
6
CONTINUOUS
10
155.416
20
-79.5372
11
155.31
21
-79.5372
0
LINE
8
BLACK
6
CONTINUOUS
10
32.3672
20
-28.1022
11
32.5083
21
-27.9258
0
LINE
8
BLACK
6
CONTINUOUS
10
32.0144
20
-28.7372
11
32.1203
21
-28.5256
0
LINE
8
BLACK
6
CONTINUOUS
10
95.8672
20
-130.655
11
95.8319
21
-130.584
0
LINE
8
BLACK
6
CONTINUOUS
10
154.769
20
-31.3244
11
155.087
21
-31.2892
0
LINE
8
BLACK
6
CONTINUOUS
10
94.0859
20
-30.36
11
94.1212
21
-30.4306
0
LINE
8
BLACK
6
CONTINUOUS
10
154.217
20
-80.3133
11
154.217
21
-80.4192
0
LINE
8
BLACK
6
CONTINUOUS
10
94.5445
20
-28.9489
11
94.474
21
-28.9842
0
LINE
8
BLACK
6
CONTINUOUS
10
94.6325
20
-130.302
11
94.5267
21
-130.337
0
LINE
8
BLACK
6
CONTINUOUS
10
94.7031
20
-130.267
11
94.6325
21
-130.302
0
LINE
8
BLACK
6
CONTINUOUS
10
31.8733
20
-131.96
11
31.8381
21
-131.748
0
LINE
8
BLACK
6
CONTINUOUS
10
36.1892
20
-130.502
11
36.0481
21
-130.219
0
LINE
8
BLACK
6
CONTINUOUS
10
157.674
20
-28.1022
11
157.815
21
-28.3139
0
LINE
8
BLACK
6
CONTINUOUS
10
157.921
20
-132.63
11
157.815
21
-132.842
0
LINE
8
BLACK
6
CONTINUOUS
10
35.7186
20
-81.0542
11
35.7539
21
-80.9836
0
LINE
8
BLACK
6
CONTINUOUS
10
34.625
20
-79.5372
11
34.5544
21
-79.5372
0
LINE
8
BLACK
6
CONTINUOUS
10
34.1664
20
-81.4069
11
34.2369
21
-81.4775
0
LINE
8
BLACK
6
CONTINUOUS
10
95.585
20
-132.172
11
95.6203
21
-132.136
0
LINE
8
BLACK
6
CONTINUOUS
10
34.3781
20
-81.5481
11
34.4839
21
-81.5833
0
LINE
8
BLACK
6
CONTINUOUS
10
95.2501
20
-28.8431
11
95.1795
21
-28.8431
0
LINE
8
BLACK
6
CONTINUOUS
10
32.2261
20
-132.842
11
32.1203
21
-132.63
0
LINE
8
BLACK
6
CONTINUOUS
10
95.109
20
-28.8078
11
95.0384
21
-28.8078
0
LINE
8
BLACK
6
CONTINUOUS
10
155.24
20
-26.8675
11
155.487
21
-26.8675
0
LINE
8
BLACK
6
CONTINUOUS
10
31.8028
20
-131.254
11
31.8028
21
-29.8661
0
LINE
8
BLACK
6
CONTINUOUS
10
35.1189
20
-81.5833
11
35.1894
21
-81.5481
0
LINE
8
BLACK
6
CONTINUOUS
10
153.852
20
-30.6542
11
153.993
21
-30.9364
0
LINE
8
BLACK
6
CONTINUOUS
10
93.9622
20
-131.36
11
93.9975
21
-131.431
0
LINE
8
BLACK
6
CONTINUOUS
10
34.7075
20
-31.1481
11
34.9544
21
-31.2892
0
LINE
8
BLACK
6
CONTINUOUS
10
33.7431
20
-80.4192
11
33.7431
21
-80.4897
0
LINE
8
BLACK
6
CONTINUOUS
10
156.404
20
-27.1144
11
156.616
21
-27.185
0
LINE
8
BLACK
6
CONTINUOUS
10
95.0911
20
-132.313
11
95.1969
21
-132.313
0
LINE
8
BLACK
6
CONTINUOUS
10
95.1795
20
-30.9244
11
95.2501
21
-30.8892
0
LINE
8
BLACK
6
CONTINUOUS
10
154.358
20
-80.0311
11
154.322
21
-80.1017
0
LINE
8
BLACK
6
CONTINUOUS
10
33.4256
20
-133.936
11
33.2139
21
-133.83
0
LINE
8
BLACK
6
CONTINUOUS
10
33.99
20
-81.2658
11
34.0606
21
-81.3011
0
LINE
8
BLACK
6
CONTINUOUS
10
95.3559
20
-30.8539
11
95.4265
21
-30.8539
0
LINE
8
BLACK
6
CONTINUOUS
10
33.8489
20
-27.0086
11
34.0958
21
-26.9381
0
LINE
8
BLACK
6
CONTINUOUS
10
96.0789
20
-131.36
11
96.0789
21
-131.29
0
LINE
8
BLACK
6
CONTINUOUS
10
155.686
20
-130.502
11
155.545
21
-130.219
0
LINE
8
BLACK
6
CONTINUOUS
10
95.7793
20
-29.1253
11
95.7087
21
-29.09
0
LINE
8
BLACK
6
CONTINUOUS
10
154.64
20
-79.7136
11
154.569
21
-79.7842
0
LINE
8
BLACK
6
CONTINUOUS
10
156.263
20
-80.8072
11
156.298
21
-80.7367
0
LINE
8
BLACK
6
CONTINUOUS
10
35.2719
20
-129.831
11
34.9544
21
-129.867
0
LINE
8
BLACK
6
CONTINUOUS
10
95.8145
20
-30.5364
11
95.8851
21
-30.5011
0
LINE
8
BLACK
6
CONTINUOUS
10
31.8028
20
-29.6192
11
31.8381
21
-29.4075
0
LINE
8
BLACK
6
CONTINUOUS
10
157.921
20
-28.5256
11
158.027
21
-28.7372
0
LINE
8
BLACK
6
CONTINUOUS
10
95.2501
20
-30.8892
11
95.3559
21
-30.8539
0
LINE
8
BLACK
6
CONTINUOUS
10
35.2719
20
-31.3244
11
35.5542
21
-31.2892
0
LINE
8
BLACK
6
CONTINUOUS
10
34.0958
20
-26.9381
11
34.3075
21
-26.9028
0
LINE
8
BLACK
6
CONTINUOUS
10
157.533
20
-27.9258
11
157.674
21
-28.1022
0
LINE
8
BLACK
6
CONTINUOUS
10
33.6372
20
-134.041
11
33.4256
21
-133.936
0
LINE
8
BLACK
6
CONTINUOUS
10
96.0789
20
-131.29
11
96.0789
21
-131.184
0
LINE
8
BLACK
6
CONTINUOUS
10
94.1565
20
-30.5011
11
94.227
21
-30.5364
0
LINE
8
BLACK
6
CONTINUOUS
10
95.497
20
-30.8186
11
95.5676
21
-30.7833
0
LINE
8
BLACK
6
CONTINUOUS
10
95.9025
20
-131.819
11
95.9378
21
-131.748
0
LINE
8
BLACK
6
CONTINUOUS
10
156.051
20
-81.2658
11
156.086
21
-81.1953
0
LINE
8
BLACK
6
CONTINUOUS
10
94.1212
20
-29.3369
11
94.0859
21
-29.4075
0
LINE
8
BLACK
6
CONTINUOUS
10
156.616
20
-133.936
11
156.404
21
-134.041
0
LINE
8
BLACK
6
CONTINUOUS
10
154.217
20
-80.8072
11
154.252
21
-80.9131
0
LINE
8
BLACK
6
CONTINUOUS
10
156.263
20
-80.3133
11
156.227
21
-80.2428
0
LINE
8
BLACK
6
CONTINUOUS
10
154.993
20
-79.5372
11
154.922
21
-79.5725
0
LINE
8
BLACK
6
CONTINUOUS
10
32.5083
20
-133.23
11
32.3672
21
-133.054
0
LINE
8
BLACK
6
CONTINUOUS
10
34.2842
20
-130.784
11
34.3547
21
-131.101
0
LINE
8
BLACK
6
CONTINUOUS
10
35.1189
20
-79.5725
11
35.0483
21
-79.5372
0
LINE
8
BLACK
6
CONTINUOUS
10
95.1795
20
-28.8431
11
95.109
21
-28.8078
0
LINE
8
BLACK
6
CONTINUOUS
10
96.0262
20
-30.1836
11
96.0262
21
-30.1131
0
LINE
8
BLACK
6
CONTINUOUS
10
154.452
20
-131.736
11
154.769
21
-131.772
0
LINE
8
BLACK
6
CONTINUOUS
10
95.5676
20
-28.9842
11
95.497
21
-28.9489
0
LINE
8
BLACK
6
CONTINUOUS
10
154.569
20
-81.3717
11
154.64
21
-81.4069
0
LINE
8
BLACK
6
CONTINUOUS
10
94.0328
20
-130.866
11
94.0328
21
-130.937
0
LINE
8
BLACK
6
CONTINUOUS
10
156.404
20
-134.041
11
156.157
21
-134.112
0
LINE
8
BLACK
6
CONTINUOUS
10
156.192
20
-81.0542
11
156.227
21
-80.9836
0
LINE
8
BLACK
6
CONTINUOUS
10
157.004
20
-27.4319
11
157.18
21
-27.5731
0
LINE
8
BLACK
6
CONTINUOUS
10
154.217
20
-80.4192
11
154.181
21
-80.4897
0
LINE
8
BLACK
6
CONTINUOUS
10
35.4717
20
-79.7842
11
35.4011
21
-79.7136
0
LINE
8
BLACK
6
CONTINUOUS
10
94.6856
20
-30.8539
11
94.7915
21
-30.8892
0
LINE
8
BLACK
6
CONTINUOUS
10
94.1386
20
-130.725
11
94.0681
21
-130.796
0
LINE
8
BLACK
6
CONTINUOUS
10
35.8244
20
-80.3133
11
35.7892
21
-80.2428
0
LINE
8
BLACK
6
CONTINUOUS
10
95.9556
20
-29.4075
11
95.9204
21
-29.3369
0
LINE
8
BLACK
6
CONTINUOUS
10
153.852
20
-131.101
11
153.993
21
-131.384
0
LINE
8
BLACK
6
CONTINUOUS
10
35.3306
20
-79.6783
11
35.26
21
-79.6431
0
LINE
8
BLACK
6
CONTINUOUS
10
93.9975
20
-131.113
11
93.9622
21
-131.184
0
LINE
8
BLACK
6
CONTINUOUS
10
35.8244
20
-80.4897
11
35.8244
21
-80.4192
0
LINE
8
BLACK
6
CONTINUOUS
10
155.334
20
-31.1481
11
155.545
21
-30.9364
0
LINE
8
BLACK
6
CONTINUOUS
10
94.3503
20
-130.478
11
94.2797
21
-130.514
0
LINE
8
BLACK
6
CONTINUOUS
10
93.9622
20
-131.29
11
93.9622
21
-131.36
0
LINE
8
BLACK
6
CONTINUOUS
10
35.5422
20
-79.8194
11
35.4717
21
-79.7842
0
LINE
8
BLACK
6
CONTINUOUS
10
153.852
20
-130.502
11
153.781
21
-130.784
0
LINE
8
BLACK
6
CONTINUOUS
10
35.5775
20
-79.89
11
35.5422
21
-79.8194
0
LINE
8
BLACK
6
CONTINUOUS
10
93.9975
20
-131.501
11
94.0328
21
-131.607
0
LINE
8
BLACK
6
CONTINUOUS
10
157.18
20
-27.5731
11
157.356
21
-27.7494
0
LINE
8
BLACK
6
CONTINUOUS
10
156.086
20
-79.9606
11
156.051
21
-79.89
0
LINE
8
BLACK
6
CONTINUOUS
10
155.087
20
-31.2892
11
155.334
21
-31.1481
0
LINE
8
BLACK
6
CONTINUOUS
10
34.2369
20
-81.4775
11
34.3075
21
-81.5128
0
LINE
8
BLACK
6
CONTINUOUS
10
33.7783
20
-80.2428
11
33.7783
21
-80.3133
0
LINE
8
BLACK
6
CONTINUOUS
10
156.827
20
-133.83
11
156.616
21
-133.936
0
LINE
8
BLACK
6
CONTINUOUS
10
35.8244
20
-80.4192
11
35.8244
21
-80.3133
0
LINE
8
BLACK
6
CONTINUOUS
10
155.24
20
-79.5372
11
155.169
21
-79.5372
0
LINE
8
BLACK
6
CONTINUOUS
10
155.334
20
-29.5606
11
155.087
21
-29.4194
0
LINE
8
BLACK
6
CONTINUOUS
10
155.686
20
-131.101
11
155.757
21
-130.784
0
LINE
8
BLACK
6
CONTINUOUS
10
32.8611
20
-133.548
11
32.6847
21
-133.406
0
LINE
8
BLACK
6
CONTINUOUS
10
94.3329
20
-30.6775
11
94.4034
21
-30.7128
0
LINE
8
BLACK
6
CONTINUOUS
10
34.9425
20
-79.5372
11
34.8719
21
-79.5372
0
LINE
8
BLACK
6
CONTINUOUS
10
155.91
20
-79.7842
11
155.875
21
-79.7136
0
LINE
8
BLACK
6
CONTINUOUS
10
33.8489
20
-80.1017
11
33.8136
21
-80.1722
0
LINE
8
BLACK
6
CONTINUOUS
10
94.4561
20
-132.172
11
94.5267
21
-132.207
0
LINE
8
BLACK
6
CONTINUOUS
10
34.0958
20
-134.182
11
33.8489
21
-134.112
0
LINE
8
BLACK
6
CONTINUOUS
10
35.6481
20
-81.1953
11
35.6833
21
-81.1247
0
LINE
8
BLACK
6
CONTINUOUS
10
33.9547
20
-81.1953
11
33.99
21
-81.2658
0
LINE
8
BLACK
6
CONTINUOUS
10
35.0483
20
-81.5833
11
35.1189
21
-81.5833
0
LINE
8
BLACK
6
CONTINUOUS
10
156.298
20
-80.4192
11
156.263
21
-80.3133
0
LINE
8
BLACK
6
CONTINUOUS
10
158.203
20
-131.748
11
158.168
21
-131.96
0
LINE
8
BLACK
6
CONTINUOUS
10
155.063
20
-81.6186
11
155.169
21
-81.6186
0
LINE
8
BLACK
6
CONTINUOUS
10
158.238
20
-29.8661
11
158.238
21
-131.29
0
LINE
8
BLACK
6
CONTINUOUS
10
35.8244
20
-80.6661
11
35.8597
21
-80.5603
0
LINE
8
BLACK
6
CONTINUOUS
10
95.0384
20
-28.8078
11
94.9326
21
-28.8078
0
LINE
8
BLACK
6
CONTINUOUS
10
95.0206
20
-130.231
11
94.95
21
-130.231
0
LINE
8
BLACK
6
CONTINUOUS
10
33.7431
20
-80.5603
11
33.7431
21
-80.6661
0
LINE
8
BLACK
6
CONTINUOUS
10
35.6833
20
-80.0311
11
35.6481
21
-79.9606
0
LINE
8
BLACK
6
CONTINUOUS
10
34.5544
20
-81.5833
11
34.625
21
-81.6186
0
LINE
8
BLACK
6
CONTINUOUS
10
94.0328
20
-130.937
11
93.9975
21
-131.043
0
LINE
8
BLACK
6
CONTINUOUS
10
93.9975
20
-131.431
11
93.9975
21
-131.501
0
LINE
8
BLACK
6
CONTINUOUS
10
96.0262
20
-29.6192
11
96.0262
21
-29.5486
0
LINE
8
BLACK
6
CONTINUOUS
10
94.0506
20
-30.2894
11
94.0859
21
-30.36
0
LINE
8
BLACK
6
CONTINUOUS
10
94.4034
20
-29.0194
11
94.3329
21
-29.09
0
LINE
8
BLACK
6
CONTINUOUS
10
34.2842
20
-30.3367
11
34.3547
21
-30.6542
0
LINE
8
BLACK
6
CONTINUOUS
10
33.8136
20
-80.9836
11
33.8489
21
-81.0542
0
LINE
8
BLACK
6
CONTINUOUS
10
95.9731
20
-131.678
11
96.0083
21
-131.607
0
LINE
8
BLACK
6
CONTINUOUS
10
154.711
20
-79.6783
11
154.64
21
-79.7136
0
LINE
8
BLACK
6
CONTINUOUS
10
155.31
20
-81.6186
11
155.416
21
-81.6186
0
LINE
8
BLACK
6
CONTINUOUS
10
94.7915
20
-30.8892
11
94.862
21
-30.9244
0
LINE
8
BLACK
6
CONTINUOUS
10
117.071
20
-44.2406
11
117.071
21
-57.2406
0
LINE
8
BLACK
6
CONTINUOUS
10
95.6203
20
-132.136
11
95.6908
21
-132.066
0
LINE
8
BLACK
6
CONTINUOUS
10
155.686
20
-30.6542
11
155.757
21
-30.3367
0
LINE
8
BLACK
6
CONTINUOUS
10
94.3856
20
-130.408
11
94.3503
21
-130.478
0
LINE
8
BLACK
6
CONTINUOUS
10
158.168
20
-29.1606
11
158.203
21
-29.4075
0
LINE
8
BLACK
6
CONTINUOUS
10
34.2369
20
-79.6783
11
34.1664
21
-79.7136
0
LINE
8
BLACK
6
CONTINUOUS
10
155.945
20
-134.182
11
155.698
21
-134.253
0
LINE
8
BLACK
6
CONTINUOUS
10
35.8244
20
-80.7367
11
35.8244
21
-80.6661
0
LINE
8
BLACK
6
CONTINUOUS
10
154.393
20
-79.9606
11
154.358
21
-80.0311
0
LINE
8
BLACK
6
CONTINUOUS
10
155.557
20
-79.5725
11
155.487
21
-79.5372
0
LINE
8
BLACK
6
CONTINUOUS
10
35.1894
20
-81.5481
11
35.26
21
-81.5128
0
LINE
8
BLACK
6
CONTINUOUS
10
96.0615
20
-29.6897
11
96.0262
21
-29.6192
0
LINE
8
BLACK
6
CONTINUOUS
10
33.0375
20
-27.4319
11
33.2139
21
-27.3261
0
LINE
8
BLACK
6
CONTINUOUS
10
96.0436
20
-131.043
11
96.0083
21
-130.937
0
LINE
8
BLACK
6
CONTINUOUS
10
158.097
20
-132.207
11
158.027
21
-132.419
0
LINE
8
BLACK
6
CONTINUOUS
10
154.711
20
-81.4775
11
154.781
21
-81.5128
0
LINE
8
BLACK
6
CONTINUOUS
10
95.7087
20
-30.6775
11
95.7793
21
-30.6069
0
LINE
8
BLACK
6
CONTINUOUS
10
154.569
20
-79.7842
11
154.499
21
-79.8194
0
LINE
8
BLACK
6
CONTINUOUS
10
94.5445
20
-30.8186
11
94.6151
21
-30.8539
0
LINE
8
BLACK
6
CONTINUOUS
10
94.862
20
-30.9244
11
94.9326
21
-30.9244
0
LINE
8
BLACK
6
CONTINUOUS
10
156.192
20
-80.1017
11
156.157
21
-80.0311
0
LINE
8
BLACK
6
CONTINUOUS
10
95.4792
20
-132.207
11
95.585
21
-132.172
0
LINE
8
BLACK
6
CONTINUOUS
10
156.086
20
-81.1953
11
156.157
21
-81.1247
0
LINE
8
BLACK
6
CONTINUOUS
10
35.4011
20
-79.7136
11
35.3306
21
-79.6783
0
LINE
8
BLACK
6
CONTINUOUS
10
36.0481
20
-29.7722
11
35.8364
21
-29.5606
0
LINE
8
BLACK
6
CONTINUOUS
10
96.0615
20
-29.7956
11
96.0615
21
-29.6897
0
LINE
8
BLACK
6
CONTINUOUS
10
154.393
20
-81.1953
11
154.464
21
-81.2658
0
LINE
8
BLACK
6
CONTINUOUS
10
94.6151
20
-30.8539
11
94.6856
21
-30.8539
0
LINE
8
BLACK
6
CONTINUOUS
10
154.252
20
-80.9131
11
154.287
21
-80.9836
0
LINE
8
BLACK
6
CONTINUOUS
10
95.2675
20
-130.267
11
95.1969
21
-130.231
0
LINE
8
BLACK
6
CONTINUOUS
10
31.8381
20
-29.4075
11
31.8733
21
-29.1606
0
LINE
8
BLACK
6
CONTINUOUS
10
35.2719
20
-131.772
11
35.5542
21
-131.736
0
LINE
8
BLACK
6
CONTINUOUS
10
34.0606
20
-79.8194
11
33.99
21
-79.89
0
LINE
8
BLACK
6
CONTINUOUS
10
93.9801
20
-29.6897
11
93.9801
21
-29.7956
0
LINE
8
BLACK
6
CONTINUOUS
10
94.1739
20
-131.889
11
94.2092
21
-131.96
0
LINE
8
BLACK
6
CONTINUOUS
10
155.91
20
-81.3717
11
155.981
21
-81.3011
0
LINE
8
BLACK
6
CONTINUOUS
10
34.9425
20
-81.6186
11
35.0483
21
-81.5833
0
LINE
8
BLACK
6
CONTINUOUS
10
95.4265
20
-28.9136
11
95.3559
21
-28.8783
0
LINE
8
BLACK
6
CONTINUOUS
10
96.0436
20
-131.113
11
96.0436
21
-131.043
0
LINE
8
BLACK
6
CONTINUOUS
10
155.945
20
-26.9381
11
156.157
21
-27.0086
0
LINE
8
BLACK
6
CONTINUOUS
10
93.9975
20
-131.043
11
93.9975
21
-131.113
0
LINE
8
BLACK
6
CONTINUOUS
10
93.9801
20
-30.0425
11
94.0154
21
-30.1131
0
LINE
8
BLACK
6
CONTINUOUS
10
33.7431
20
-80.4897
11
33.7431
21
-80.5603
0
LINE
8
BLACK
6
CONTINUOUS
10
154.852
20
-81.5481
11
154.922
21
-81.5833
0
LINE
8
BLACK
6
CONTINUOUS
10
34.0958
20
-81.3717
11
34.1664
21
-81.4069
0
LINE
8
BLACK
6
CONTINUOUS
10
34.4958
20
-30.9364
11
34.7075
21
-31.1481
0
LINE
8
BLACK
6
CONTINUOUS
10
95.6203
20
-130.408
11
95.585
21
-130.373
0
LINE
8
BLACK
6
CONTINUOUS
10
96.0789
20
-131.184
11
96.0436
21
-131.113
0
LINE
8
BLACK
6
CONTINUOUS
10
93.9801
20
-29.8661
11
93.9801
21
-29.9367
0
LINE
8
BLACK
6
CONTINUOUS
10
155.981
20
-79.8194
11
155.91
21
-79.7842
0
LINE
8
BLACK
6
CONTINUOUS
10
155.734
20
-79.6431
11
155.663
21
-79.6078
0
LINE
8
BLACK
6
CONTINUOUS
10
94.9326
20
-30.9244
11
95.0384
21
-30.9244
0
LINE
8
BLACK
6
CONTINUOUS
10
94.0154
20
-30.1131
11
94.0154
21
-30.1836
0
LINE
8
BLACK
6
CONTINUOUS
10
34.3075
20
-134.253
11
34.0958
21
-134.182
0
LINE
8
BLACK
6
CONTINUOUS
10
94.6856
20
-28.8783
11
94.6151
21
-28.9136
0
LINE
8
BLACK
6
CONTINUOUS
10
34.8014
20
-79.5372
11
34.6956
21
-79.5372
0
LINE
8
BLACK
6
CONTINUOUS
10
94.2092
20
-131.96
11
94.2797
21
-132.031
0
LINE
8
BLACK
6
CONTINUOUS
10
95.9025
20
-130.725
11
95.8672
21
-130.655
0
LINE
8
BLACK
6
CONTINUOUS
10
154.922
20
-79.5725
11
154.852
21
-79.6078
0
LINE
8
BLACK
6
CONTINUOUS
10
155.698
20
-26.9028
11
155.945
21
-26.9381
0
LINE
8
BLACK
6
CONTINUOUS
10
94.7915
20
-28.8431
11
94.6856
21
-28.8783
0
LINE
8
BLACK
6
CONTINUOUS
10
35.8244
20
-80.8072
11
35.8244
21
-80.7367
0
LINE
8
BLACK
6
CONTINUOUS
10
32.1203
20
-28.5256
11
32.2261
21
-28.3139
0
LINE
8
BLACK
6
CONTINUOUS
10
34.625
20
-81.6186
11
34.6956
21
-81.6186
0
LINE
8
BLACK
6
CONTINUOUS
10
155.169
20
-81.6186
11
155.24
21
-81.6186
0
LINE
8
BLACK
6
CONTINUOUS
10
33.8842
20
-81.1247
11
33.9547
21
-81.1953
0
LINE
8
BLACK
6
CONTINUOUS
10
34.3075
20
-79.6431
11
34.2369
21
-79.6783
0
LINE
8
BLACK
6
CONTINUOUS
10
34.5544
20
-79.5372
11
34.4839
21
-79.5725
0
LINE
8
BLACK
6
CONTINUOUS
10
35.1894
20
-79.6078
11
35.1189
21
-79.5725
0
LINE
8
BLACK
6
CONTINUOUS
10
94.8442
20
-130.231
11
94.7736
21
-130.267
0
LINE
8
BLACK
6
CONTINUOUS
10
94.3503
20
-132.066
11
94.3856
21
-132.136
0
LINE
8
BLACK
6
CONTINUOUS
10
96.0262
20
-30.1131
11
96.0615
21
-30.0425
0
LINE
8
BLACK
6
CONTINUOUS
10
94.7736
20
-130.267
11
94.7031
21
-130.267
0
LINE
8
BLACK
6
CONTINUOUS
10
156.157
20
-81.1247
11
156.192
21
-81.0542
0
LINE
8
BLACK
6
CONTINUOUS
10
158.238
20
-131.501
11
158.203
21
-131.748
0
LINE
8
BLACK
6
CONTINUOUS
10
154.322
20
-80.1017
11
154.287
21
-80.1722
0
LINE
8
BLACK
6
CONTINUOUS
10
95.109
20
-30.9244
11
95.1795
21
-30.9244
0
LINE
8
BLACK
6
CONTINUOUS
10
36.1892
20
-131.101
11
36.2597
21
-130.784
0
LINE
8
BLACK
6
CONTINUOUS
10
35.2719
20
-29.3842
11
34.9544
21
-29.4194
0
LINE
8
BLACK
6
CONTINUOUS
10
95.6381
20
-30.7128
11
95.7087
21
-30.6775
0
LINE
8
BLACK
6
CONTINUOUS
10
154.464
20
-79.89
11
154.393
21
-79.9606
0
LINE
8
BLACK
6
CONTINUOUS
10
95.9378
20
-131.748
11
95.9731
21
-131.678
0
LINE
8
BLACK
6
CONTINUOUS
10
156.157
20
-134.112
11
155.945
21
-134.182
0
LINE
8
BLACK
6
CONTINUOUS
10
33.2139
20
-133.83
11
33.0375
21
-133.689
0
LINE
8
BLACK
6
CONTINUOUS
10
35.26
20
-81.5128
11
35.3306
21
-81.4775
0
LINE
8
BLACK
6
CONTINUOUS
10
95.3381
20
-130.267
11
95.2675
21
-130.267
0
LINE
8
BLACK
6
CONTINUOUS
10
157.815
20
-28.3139
11
157.921
21
-28.5256
0
LINE
8
BLACK
6
CONTINUOUS
10
155.734
20
-81.5128
11
155.804
21
-81.4775
0
LINE
8
BLACK
6
CONTINUOUS
10
94.862
20
-28.8431
11
94.7915
21
-28.8431
0
LINE
8
BLACK
6
CONTINUOUS
10
154.358
20
-81.1247
11
154.393
21
-81.1953
0
LINE
8
BLACK
6
CONTINUOUS
10
34.9544
20
-129.867
11
34.7075
21
-130.008
0
LINE
8
BLACK
6
CONTINUOUS
10
34.9544
20
-29.4194
11
34.7075
21
-29.5606
0
LINE
8
BLACK
6
CONTINUOUS
10
94.0154
20
-29.6192
11
93.9801
21
-29.6897
0
LINE
8
BLACK
6
CONTINUOUS
10
36.0481
20
-131.384
11
36.1892
21
-131.101
0
LINE
8
BLACK
6
CONTINUOUS
10
33.0375
20
-133.689
11
32.8611
21
-133.548
0
LINE
8
BLACK
6
CONTINUOUS
10
95.9556
20
-30.36
11
95.9909
21
-30.2894
0
LINE
8
BLACK
6
CONTINUOUS
10
158.203
20
-29.4075
11
158.238
21
-29.6192
0
LINE
8
BLACK
6
CONTINUOUS
10
96.0436
20
-131.501
11
96.0436
21
-131.431
0
LINE
8
BLACK
6
CONTINUOUS
10
94.0506
20
-29.4781
11
94.0154
21
-29.5486
0
LINE
8
BLACK
6
CONTINUOUS
10
154.181
20
-80.6661
11
154.217
21
-80.7367
  0
ENDSEC
  0
EOF
